{
.appVersion = "1356";
DisplayStrings = (
"/Ldot"
);
classes = (
{
automatic = 1;

glyphs = (
{
glyphname = A;
layers = (
{
anchors = (
{
name = bottom;
position = "{304, 0}";
},
{
name = ogonek;
position = "{606, 0}";
},
{
name = top;
position = "{318, 648}";
}
);
layerId = "f777c4c2-d323-4068-8b89-2bd904ae3831";
paths = (
{
closed = 1;
nodes = (
"248 0 LINE",
"248 56 LINE",
"164 70 LINE",
"201 180 LINE",
"411 180 LINE",
"446 73 LINE",
"359 56 LINE",
"359 0 LINE",
"666 0 LINE",
"666 56 LINE",
"598 73 LINE",
"380 655 LINE",
"259 655 LINE",
"57 71 LINE",
"-8 56 LINE",
"-8 0 LINE"
);
},
{
closed = 1;
nodes = (
"294 464 LINE",
"303 505 LINE",
"312 505 LINE",
"321 464 LINE",
"385 260 LINE",
"228 260 LINE"
);
}
);
width = 653;
},
{
anchors = (
{
name = bottom;
position = "{294, 0}";
},
{
name = ogonek;
position = "{557, 0}";
},
{
name = top;
position = "{299, 648}";
}
);
background = {
paths = (
{
closed = 1;
nodes = (
"165 186 LINE",
"406 186 LINE",
"461 41 LINE",
"559 42 LINE",
"323 653 LINE",
"275 653 LINE",
"48 42 LINE",
"115 41 LINE"
);
},
{
closed = 1;
nodes = (
"202 0 LINE",
"202 44 LINE",
"83 65 LINE",
"-9 41 LINE",
"-9 0 LINE"
);
},
{
closed = 1;
nodes = (
"617 0 LINE",
"617 44 LINE",
"524 64 LINE",
"378 44 LINE",
"378 0 LINE"
);
},
{
closed = 1;
nodes = (
"276 498 LINE",
"281 521 LINE",
"284 521 LINE",
"288 500 LINE",
"385 243 LINE",
"185 243 LINE"
);
}
);
};
layerId = "fce2a917-1261-4b8f-a12a-6bbc6dc19885";
paths = (
{
closed = 1;
nodes = (
"202 0 LINE",
"202 44 LINE",
"121 58 LINE",
"165 186 LINE",
"413 186 LINE",
"462 56 LINE",
"378 44 LINE",
"378 0 LINE",
"617 0 LINE",
"617 44 LINE",
"553 58 LINE",
"323 653 LINE",
"275 653 LINE",
"54 57 LINE",
"-9 41 LINE",
"-9 0 LINE"
);
},
{
closed = 1;
nodes = (
"275 494 LINE",
"282 526 LINE",
"286 526 LINE",
"297 494 LINE",
"392 243 LINE",
"185 243 LINE"
);
}
);
width = 608;
},
{
anchors = (
{
name = bottom;
position = "{288, 0}";
},
{
name = ogonek;
position = "{534, 0}";
},
{
name = top;
position = "{293, 648}";
}
);
background = {
paths = (
{
closed = 1;
nodes = (
"156 189 LINE",
"405 189 LINE",
"462 37 LINE",
"548 38 LINE",
"309 652 LINE",
"271 652 LINE",
"42 38 LINE",
"106 37 LINE"
);
},
{
closed = 1;
nodes = (
"190 0 LINE",
"190 41 LINE",
"74 59 LINE",
"-11 41 LINE",
"-11 0 LINE"
);
},
{
closed = 1;
nodes = (
"604 0 LINE",
"604 41 LINE",
"508 60 LINE",
"383 41 LINE",
"383 0 LINE"
);
},
{
closed = 1;
nodes = (
"270 505 LINE",
"275 527 LINE",
"278 527 LINE",
"282 507 LINE",
"386 240 LINE",
"174 240 LINE"
);
}
);
};
layerId = "4c090d2b-0954-42f9-b8fa-9b61004e66c3";
paths = (
{
closed = 1;
nodes = (
"190 0 LINE",
"190 41 LINE",
"111 53 LINE",
"156 189 LINE",
"413 189 LINE",
"465 53 LINE",
"383 41 LINE",
"383 0 LINE",
"604 0 LINE",
"604 41 LINE",
"542 53 LINE",
"309 652 LINE",
"271 652 LINE",
"48 53 LINE",
"-11 41 LINE",
"-11 0 LINE"
);
},
{
closed = 1;
nodes = (
"267 497 LINE",
"278 537 LINE",
"283 537 LINE",
"295 497 LINE",
"393 240 LINE",
"174 240 LINE"
);
}
);
width = 596;
},
{
anchors = (
{
name = bottom;
position = "{306, 0}";
},
{
name = ogonek;
position = "{612, 0}";
},
{
name = top;
position = "{327, 648}";
}
);
layerId = "5be9d440-7da3-4849-9ff3-c66a194b28b9";
paths = (
{
closed = 1;
nodes = (
"264 0 LINE",
"264 60 LINE",
"174 76 LINE",
"209 178 LINE",
"409 178 LINE",
"442 75 LINE",
"353 60 LINE",
"353 0 LINE",
"683 0 LINE",
"683 60 LINE",
"612 78 LINE",
"402 656 LINE",
"258 656 LINE",
"57 74 LINE",
"-8 60 LINE",
"-8 0 LINE"
);
},
{
closed = 1;
nodes = (
"300 463 LINE",
"308 505 LINE",
"316 505 LINE",
"323 463 LINE",
"381 266 LINE",
"239 266 LINE"
);
}
);
width = 668;
},
{
anchors = (
{
name = bottom;
position = "{297, 0}";
},
{
name = ogonek;
position = "{572, 0}";
},
{
name = top;
position = "{305, 648}";
}
);
layerId = "634A4682-752C-4BE1-9291-605804ACC698";
paths = (
{
closed = 1;
nodes = (
"216 0 LINE",
"216 48 LINE",
"134 62 LINE",
"176 184 LINE",
"412 184 LINE",
"457 61 LINE",
"372 48 LINE",
"372 0 LINE",
"632 0 LINE",
"632 48 LINE",
"567 62 LINE",
"340 654 LINE",
"270 654 LINE",
"55 61 LINE",
"-9 46 LINE",
"-9 0 LINE"
);
},
{
closed = 1;
nodes = (
"281 485 LINE",
"288 520 LINE",
"294 520 LINE",
"304 485 LINE",
"390 248 LINE",
"198 248 LINE"
);
}
);
width = 622;
}
);
leftKerningGroup = A;
rightKerningGroup = A;
unicode = 0041;
},
{
glyphname = AE;
layers = (
{
anchors = (
{
name = top;
position = "{525, 648}";
}
);
layerId = "f777c4c2-d323-4068-8b89-2bd904ae3831";
paths = (
{
closed = 1;
nodes = (
"251 0 LINE",
"251 62 LINE",
"174 73 LINE",
"183 92 LINE",
"254 254 LINE",
"419 254 LINE",
"435 75 LINE",
"357 56 LINE",
"362 0 LINE",
"857 0 LINE",
"839 197 LINE",
"775 197 LINE",
"758 76 LINE",
"620 76 LINE SMOOTH",
"606 76 OFFCURVE",
"591 76 OFFCURVE",
"577 76 CURVE",
"561 258 LINE",
"652 258 LINE",
"681 182 LINE",
"734 182 LINE",
"714 403 LINE",
"661 403 LINE",
"645 334 LINE",
"554 334 LINE",
"534 565 LINE",
"577 572 LINE",
"698 572 LINE",
"735 460 LINE",
"801 460 LINE",
"785 648 LINE",
"338 648 LINE",
"60 54 LINE",
"92 78 LINE",
"-4 57 LINE",
"-4 0 LINE"
);
},
{
closed = 1;
nodes = (
"391 565 LINE",
"412 334 LINE",
"289 334 LINE"
);
}
);
width = 882;
},
{
anchors = (
{
name = top;
position = "{456, 648}";
}
);
layerId = "fce2a917-1261-4b8f-a12a-6bbc6dc19885";
paths = (
{
closed = 1;
nodes = (
"202 0 LINE",
"202 41 LINE",
"128 57 LINE",
"128 75 LINE",
"221 271 LINE",
"391 271 LINE",
"409 60 LINE",
"326 43 LINE",
"326 0 LINE",
"773 0 LINE",
"773 164 LINE",
"724 164 LINE",
"702 57 LINE",
"602 57 LINE SMOOTH",
"564 57 OFFCURVE",
"521 61 OFFCURVE",
"499 67 CURVE",
"480 271 LINE",
"617 271 LINE",
"634 222 LINE",
"676 222 LINE",
"676 377 LINE",
"634 377 LINE",
"617 328 LINE",
"475 328 LINE",
"454 587 LINE",
"548 593 LINE",
"642 593 LINE",
"663 484 LINE",
"712 484 LINE",
"712 648 LINE",
"334 648 LINE",
"44 37 LINE",
"76 63 LINE",
"-9 43 LINE",
"-9 0 LINE"
);
},
{
closed = 1;
nodes = (
"365 583 LINE",
"386 328 LINE",
"250 328 LINE"
);
}
);
width = 793;
},
{
anchors = (
{
name = top;
position = "{444, 648}";
}
);
layerId = "4c090d2b-0954-42f9-b8fa-9b61004e66c3";
paths = (
{
closed = 1;
nodes = (
"189 0 LINE",
"189 36 LINE",
"116 53 LINE",
"114 71 LINE",
"212 275 LINE",
"384 275 LINE",
"402 56 LINE",
"318 40 LINE",
"317 0 LINE",
"751 0 LINE",
"756 155 LINE",
"711 155 LINE",
"687 52 LINE",
"597 52 LINE SMOOTH",
"553 52 OFFCURVE",
"503 57 OFFCURVE",
"479 65 CURVE",
"459 274 LINE",
"608 274 LINE",
"622 232 LINE",
"661 232 LINE",
"666 370 LINE",
"627 370 LINE",
"610 326 LINE",
"454 326 LINE",
"433 593 LINE",
"540 598 LINE",
"627 598 LINE",
"644 490 LINE",
"689 490 LINE",
"693 648 LINE",
"333 648 LINE",
"40 33 LINE",
"72 59 LINE",
"-10 40 LINE",
"-10 0 LINE"
);
},
{
closed = 1;
nodes = (
"358 588 LINE",
"379 326 LINE",
"240 326 LINE"
);
}
);
width = 770;
},
{
anchors = (
{
name = top;
position = "{551, 648}";
}
);
layerId = "5be9d440-7da3-4849-9ff3-c66a194b28b9";
paths = (
{
closed = 1;
nodes = (
"268 0 LINE",
"268 69 LINE",
"190 78 LINE",
"202 98 LINE",
"265 248 LINE",
"429 248 LINE",
"444 80 LINE",
"368 60 LINE",
"374 0 LINE",
"886 0 LINE",
"861 208 LINE",
"792 208 LINE",
"777 82 LINE",
"626 82 LINE SMOOTH",
"620 82 OFFCURVE",
"615 81 OFFCURVE",
"604 79 CURVE",
"589 254 LINE",
"664 254 LINE",
"697 168 LINE",
"754 168 LINE",
"727 412 LINE",
"670 412 LINE",
"655 336 LINE",
"581 336 LINE",
"561 558 LINE",
"587 565 LINE",
"717 565 LINE",
"759 452 LINE",
"831 452 LINE",
"810 648 LINE",
"339 648 LINE",
"66 60 LINE",
"97 83 LINE",
"-2 61 LINE",
"-2 0 LINE"
);
},
{
closed = 1;
nodes = (
"400 559 LINE",
"421 336 LINE",
"302 336 LINE"
);
}
);
width = 912;
},
{
anchors = (
{
name = top;
position = "{477, 648}";
}
);
layerId = "634A4682-752C-4BE1-9291-605804ACC698";
paths = (
{
closed = 1;
nodes = (
"217 0 LINE",
"217 47 LINE",
"142 62 LINE",
"145 80 LINE",
"231 266 LINE",
"399 266 LINE",
"417 65 LINE",
"335 47 LINE",
"337 0 LINE",
"798 0 LINE",
"793 174 LINE",
"739 174 LINE",
"719 63 LINE",
"607 63 LINE SMOOTH",
"577 63 OFFCURVE",
"542 66 OFFCURVE",
"522 70 CURVE",
"504 267 LINE",
"628 267 LINE",
"648 210 LINE",
"693 210 LINE",
"687 385 LINE",
"642 385 LINE",
"625 330 LINE",
"499 330 LINE",
"478 580 LINE",
"557 587 LINE",
"659 587 LINE",
"685 477 LINE",
"739 477 LINE",
"734 648 LINE",
"335 648 LINE",
"49 42 LINE",
"81 68 LINE",
"-8 47 LINE",
"-8 0 LINE"
);
},
{
closed = 1;
nodes = (
"373 578 LINE",
"394 330 LINE",
"262 330 LINE"
);
}
);
width = 820;
}
);
leftKerningGroup = AE;
rightKerningGroup = E;
unicode = 00C6;
},
{
glyphname = B;
layers = (
{
anchors = (
{
name = bottom;
position = "{319, 0}";
},
{
name = top;
position = "{319, 648}";
}
);
layerId = "f777c4c2-d323-4068-8b89-2bd904ae3831";
paths = (
{
closed = 1;
nodes = (
"350 0 LINE SMOOTH",
"507 0 OFFCURVE",
"597 72 OFFCURVE",
"597 193 CURVE SMOOTH",
"597 267 OFFCURVE",
"557 318 OFFCURVE",
"477 344 CURVE",
"539 381 OFFCURVE",
"573 430 OFFCURVE",
"573 481 CURVE SMOOTH",
"573 595 OFFCURVE",
"490 648 OFFCURVE",
"311 648 CURVE SMOOTH",
"35 648 LINE",
"35 592 LINE",
"115 573 LINE",
"115 75 LINE",
"35 56 LINE",
"35 0 LINE"
);
},
{
closed = 1;
nodes = (
"270 76 OFFCURVE",
"264 76 OFFCURVE",
"257 77 CURVE",
"257 291 LINE",
"303 291 LINE SMOOTH",
"405 291 OFFCURVE",
"445 256 OFFCURVE",
"445 186 CURVE SMOOTH",
"445 110 OFFCURVE",
"399 76 OFFCURVE",
"294 76 CURVE"
);
},
{
closed = 1;
nodes = (
"257 568 LINE",
"271 570 OFFCURVE",
"294 572 OFFCURVE",
"312 572 CURVE SMOOTH",
"385 572 OFFCURVE",
"423 538 OFFCURVE",
"423 472 CURVE SMOOTH",
"423 406 OFFCURVE",
"384 367 OFFCURVE",
"302 367 CURVE SMOOTH",
"257 367 LINE"
);
}
);
width = 637;
},
{
anchors = (
{
name = bottom;
position = "{296, 0}";
},
{
name = top;
position = "{296, 648}";
}
);
layerId = "fce2a917-1261-4b8f-a12a-6bbc6dc19885";
paths = (
{
closed = 1;
nodes = (
"332 0 LINE SMOOTH",
"472 0 OFFCURVE",
"555 66 OFFCURVE",
"555 178 CURVE SMOOTH",
"555 257 OFFCURVE",
"492 328 OFFCURVE",
"406 345 CURVE",
"486 373 OFFCURVE",
"521 418 OFFCURVE",
"521 492 CURVE SMOOTH",
"521 588 OFFCURVE",
"442 648 OFFCURVE",
"317 648 CURVE SMOOTH",
"55 648 LINE",
"55 605 LINE",
"138 588 LINE",
"138 60 LINE",
"55 43 LINE",
"55 0 LINE"
);
},
{
closed = 1;
nodes = (
"281 55 OFFCURVE",
"243 58 OFFCURVE",
"224 61 CURVE",
"224 302 LINE",
"292 302 LINE SMOOTH",
"408 302 OFFCURVE",
"456 267 OFFCURVE",
"456 181 CURVE SMOOTH",
"456 99 OFFCURVE",
"407 55 OFFCURVE",
"316 55 CURVE"
);
},
{
closed = 1;
nodes = (
"224 585 LINE",
"246 588 OFFCURVE",
"276 590 OFFCURVE",
"297 590 CURVE SMOOTH",
"386 590 OFFCURVE",
"430 557 OFFCURVE",
"430 491 CURVE SMOOTH",
"430 404 OFFCURVE",
"376 357 OFFCURVE",
"275 357 CURVE SMOOTH",
"224 357 LINE"
);
}
);
width = 596;
},
{
anchors = (
{
name = bottom;
position = "{290, 0}";
},
{
name = top;
position = "{290, 648}";
}
);
layerId = "4c090d2b-0954-42f9-b8fa-9b61004e66c3";
paths = (
{
closed = 1;
nodes = (
"325 0 LINE SMOOTH",
"467 0 OFFCURVE",
"544 69 OFFCURVE",
"544 178 CURVE SMOOTH",
"544 261 OFFCURVE",
"478 327 OFFCURVE",
"395 345 CURVE",
"467 370 OFFCURVE",
"508 421 OFFCURVE",
"508 492 CURVE SMOOTH",
"508 586 OFFCURVE",
"431 648 OFFCURVE",
"314 648 CURVE SMOOTH",
"60 648 LINE",
"60 608 LINE",
"144 592 LINE",
"144 56 LINE",
"60 40 LINE",
"60 0 LINE"
);
},
{
closed = 1;
nodes = (
"281 50 OFFCURVE",
"238 53 OFFCURVE",
"215 57 CURVE",
"215 305 LINE",
"292 305 LINE SMOOTH",
"408 305 OFFCURVE",
"459 268 OFFCURVE",
"459 180 CURVE SMOOTH",
"459 96 OFFCURVE",
"405 50 OFFCURVE",
"319 50 CURVE"
);
},
{
closed = 1;
nodes = (
"215 591 LINE",
"240 595 OFFCURVE",
"271 597 OFFCURVE",
"293 597 CURVE SMOOTH",
"384 597 OFFCURVE",
"432 564 OFFCURVE",
"432 497 CURVE SMOOTH",
"432 403 OFFCURVE",
"377 354 OFFCURVE",
"271 354 CURVE SMOOTH",
"215 354 LINE"
);
}
);
width = 585;
},
{
anchors = (
{
name = bottom;
position = "{326, 0}";
},
{
name = top;
position = "{326, 648}";
}
);
layerId = "5be9d440-7da3-4849-9ff3-c66a194b28b9";
paths = (
{
closed = 1;
nodes = (
"369 0 LINE SMOOTH",
"522 0 OFFCURVE",
"611 69 OFFCURVE",
"611 197 CURVE SMOOTH",
"611 265 OFFCURVE",
"568 319 OFFCURVE",
"490 344 CURVE",
"564 380 OFFCURVE",
"590 434 OFFCURVE",
"590 477 CURVE SMOOTH",
"590 597 OFFCURVE",
"506 648 OFFCURVE",
"309 648 CURVE SMOOTH",
"28 648 LINE",
"28 588 LINE",
"107 568 LINE",
"107 80 LINE",
"28 60 LINE",
"28 0 LINE"
);
},
{
closed = 1;
nodes = (
"280 83 OFFCURVE",
"274 83 OFFCURVE",
"268 83 CURVE",
"268 287 LINE",
"313 287 LINE SMOOTH",
"412 287 OFFCURVE",
"441 255 OFFCURVE",
"441 188 CURVE SMOOTH",
"441 112 OFFCURVE",
"399 83 OFFCURVE",
"286 83 CURVE"
);
},
{
closed = 1;
nodes = (
"268 562 LINE",
"279 564 OFFCURVE",
"300 566 OFFCURVE",
"317 566 CURVE SMOOTH",
"385 566 OFFCURVE",
"420 533 OFFCURVE",
"420 466 CURVE SMOOTH",
"420 406 OFFCURVE",
"392 370 OFFCURVE",
"317 370 CURVE SMOOTH",
"268 370 LINE"
);
}
);
width = 651;
},
{
anchors = (
{
name = bottom;
position = "{303, 0}";
},
{
name = top;
position = "{303, 648}";
}
);
layerId = "634A4682-752C-4BE1-9291-605804ACC698";
paths = (
{
closed = 1;
nodes = (
"337 0 LINE SMOOTH",
"483 0 OFFCURVE",
"568 68 OFFCURVE",
"568 183 CURVE SMOOTH",
"568 260 OFFCURVE",
"512 325 OFFCURVE",
"427 345 CURVE",
"502 375 OFFCURVE",
"537 422 OFFCURVE",
"537 489 CURVE SMOOTH",
"537 590 OFFCURVE",
"456 648 OFFCURVE",
"315 648 CURVE SMOOTH",
"49 648 LINE",
"49 601 LINE",
"131 584 LINE",
"131 65 LINE",
"49 47 LINE",
"49 0 LINE"
);
},
{
closed = 1;
nodes = (
"278 61 OFFCURVE",
"249 63 OFFCURVE",
"234 66 CURVE",
"234 299 LINE",
"295 299 LINE SMOOTH",
"407 299 OFFCURVE",
"453 264 OFFCURVE",
"453 183 CURVE SMOOTH",
"453 102 OFFCURVE",
"405 61 OFFCURVE",
"309 61 CURVE"
);
},
{
closed = 1;
nodes = (
"234 580 LINE",
"254 583 OFFCURVE",
"281 585 OFFCURVE",
"302 585 CURVE SMOOTH",
"386 585 OFFCURVE",
"428 551 OFFCURVE",
"428 485 CURVE SMOOTH",
"428 405 OFFCURVE",
"378 360 OFFCURVE",
"283 360 CURVE SMOOTH",
"234 360 LINE"
);
}
);
width = 608;
}
);
leftKerningGroup = H;
leftMetricsKey = H;
rightKerningGroup = B;
unicode = 0042;
},
{
glyphname = C;
layers = (
{
anchors = (
{
name = bottom;
position = "{348, 0}";
},
{
name = top;
position = "{358, 648}";
}
);
layerId = "f777c4c2-d323-4068-8b89-2bd904ae3831";
paths = (
{
closed = 1;
nodes = (
"455 -18 OFFCURVE",
"527 10 OFFCURVE",
"566 27 CURVE",
"566 207 LINE",
"492 207 LINE",
"469 88 LINE",
"447 78 OFFCURVE",
"410 65 OFFCURVE",
"361 65 CURVE SMOOTH",
"252 65 OFFCURVE",
"198 110 OFFCURVE",
"198 319 CURVE SMOOTH",
"198 516 OFFCURVE",
"239 582 OFFCURVE",
"360 582 CURVE SMOOTH",
"406 582 OFFCURVE",
"444 571 OFFCURVE",
"466 564 CURVE",
"487 459 LINE",
"562 459 LINE",
"562 639 LINE",
"525 649 OFFCURVE",
"446 666 OFFCURVE",
"358 666 CURVE SMOOTH",
"167 666 OFFCURVE",
"35 517 OFFCURVE",
"35 316 CURVE SMOOTH",
"35 104 OFFCURVE",
"134 -18 OFFCURVE",
"335 -18 CURVE SMOOTH"
);
}
);
width = 606;
},
{
anchors = (
{
name = bottom;
position = "{346, 0}";
},
{
name = top;
position = "{355, 648}";
}
);
layerId = "fce2a917-1261-4b8f-a12a-6bbc6dc19885";
paths = (
{
closed = 1;
nodes = (
"460 -11 OFFCURVE",
"518 15 OFFCURVE",
"557 32 CURVE",
"557 184 LINE",
"508 184 LINE",
"488 82 LINE",
"472 66 OFFCURVE",
"424 45 OFFCURVE",
"352 45 CURVE SMOOTH",
"220 45 OFFCURVE",
"146 156 OFFCURVE",
"146 319 CURVE SMOOTH",
"146 516 OFFCURVE",
"202 600 OFFCURVE",
"348 600 CURVE SMOOTH",
"406 600 OFFCURVE",
"459 591 OFFCURVE",
"483 584 CURVE",
"504 474 LINE",
"553 474 LINE",
"553 631 LINE",
"508 649 OFFCURVE",
"443 660 OFFCURVE",
"355 660 CURVE SMOOTH",
"164 660 OFFCURVE",
"45 498 OFFCURVE",
"45 316 CURVE SMOOTH",
"45 104 OFFCURVE",
"139 -11 OFFCURVE",
"340 -11 CURVE SMOOTH"
);
}
);
width = 612;
},
{
anchors = (
{
name = bottom;
position = "{339, 0}";
},
{
name = top;
position = "{355, 648}";
}
);
layerId = "4c090d2b-0954-42f9-b8fa-9b61004e66c3";
paths = (
{
closed = 1;
nodes = (
"462 -9 OFFCURVE",
"517 16 OFFCURVE",
"556 33 CURVE",
"556 178 LINE",
"513 178 LINE",
"494 80 LINE",
"479 69 OFFCURVE",
"441 40 OFFCURVE",
"351 40 CURVE SMOOTH",
"208 40 OFFCURVE",
"133 135 OFFCURVE",
"133 315 CURVE SMOOTH",
"133 505 OFFCURVE",
"206 605 OFFCURVE",
"351 605 CURVE SMOOTH",
"400 605 OFFCURVE",
"455 598 OFFCURVE",
"488 589 CURVE",
"509 478 LINE",
"552 478 LINE",
"552 629 LINE",
"505 649 OFFCURVE",
"436 658 OFFCURVE",
"365 658 CURVE SMOOTH",
"163 658 OFFCURVE",
"49 493 OFFCURVE",
"49 316 CURVE SMOOTH",
"49 104 OFFCURVE",
"141 -9 OFFCURVE",
"342 -9 CURVE SMOOTH"
);
}
);
width = 615;
},
{
anchors = (
{
name = bottom;
position = "{345, 0}";
},
{
name = top;
position = "{359, 648}";
}
);
layerId = "5be9d440-7da3-4849-9ff3-c66a194b28b9";
paths = (
{
closed = 1;
nodes = (
"453 -20 OFFCURVE",
"530 8 OFFCURVE",
"569 25 CURVE",
"569 215 LINE",
"487 215 LINE",
"463 89 LINE",
"433 76 OFFCURVE",
"396 71 OFFCURVE",
"364 71 CURVE SMOOTH",
"277 71 OFFCURVE",
"216 100 OFFCURVE",
"216 318 CURVE SMOOTH",
"216 512 OFFCURVE",
"254 576 OFFCURVE",
"364 576 CURVE SMOOTH",
"399 576 OFFCURVE",
"431 567 OFFCURVE",
"460 557 CURVE",
"481 454 LINE",
"565 454 LINE",
"565 642 LINE",
"524 652 OFFCURVE",
"447 668 OFFCURVE",
"359 668 CURVE SMOOTH",
"168 668 OFFCURVE",
"32 523 OFFCURVE",
"32 316 CURVE SMOOTH",
"32 104 OFFCURVE",
"132 -20 OFFCURVE",
"333 -20 CURVE SMOOTH"
);
}
);
width = 604;
},
{
anchors = (
{
name = bottom;
position = "{347, 0}";
},
{
name = top;
position = "{356, 648}";
}
);
layerId = "634A4682-752C-4BE1-9291-605804ACC698";
paths = (
{
closed = 1;
nodes = (
"459 -13 OFFCURVE",
"521 14 OFFCURVE",
"560 31 CURVE",
"560 191 LINE",
"503 191 LINE",
"482 84 LINE",
"465 70 OFFCURVE",
"420 51 OFFCURVE",
"355 51 CURVE SMOOTH",
"230 51 OFFCURVE",
"162 142 OFFCURVE",
"162 319 CURVE SMOOTH",
"162 516 OFFCURVE",
"213 595 OFFCURVE",
"352 595 CURVE SMOOTH",
"406 595 OFFCURVE",
"454 585 OFFCURVE",
"478 578 CURVE",
"499 469 LINE",
"556 469 LINE",
"556 633 LINE",
"513 649 OFFCURVE",
"444 662 OFFCURVE",
"356 662 CURVE SMOOTH",
"165 662 OFFCURVE",
"42 504 OFFCURVE",
"42 316 CURVE SMOOTH",
"42 104 OFFCURVE",
"138 -13 OFFCURVE",
"339 -13 CURVE SMOOTH"
);
}
);
width = 610;
}
);
leftKerningGroup = O;
leftMetricsKey = O;
rightKerningGroup = C;
unicode = 0043;
},
{
glyphname = Ccedilla;
layers = (
{
background = {
paths = (
{
closed = 1;
nodes = (
"415 -194 OFFCURVE",
"457 -163 OFFCURVE",
"457 -104 CURVE SMOOTH",
"457 -58 OFFCURVE",
"430 -45 OFFCURVE",
"389 -35 CURVE SMOOTH",
"368 -30 LINE",
"368 -17 LINE",
"467 -13 OFFCURVE",
"528 11 OFFCURVE",
"563 27 CURVE",
"563 207 LINE",
"492 207 LINE",
"469 88 LINE",
"447 78 OFFCURVE",
"410 65 OFFCURVE",
"361 65 CURVE SMOOTH",
"252 65 OFFCURVE",
"198 110 OFFCURVE",
"198 319 CURVE SMOOTH",
"198 516 OFFCURVE",
"239 582 OFFCURVE",
"360 582 CURVE SMOOTH",
"406 582 OFFCURVE",
"444 571 OFFCURVE",
"466 564 CURVE",
"487 459 LINE",
"559 459 LINE",
"559 639 LINE",
"522 649 OFFCURVE",
"446 666 OFFCURVE",
"358 666 CURVE SMOOTH",
"167 666 OFFCURVE",
"35 517 OFFCURVE",
"35 316 CURVE SMOOTH",
"35 112 OFFCURVE",
"126 -8 OFFCURVE",
"311 -17 CURVE",
"290 -64 LINE",
"313 -87 LINE",
"342 -93 LINE SMOOTH",
"358 -96 OFFCURVE",
"365 -102 OFFCURVE",
"365 -116 CURVE SMOOTH",
"365 -137 OFFCURVE",
"350 -141 OFFCURVE",
"330 -141 CURVE SMOOTH",
"308 -141 OFFCURVE",
"292 -138 OFFCURVE",
"269 -128 CURVE",
"249 -175 LINE",
"274 -188 OFFCURVE",
"296 -194 OFFCURVE",
"333 -194 CURVE SMOOTH"
);
}
);
};
components = (
{
name = C;
},
{
name = cedillacomb.case;
transform = "{1, 0, 0, 1, 252, 0}";
}
);
layerId = "f777c4c2-d323-4068-8b89-2bd904ae3831";
width = 606;
},
{
background = {
paths = (
{
closed = 1;
nodes = (
"391 -187 OFFCURVE",
"454 -166 OFFCURVE",
"454 -96 CURVE SMOOTH",
"454 -52 OFFCURVE",
"420 -42 OFFCURVE",
"382 -33 CURVE SMOOTH",
"365 -29 LINE",
"365 -11 LINE",
"468 -7 OFFCURVE",
"521 16 OFFCURVE",
"557 32 CURVE",
"557 184 LINE",
"508 184 LINE",
"488 82 LINE",
"488 82 OFFCURVE",
"450 45 OFFCURVE",
"352 45 CURVE SMOOTH",
"220 45 OFFCURVE",
"146 156 OFFCURVE",
"146 319 CURVE SMOOTH",
"146 516 OFFCURVE",
"202 600 OFFCURVE",
"348 600 CURVE SMOOTH",
"427 600 OFFCURVE",
"483 584 OFFCURVE",
"483 584 CURVE",
"504 474 LINE",
"553 474 LINE",
"553 631 LINE",
"508 649 OFFCURVE",
"443 660 OFFCURVE",
"355 660 CURVE SMOOTH",
"164 660 OFFCURVE",
"45 498 OFFCURVE",
"45 316 CURVE SMOOTH",
"45 111 OFFCURVE",
"132 -3 OFFCURVE",
"319 -10 CURVE",
"299 -59 LINE",
"318 -78 LINE",
"355 -86 LINE SMOOTH",
"375 -90 OFFCURVE",
"386 -93 OFFCURVE",
"386 -115 CURVE SMOOTH",
"386 -135 OFFCURVE",
"366 -145 OFFCURVE",
"327 -145 CURVE SMOOTH",
"304 -145 OFFCURVE",
"288 -140 OFFCURVE",
"273 -134 CURVE",
"257 -171 LINE",
"280 -181 OFFCURVE",
"300 -187 OFFCURVE",
"331 -187 CURVE SMOOTH"
);
}
);
};
components = (
{
name = C;
},
{
name = cedillacomb.case;
transform = "{1, 0, 0, 1, 255, 0}";
}
);
layerId = "fce2a917-1261-4b8f-a12a-6bbc6dc19885";
width = 612;
},
{
background = {
paths = (
{
closed = 1;
nodes = (
"385 -185 OFFCURVE",
"453 -167 OFFCURVE",
"453 -94 CURVE SMOOTH",
"453 -50 OFFCURVE",
"417 -41 OFFCURVE",
"380 -32 CURVE",
"364 -29 LINE",
"364 -9 LINE",
"468 -5 OFFCURVE",
"519 17 OFFCURVE",
"555 33 CURVE",
"555 178 LINE",
"512 178 LINE",
"493 80 LINE",
"499 83 OFFCURVE",
"460 40 OFFCURVE",
"350 40 CURVE SMOOTH",
"212 40 OFFCURVE",
"132 168 OFFCURVE",
"132 319 CURVE SMOOTH",
"132 516 OFFCURVE",
"192 605 OFFCURVE",
"345 605 CURVE SMOOTH",
"432 605 OFFCURVE",
"493 587 OFFCURVE",
"487 589 CURVE",
"508 478 LINE",
"551 478 LINE",
"551 629 LINE",
"504 649 OFFCURVE",
"442 658 OFFCURVE",
"354 658 CURVE SMOOTH",
"163 658 OFFCURVE",
"48 493 OFFCURVE",
"48 316 CURVE SMOOTH",
"48 111 OFFCURVE",
"134 -2 OFFCURVE",
"321 -8 CURVE",
"301 -58 LINE",
"319 -76 LINE",
"358 -84 LINE SMOOTH",
"379 -88 OFFCURVE",
"391 -91 OFFCURVE",
"391 -115 CURVE SMOOTH",
"391 -134 OFFCURVE",
"370 -146 OFFCURVE",
"326 -146 CURVE SMOOTH",
"303 -146 OFFCURVE",
"287 -141 OFFCURVE",
"274 -136 CURVE",
"259 -170 LINE",
"282 -179 OFFCURVE",
"301 -185 OFFCURVE",
"330 -185 CURVE SMOOTH"
);
}
);
};
components = (
{
name = C;
},
{
name = cedillacomb.case;
transform = "{1, 0, 0, 1, 252, 0}";
}
);
layerId = "4c090d2b-0954-42f9-b8fa-9b61004e66c3";
width = 615;
},
{
background = {
paths = (
{
closed = 1;
nodes = (
"423 -196 OFFCURVE",
"458 -162 OFFCURVE",
"458 -107 CURVE SMOOTH",
"458 -60 OFFCURVE",
"433 -46 OFFCURVE",
"391 -36 CURVE SMOOTH",
"369 -30 LINE",
"369 -19 LINE",
"467 -15 OFFCURVE",
"530 9 OFFCURVE",
"565 25 CURVE",
"565 215 LINE",
"487 215 LINE",
"463 90 LINE",
"433 77 OFFCURVE",
"396 72 OFFCURVE",
"364 72 CURVE SMOOTH",
"263 72 OFFCURVE",
"216 94 OFFCURVE",
"216 319 CURVE SMOOTH",
"216 516 OFFCURVE",
"252 576 OFFCURVE",
"364 576 CURVE SMOOTH",
"399 576 OFFCURVE",
"431 567 OFFCURVE",
"460 557 CURVE",
"481 454 LINE",
"561 454 LINE",
"561 642 LINE",
"527 649 OFFCURVE",
"447 668 OFFCURVE",
"359 668 CURVE SMOOTH",
"168 668 OFFCURVE",
"32 523 OFFCURVE",
"32 316 CURVE SMOOTH",
"32 112 OFFCURVE",
"124 -10 OFFCURVE",
"308 -19 CURVE",
"287 -66 LINE",
"311 -90 LINE",
"338 -95 LINE SMOOTH",
"352 -98 OFFCURVE",
"358 -105 OFFCURVE",
"358 -116 CURVE SMOOTH",
"358 -138 OFFCURVE",
"345 -140 OFFCURVE",
"331 -140 CURVE SMOOTH",
"309 -140 OFFCURVE",
"293 -137 OFFCURVE",
"268 -126 CURVE",
"246 -176 LINE",
"272 -190 OFFCURVE",
"295 -196 OFFCURVE",
"334 -196 CURVE SMOOTH"
);
}
);
};
components = (
{
name = C;
},
{
name = cedillacomb.case;
transform = "{1, 0, 0, 1, 255, 0}";
}
);
layerId = "5be9d440-7da3-4849-9ff3-c66a194b28b9";
width = 604;
},
{
components = (
{
name = C;
},
{
name = cedillacomb.case;
transform = "{1, 0, 0, 1, 254, 0}";
}
);
layerId = "634A4682-752C-4BE1-9291-605804ACC698";
width = 610;
}
);
leftKerningGroup = O;
rightKerningGroup = C;
unicode = 00C7;
},
{
glyphname = D;
layers = (
{
anchors = (
{
name = bottom;
position = "{356, 0}";
},
{
name = center;
position = "{213, 334}";
},
{
name = top;
position = "{351, 648}";
}
);
layerId = "f777c4c2-d323-4068-8b89-2bd904ae3831";
paths = (
{
closed = 1;
nodes = (
"354 0 LINE SMOOTH",
"545 0 OFFCURVE",
"677 131 OFFCURVE",
"677 332 CURVE SMOOTH",
"677 544 OFFCURVE",
"557 648 OFFCURVE",
"348 648 CURVE SMOOTH",
"35 648 LINE",
"35 592 LINE",
"115 573 LINE",
"115 75 LINE",
"35 56 LINE",
"35 0 LINE"
);
},
{
closed = 1;
nodes = (
"278 76 OFFCURVE",
"268 76 OFFCURVE",
"257 76 CURVE",
"257 572 LINE",
"274 572 OFFCURVE",
"292 572 OFFCURVE",
"309 572 CURVE SMOOTH",
"418 572 OFFCURVE",
"514 545 OFFCURVE",
"514 343 CURVE SMOOTH",
"514 130 OFFCURVE",
"470 76 OFFCURVE",
"289 76 CURVE SMOOTH"
);
}
);
width = 712;
},
{
anchors = (
{
name = bottom;
position = "{352, 0}";
},
{
name = center;
position = "{231, 334}";
},
{
name = top;
position = "{352, 648}";
}
);
layerId = "fce2a917-1261-4b8f-a12a-6bbc6dc19885";
paths = (
{
closed = 1;
nodes = (
"310 0 LINE SMOOTH",
"539 0 OFFCURVE",
"658 116 OFFCURVE",
"658 340 CURVE SMOOTH",
"658 538 OFFCURVE",
"548 648 OFFCURVE",
"351 648 CURVE SMOOTH",
"55 648 LINE",
"55 605 LINE",
"138 587 LINE",
"138 60 LINE",
"55 43 LINE",
"55 0 LINE"
);
},
{
closed = 1;
nodes = (
"284 51 OFFCURVE",
"243 56 OFFCURVE",
"224 62 CURVE",
"224 583 LINE",
"250 588 OFFCURVE",
"282 590 OFFCURVE",
"320 590 CURVE SMOOTH",
"483 590 OFFCURVE",
"557 511 OFFCURVE",
"557 337 CURVE SMOOTH",
"557 134 OFFCURVE",
"488 51 OFFCURVE",
"319 51 CURVE"
);
}
);
width = 703;
},
{
anchors = (
{
name = bottom;
position = "{351, 0}";
},
{
name = center;
position = "{235, 334}";
},
{
name = top;
position = "{351, 648}";
}
);
layerId = "4c090d2b-0954-42f9-b8fa-9b61004e66c3";
paths = (
{
closed = 1;
nodes = (
"299 0 LINE SMOOTH",
"535 0 OFFCURVE",
"653 114 OFFCURVE",
"653 342 CURVE SMOOTH",
"653 542 OFFCURVE",
"536 648 OFFCURVE",
"352 648 CURVE SMOOTH",
"60 648 LINE",
"60 608 LINE",
"144 591 LINE",
"144 56 LINE",
"60 40 LINE",
"60 0 LINE"
);
},
{
closed = 1;
nodes = (
"286 46 OFFCURVE",
"237 51 OFFCURVE",
"215 58 CURVE",
"215 586 LINE",
"244 592 OFFCURVE",
"279 595 OFFCURVE",
"323 595 CURVE SMOOTH",
"498 595 OFFCURVE",
"568 502 OFFCURVE",
"568 335 CURVE SMOOTH",
"568 135 OFFCURVE",
"490 46 OFFCURVE",
"327 46 CURVE SMOOTH"
);
}
);
width = 699;
},
{
anchors = (
{
name = bottom;
position = "{357, 0}";
},
{
name = center;
position = "{207, 334}";
},
{
name = top;
position = "{347, 648}";
}
);
layerId = "5be9d440-7da3-4849-9ff3-c66a194b28b9";
paths = (
{
closed = 1;
nodes = (
"349 0 LINE SMOOTH",
"547 0 OFFCURVE",
"683 136 OFFCURVE",
"683 329 CURVE SMOOTH",
"683 546 OFFCURVE",
"560 648 OFFCURVE",
"337 648 CURVE SMOOTH",
"28 648 LINE",
"28 588 LINE",
"107 568 LINE",
"107 80 LINE",
"28 60 LINE",
"28 0 LINE"
);
},
{
closed = 1;
nodes = (
"282 85 OFFCURVE",
"275 85 OFFCURVE",
"268 85 CURVE",
"268 566 LINE",
"280 566 OFFCURVE",
"293 566 OFFCURVE",
"305 566 CURVE SMOOTH",
"396 566 OFFCURVE",
"499 557 OFFCURVE",
"499 345 CURVE SMOOTH",
"499 131 OFFCURVE",
"462 85 OFFCURVE",
"289 85 CURVE SMOOTH"
);
}
);
width = 715;
},
{
anchors = (
{
name = bottom;
position = "{353, 0}";
},
{
name = center;
position = "{226, 334}";
},
{
name = top;
position = "{352, 648}";
}
);
layerId = "634A4682-752C-4BE1-9291-605804ACC698";
paths = (
{
closed = 1;
nodes = (
"323 0 LINE SMOOTH",
"541 0 OFFCURVE",
"664 120 OFFCURVE",
"664 338 CURVE SMOOTH",
"664 540 OFFCURVE",
"551 648 OFFCURVE",
"350 648 CURVE SMOOTH",
"49 648 LINE",
"49 601 LINE",
"131 583 LINE",
"131 65 LINE",
"49 47 LINE",
"49 0 LINE"
);
},
{
closed = 1;
nodes = (
"282 59 OFFCURVE",
"251 62 OFFCURVE",
"234 66 CURVE",
"234 580 LINE",
"257 583 OFFCURVE",
"285 585 OFFCURVE",
"317 585 CURVE SMOOTH",
"463 585 OFFCURVE",
"544 521 OFFCURVE",
"544 339 CURVE SMOOTH",
"544 133 OFFCURVE",
"483 59 OFFCURVE",
"310 59 CURVE"
);
}
);
width = 706;
}
);
leftKerningGroup = H;
leftMetricsKey = H;
rightKerningGroup = O;
rightMetricsKey = O;
unicode = 0044;
},
{
glyphname = E;
layers = (
{
anchors = (
{
name = bottom;
position = "{311, 0}";
},
{
name = ogonek;
position = "{505, 0}";
},
{
name = top;
position = "{317, 648}";
}
);
layerId = "f777c4c2-d323-4068-8b89-2bd904ae3831";
paths = (
{
closed = 1;
nodes = (
"541 0 LINE",
"541 197 LINE",
"475 197 LINE",
"449 76 LINE",
"325 76 LINE SMOOTH",
"299 76 OFFCURVE",
"273 77 OFFCURVE",
"257 79 CURVE",
"257 290 LINE",
"359 290 LINE",
"381 214 LINE",
"434 214 LINE",
"434 435 LINE",
"381 435 LINE",
"359 366 LINE",
"257 366 LINE",
"257 565 LINE",
"301 572 LINE",
"439 572 LINE",
"464 460 LINE",
"532 460 LINE",
"532 648 LINE",
"35 648 LINE",
"35 592 LINE",
"115 573 LINE",
"115 75 LINE",
"35 56 LINE",
"35 0 LINE"
);
}
);
width = 581;
},
{
anchors = (
{
name = bottom;
position = "{306, 0}";
},
{
name = ogonek;
position = "{480, 0}";
},
{
name = top;
position = "{320, 648}";
}
);
layerId = "fce2a917-1261-4b8f-a12a-6bbc6dc19885";
paths = (
{
closed = 1;
nodes = (
"522 0 LINE",
"522 164 LINE",
"473 164 LINE",
"451 57 LINE",
"331 57 LINE SMOOTH",
"294 57 OFFCURVE",
"249 61 OFFCURVE",
"224 67 CURVE",
"224 305 LINE",
"382 305 LINE",
"397 246 LINE",
"439 246 LINE",
"439 417 LINE",
"397 417 LINE",
"382 358 LINE",
"224 358 LINE",
"224 587 LINE",
"322 593 LINE",
"443 593 LINE",
"464 484 LINE",
"513 484 LINE",
"513 648 LINE",
"55 648 LINE",
"55 605 LINE",
"138 588 LINE",
"138 60 LINE",
"55 43 LINE",
"55 0 LINE"
);
}
);
width = 572;
},
{
anchors = (
{
name = bottom;
position = "{314, 0}";
},
{
name = ogonek;
position = "{474, 0}";
},
{
name = top;
position = "{312, 648}";
}
);
layerId = "4c090d2b-0954-42f9-b8fa-9b61004e66c3";
paths = (
{
closed = 1;
nodes = (
"517 0 LINE",
"517 155 LINE",
"472 155 LINE",
"452 52 LINE",
"338 52 LINE SMOOTH",
"295 52 OFFCURVE",
"243 57 OFFCURVE",
"215 65 CURVE",
"215 309 LINE",
"388 309 LINE",
"401 254 LINE",
"440 254 LINE",
"440 412 LINE",
"401 412 LINE",
"388 356 LINE",
"215 356 LINE",
"215 593 LINE",
"327 598 LINE",
"444 598 LINE",
"464 490 LINE",
"508 490 LINE",
"508 648 LINE",
"60 648 LINE",
"60 608 LINE",
"144 592 LINE",
"144 56 LINE",
"60 40 LINE",
"60 0 LINE"
);
}
);
width = 570;
},
{
anchors = (
{
name = bottom;
position = "{313, 0}";
},
{
name = ogonek;
position = "{510, 0}";
},
{
name = top;
position = "{318, 648}";
}
);
layerId = "5be9d440-7da3-4849-9ff3-c66a194b28b9";
paths = (
{
closed = 1;
nodes = (
"547 0 LINE",
"547 208 LINE",
"476 208 LINE",
"448 82 LINE",
"316 82 LINE SMOOTH",
"297 82 OFFCURVE",
"287 82 OFFCURVE",
"268 84 CURVE",
"268 285 LINE",
"351 285 LINE",
"376 203 LINE",
"432 203 LINE",
"432 441 LINE",
"376 441 LINE",
"351 369 LINE",
"268 369 LINE",
"268 558 LINE",
"299 565 LINE",
"438 565 LINE",
"464 452 LINE",
"538 452 LINE",
"538 648 LINE",
"28 648 LINE",
"28 588 LINE",
"107 568 LINE",
"107 80 LINE",
"28 60 LINE",
"28 0 LINE"
);
}
);
width = 584;
},
{
anchors = (
{
name = bottom;
position = "{308, 0}";
},
{
name = ogonek;
position = "{488, 0}";
},
{
name = top;
position = "{319, 648}";
}
);
layerId = "634A4682-752C-4BE1-9291-605804ACC698";
paths = (
{
closed = 1;
nodes = (
"528 0 LINE",
"528 174 LINE",
"474 174 LINE",
"450 63 LINE",
"329 63 LINE SMOOTH",
"296 63 OFFCURVE",
"256 66 OFFCURVE",
"234 71 CURVE",
"234 301 LINE",
"375 301 LINE",
"392 236 LINE",
"437 236 LINE",
"437 422 LINE",
"392 422 LINE",
"375 360 LINE",
"234 360 LINE",
"234 580 LINE",
"316 587 LINE",
"442 587 LINE",
"464 477 LINE",
"519 477 LINE",
"519 648 LINE",
"49 648 LINE",
"49 601 LINE",
"131 584 LINE",
"131 65 LINE",
"49 47 LINE",
"49 0 LINE"
);
}
);
width = 575;
}
);
leftKerningGroup = H;
leftMetricsKey = H;
rightKerningGroup = E;
unicode = 0045;
},
{
glyphname = F;
layers = (
{
anchors = (
{
name = bottom;
position = "{186, 0}";
},
{
name = top;
position = "{316, 648}";
}
);
layerId = "f777c4c2-d323-4068-8b89-2bd904ae3831";
paths = (
{
closed = 1;
nodes = (
"337 0 LINE",
"337 56 LINE",
"257 75 LINE",
"257 274 LINE",
"376 274 LINE",
"398 197 LINE",
"451 197 LINE",
"451 418 LINE",
"398 418 LINE",
"376 349 LINE",
"257 349 LINE",
"257 565 LINE",
"301 572 LINE",
"429 572 LINE",
"454 460 LINE",
"522 460 LINE",
"522 648 LINE",
"35 648 LINE",
"35 592 LINE",
"115 573 LINE",
"115 75 LINE",
"35 56 LINE",
"35 0 LINE"
);
}
);
width = 537;
},
{
anchors = (
{
name = bottom;
position = "{181, 0}";
},
{
name = top;
position = "{319, 648}";
}
);
layerId = "fce2a917-1261-4b8f-a12a-6bbc6dc19885";
paths = (
{
closed = 1;
nodes = (
"338 0 LINE",
"338 49 LINE",
"224 63 LINE",
"224 285 LINE",
"391 285 LINE",
"405 226 LINE",
"447 226 LINE",
"447 398 LINE",
"405 398 LINE",
"391 338 LINE",
"224 338 LINE",
"224 587 LINE",
"322 593 LINE",
"446 593 LINE",
"467 484 LINE",
"517 484 LINE",
"517 648 LINE",
"55 648 LINE",
"55 605 LINE",
"138 588 LINE",
"138 60 LINE",
"55 43 LINE",
"55 0 LINE"
);
}
);
width = 517;
},
{
anchors = (
{
name = bottom;
position = "{180, 0}";
},
{
name = top;
position = "{320, 648}";
}
);
layerId = "4c090d2b-0954-42f9-b8fa-9b61004e66c3";
paths = (
{
closed = 1;
nodes = (
"338 0 LINE",
"338 47 LINE",
"215 60 LINE",
"215 288 LINE",
"395 288 LINE",
"407 234 LINE",
"446 234 LINE",
"446 393 LINE",
"407 393 LINE",
"395 335 LINE",
"215 335 LINE",
"215 593 LINE",
"327 598 LINE",
"450 598 LINE",
"470 490 LINE",
"516 490 LINE",
"516 648 LINE",
"60 648 LINE",
"60 608 LINE",
"144 592 LINE",
"144 56 LINE",
"60 40 LINE",
"60 0 LINE"
);
}
);
width = 512;
},
{
anchors = (
{
name = bottom;
position = "{188, 0}";
},
{
name = top;
position = "{315, 648}";
}
);
layerId = "5be9d440-7da3-4849-9ff3-c66a194b28b9";
paths = (
{
closed = 1;
nodes = (
"337 0 LINE",
"337 58 LINE",
"268 79 LINE",
"268 270 LINE",
"371 270 LINE",
"396 187 LINE",
"452 187 LINE",
"452 425 LINE",
"396 425 LINE",
"371 353 LINE",
"268 353 LINE",
"268 558 LINE",
"299 565 LINE",
"423 565 LINE",
"450 452 LINE",
"524 452 LINE",
"524 648 LINE",
"28 648 LINE",
"28 588 LINE",
"107 568 LINE",
"107 80 LINE",
"28 60 LINE",
"28 0 LINE"
);
}
);
width = 544;
},
{
anchors = (
{
name = bottom;
position = "{183, 0}";
},
{
name = top;
position = "{318, 648}";
}
);
layerId = "634A4682-752C-4BE1-9291-605804ACC698";
paths = (
{
closed = 1;
nodes = (
"338 0 LINE",
"338 51 LINE",
"234 67 LINE",
"234 282 LINE",
"387 282 LINE",
"403 217 LINE",
"448 217 LINE",
"448 404 LINE",
"403 404 LINE",
"387 341 LINE",
"234 341 LINE",
"234 580 LINE",
"316 587 LINE",
"441 587 LINE",
"463 477 LINE",
"519 477 LINE",
"519 648 LINE",
"49 648 LINE",
"49 601 LINE",
"131 584 LINE",
"131 65 LINE",
"49 47 LINE",
"49 0 LINE"
);
}
);
width = 523;
}
);
leftKerningGroup = H;
leftMetricsKey = H;
rightKerningGroup = F;
unicode = 0046;
},
{
glyphname = G;
layers = (
{
anchors = (
{
name = bottom;
position = "{344, 0}";
},
{
name = top;
position = "{333, 648}";
}
);
layerId = "f777c4c2-d323-4068-8b89-2bd904ae3831";
paths = (
{
closed = 1;
nodes = (
"414 -18 OFFCURVE",
"464 3 OFFCURVE",
"501 26 CURVE",
"510 26 LINE",
"533 0 LINE",
"583 0 LINE",
"583 259 LINE",
"633 278 LINE",
"633 334 LINE",
"361 334 LINE",
"361 278 LINE",
"441 259 LINE",
"441 78 LINE",
"422 71 OFFCURVE",
"395 65 OFFCURVE",
"361 65 CURVE SMOOTH",
"252 65 OFFCURVE",
"198 124 OFFCURVE",
"198 322 CURVE SMOOTH",
"198 500 OFFCURVE",
"253 582 OFFCURVE",
"385 582 CURVE SMOOTH",
"431 582 OFFCURVE",
"462 572 OFFCURVE",
"481 563 CURVE",
"502 455 LINE",
"577 455 LINE",
"577 635 LINE",
"538 645 OFFCURVE",
"476 666 OFFCURVE",
"384 666 CURVE SMOOTH",
"177 666 OFFCURVE",
"35 537 OFFCURVE",
"35 308 CURVE SMOOTH",
"35 96 OFFCURVE",
"134 -18 OFFCURVE",
"335 -18 CURVE SMOOTH"
);
}
);
width = 648;
},
{
anchors = (
{
name = bottom;
position = "{345, 0}";
},
{
name = top;
position = "{343, 648}";
}
);
layerId = "fce2a917-1261-4b8f-a12a-6bbc6dc19885";
paths = (
{
closed = 1;
nodes = (
"416 -11 OFFCURVE",
"458 11 OFFCURVE",
"482 27 CURVE",
"496 27 LINE",
"528 0 LINE",
"569 0 LINE",
"569 263 LINE",
"610 271 LINE",
"610 321 LINE",
"413 321 LINE",
"413 278 LINE",
"485 260 LINE",
"485 77 LINE",
"447 57 OFFCURVE",
"419 45 OFFCURVE",
"354 45 CURVE SMOOTH",
"201 45 OFFCURVE",
"146 144 OFFCURVE",
"146 326 CURVE SMOOTH",
"146 505 OFFCURVE",
"196 601 OFFCURVE",
"346 601 CURVE SMOOTH",
"409 601 OFFCURVE",
"460 591 OFFCURVE",
"481 584 CURVE",
"510 474 LINE",
"558 474 LINE",
"558 630 LINE",
"538 642 OFFCURVE",
"465 660 OFFCURVE",
"359 660 CURVE SMOOTH",
"159 660 OFFCURVE",
"45 498 OFFCURVE",
"45 316 CURVE SMOOTH",
"45 87 OFFCURVE",
"147 -11 OFFCURVE",
"329 -11 CURVE SMOOTH"
);
}
);
width = 645;
},
{
anchors = (
{
name = bottom;
position = "{346, 0}";
},
{
name = top;
position = "{340, 648}";
}
);
layerId = "4c090d2b-0954-42f9-b8fa-9b61004e66c3";
paths = (
{
closed = 1;
nodes = (
"434 -9 OFFCURVE",
"476 13 OFFCURVE",
"497 27 CURVE",
"512 27 LINE",
"534 0 LINE",
"566 0 LINE",
"566 264 LINE",
"605 269 LINE",
"605 318 LINE",
"428 318 LINE",
"428 278 LINE",
"497 260 LINE",
"497 73 LINE",
"455 49 OFFCURVE",
"426 40 OFFCURVE",
"353 40 CURVE SMOOTH",
"189 40 OFFCURVE",
"133 149 OFFCURVE",
"133 327 CURVE SMOOTH",
"133 521 OFFCURVE",
"193 606 OFFCURVE",
"355 606 CURVE SMOOTH",
"398 606 OFFCURVE",
"454 598 OFFCURVE",
"482 589 CURVE",
"513 479 LINE",
"554 479 LINE",
"554 628 LINE",
"535 640 OFFCURVE",
"467 658 OFFCURVE",
"362 658 CURVE SMOOTH",
"167 658 OFFCURVE",
"49 503 OFFCURVE",
"49 318 CURVE SMOOTH",
"49 85 OFFCURVE",
"155 -9 OFFCURVE",
"340 -9 CURVE SMOOTH"
);
}
);
width = 645;
},
{
anchors = (
{
name = bottom;
position = "{344, 0}";
},
{
name = top;
position = "{336, 648}";
}
);
layerId = "5be9d440-7da3-4849-9ff3-c66a194b28b9";
paths = (
{
closed = 1;
nodes = (
"413 -20 OFFCURVE",
"466 0 OFFCURVE",
"507 26 CURVE",
"515 26 LINE",
"535 0 LINE",
"588 0 LINE",
"588 258 LINE",
"641 280 LINE",
"641 338 LINE",
"343 338 LINE",
"343 278 LINE",
"426 259 LINE",
"426 78 LINE",
"414 76 OFFCURVE",
"387 72 OFFCURVE",
"363 72 CURVE SMOOTH",
"269 72 OFFCURVE",
"216 117 OFFCURVE",
"216 321 CURVE SMOOTH",
"216 502 OFFCURVE",
"269 576 OFFCURVE",
"398 576 CURVE SMOOTH",
"431 576 OFFCURVE",
"456 568 OFFCURVE",
"481 556 CURVE",
"499 449 LINE",
"583 449 LINE",
"583 637 LINE",
"538 649 OFFCURVE",
"480 668 OFFCURVE",
"393 668 CURVE SMOOTH",
"183 668 OFFCURVE",
"32 550 OFFCURVE",
"32 305 CURVE SMOOTH",
"32 99 OFFCURVE",
"130 -20 OFFCURVE",
"337 -20 CURVE SMOOTH"
);
}
);
width = 649;
},
{
anchors = (
{
name = bottom;
position = "{345, 0}";
},
{
name = top;
position = "{340, 648}";
}
);
layerId = "634A4682-752C-4BE1-9291-605804ACC698";
paths = (
{
closed = 1;
nodes = (
"415 -13 OFFCURVE",
"460 9 OFFCURVE",
"488 27 CURVE",
"500 27 LINE",
"530 0 LINE",
"573 0 LINE",
"573 262 LINE",
"617 273 LINE",
"617 325 LINE",
"397 325 LINE",
"397 278 LINE",
"472 260 LINE",
"472 77 LINE",
"440 61 OFFCURVE",
"412 51 OFFCURVE",
"356 51 CURVE SMOOTH",
"216 51 OFFCURVE",
"162 138 OFFCURVE",
"162 325 CURVE SMOOTH",
"162 504 OFFCURVE",
"213 595 OFFCURVE",
"358 595 CURVE SMOOTH",
"416 595 OFFCURVE",
"461 585 OFFCURVE",
"481 578 CURVE",
"508 468 LINE",
"564 468 LINE",
"564 632 LINE",
"538 643 OFFCURVE",
"468 662 OFFCURVE",
"367 662 CURVE SMOOTH",
"164 662 OFFCURVE",
"42 510 OFFCURVE",
"42 314 CURVE SMOOTH",
"42 90 OFFCURVE",
"143 -13 OFFCURVE",
"331 -13 CURVE SMOOTH"
);
}
);
width = 646;
}
);
leftKerningGroup = O;
leftMetricsKey = O;
rightKerningGroup = G;
unicode = 0047;
},
{
glyphname = Gcommaaccent;
layers = (
{
background = {
paths = (
{
closed = 1;
nodes = (
"414 -18 OFFCURVE",
"464 3 OFFCURVE",
"501 26 CURVE",
"510 26 LINE",
"533 0 LINE",
"583 0 LINE",
"583 259 LINE",
"633 278 LINE",
"633 334 LINE",
"361 334 LINE",
"361 278 LINE",
"441 259 LINE",
"441 78 LINE",
"422 71 OFFCURVE",
"395 65 OFFCURVE",
"361 65 CURVE SMOOTH",
"252 65 OFFCURVE",
"198 124 OFFCURVE",
"198 322 CURVE SMOOTH",
"198 500 OFFCURVE",
"253 582 OFFCURVE",
"385 582 CURVE SMOOTH",
"431 582 OFFCURVE",
"462 572 OFFCURVE",
"481 563 CURVE",
"502 455 LINE",
"574 455 LINE",
"574 635 LINE",
"535 645 OFFCURVE",
"476 666 OFFCURVE",
"384 666 CURVE SMOOTH",
"177 666 OFFCURVE",
"35 537 OFFCURVE",
"35 308 CURVE SMOOTH",
"35 96 OFFCURVE",
"134 -18 OFFCURVE",
"335 -18 CURVE SMOOTH"
);
},
{
closed = 1;
nodes = (
"346 -212 LINE",
"346 -212 OFFCURVE",
"414 -150 OFFCURVE",
"414 -83 CURVE SMOOTH",
"414 -54 OFFCURVE",
"397 -24 OFFCURVE",
"352 -24 CURVE SMOOTH",
"326 -24 OFFCURVE",
"310 -38 OFFCURVE",
"296 -54 CURVE",
"296 -54 OFFCURVE",
"316 -73 OFFCURVE",
"316 -118 CURVE SMOOTH",
"316 -162 OFFCURVE",
"302 -212 OFFCURVE",
"302 -212 CURVE"
);
}
);
};
components = (
{
name = G;
},
{
name = commaaccentcomb.case;
transform = "{1, 0, 0, 1, 285, 0}";
}
);
layerId = "f777c4c2-d323-4068-8b89-2bd904ae3831";
width = 648;
},
{
background = {
paths = (
{
closed = 1;
nodes = (
"416 -11 OFFCURVE",
"458 11 OFFCURVE",
"482 27 CURVE",
"496 27 LINE",
"528 0 LINE",
"569 0 LINE",
"569 263 LINE",
"610 271 LINE",
"610 321 LINE",
"413 321 LINE",
"413 278 LINE",
"485 260 LINE",
"485 77 LINE",
"447 57 OFFCURVE",
"419 45 OFFCURVE",
"354 45 CURVE SMOOTH",
"201 45 OFFCURVE",
"146 144 OFFCURVE",
"146 326 CURVE SMOOTH",
"146 505 OFFCURVE",
"196 601 OFFCURVE",
"346 601 CURVE SMOOTH",
"432 601 OFFCURVE",
"481 584 OFFCURVE",
"481 584 CURVE",
"510 474 LINE",
"558 474 LINE",
"558 630 LINE",
"538 642 OFFCURVE",
"465 660 OFFCURVE",
"359 660 CURVE SMOOTH",
"159 660 OFFCURVE",
"45 498 OFFCURVE",
"45 316 CURVE SMOOTH",
"45 87 OFFCURVE",
"147 -11 OFFCURVE",
"329 -11 CURVE SMOOTH"
);
},
{
closed = 1;
nodes = (
"356 -187 LINE",
"356 -187 OFFCURVE",
"409 -148 OFFCURVE",
"409 -81 CURVE SMOOTH",
"409 -57 OFFCURVE",
"396 -29 OFFCURVE",
"361 -29 CURVE SMOOTH",
"348 -29 OFFCURVE",
"330 -35 OFFCURVE",
"316 -51 CURVE",
"330 -64 OFFCURVE",
"342 -83 OFFCURVE",
"342 -108 CURVE SMOOTH",
"342 -136 OFFCURVE",
"335 -158 OFFCURVE",
"325 -187 CURVE"
);
}
);
};
components = (
{
name = G;
},
{
name = commaaccentcomb.case;
transform = "{1, 0, 0, 1, 299, 0}";
}
);
layerId = "fce2a917-1261-4b8f-a12a-6bbc6dc19885";
width = 645;
},
{
background = {
paths = (
{
closed = 1;
nodes = (
"417 -9 OFFCURVE",
"456 13 OFFCURVE",
"477 27 CURVE",
"492 27 LINE",
"527 0 LINE",
"565 0 LINE",
"565 264 LINE",
"604 269 LINE",
"604 318 LINE",
"427 318 LINE",
"427 278 LINE",
"496 260 LINE",
"496 77 LINE",
"454 53 OFFCURVE",
"425 40 OFFCURVE",
"352 40 CURVE SMOOTH",
"188 40 OFFCURVE",
"132 149 OFFCURVE",
"132 327 CURVE SMOOTH",
"132 506 OFFCURVE",
"181 606 OFFCURVE",
"336 606 CURVE SMOOTH",
"432 606 OFFCURVE",
"486 587 OFFCURVE",
"481 589 CURVE",
"512 479 LINE",
"554 479 LINE",
"554 629 LINE",
"539 641 OFFCURVE",
"462 658 OFFCURVE",
"353 658 CURVE SMOOTH",
"154 658 OFFCURVE",
"48 488 OFFCURVE",
"48 318 CURVE SMOOTH",
"48 85 OFFCURVE",
"150 -9 OFFCURVE",
"327 -9 CURVE SMOOTH"
);
},
{
closed = 1;
nodes = (
"359 -181 LINE",
"359 -181 OFFCURVE",
"408 -147 OFFCURVE",
"408 -80 CURVE SMOOTH",
"408 -58 OFFCURVE",
"396 -30 OFFCURVE",
"363 -30 CURVE SMOOTH",
"354 -30 OFFCURVE",
"335 -34 OFFCURVE",
"321 -50 CURVE",
"339 -67 OFFCURVE",
"349 -86 OFFCURVE",
"349 -105 CURVE SMOOTH",
"349 -129 OFFCURVE",
"344 -144 OFFCURVE",
"331 -181 CURVE"
);
}
);
};
components = (
{
name = G;
},
{
name = commaaccentcomb.case;
transform = "{1, 0, 0, 1, 303, 0}";
}
);
layerId = "4c090d2b-0954-42f9-b8fa-9b61004e66c3";
width = 645;
},
{
background = {
paths = (
{
closed = 1;
nodes = (
"413 -20 OFFCURVE",
"466 0 OFFCURVE",
"507 26 CURVE",
"515 26 LINE",
"535 0 LINE",
"588 0 LINE",
"588 258 LINE",
"641 280 LINE",
"641 338 LINE",
"343 338 LINE",
"343 278 LINE",
"426 259 LINE",
"426 78 LINE",
"414 76 OFFCURVE",
"387 72 OFFCURVE",
"363 72 CURVE SMOOTH",
"269 72 OFFCURVE",
"216 117 OFFCURVE",
"216 321 CURVE SMOOTH",
"216 498 OFFCURVE",
"272 576 OFFCURVE",
"398 576 CURVE SMOOTH",
"431 576 OFFCURVE",
"456 568 OFFCURVE",
"481 556 CURVE",
"499 449 LINE",
"579 449 LINE",
"579 637 LINE",
"534 646 OFFCURVE",
"480 668 OFFCURVE",
"393 668 CURVE SMOOTH",
"183 668 OFFCURVE",
"32 550 OFFCURVE",
"32 305 CURVE SMOOTH",
"32 99 OFFCURVE",
"130 -20 OFFCURVE",
"337 -20 CURVE SMOOTH"
);
},
{
closed = 1;
nodes = (
"343 -221 LINE",
"343 -221 OFFCURVE",
"416 -151 OFFCURVE",
"416 -84 CURVE SMOOTH",
"416 -53 OFFCURVE",
"397 -22 OFFCURVE",
"349 -22 CURVE SMOOTH",
"319 -22 OFFCURVE",
"303 -39 OFFCURVE",
"289 -55 CURVE",
"284 -51 OFFCURVE",
"307 -70 OFFCURVE",
"307 -121 CURVE SMOOTH",
"307 -171 OFFCURVE",
"291 -230 OFFCURVE",
"294 -221 CURVE"
);
}
);
};
components = (
{
name = G;
},
{
name = commaaccentcomb.case;
transform = "{1, 0, 0, 1, 281, 0}";
}
);
layerId = "5be9d440-7da3-4849-9ff3-c66a194b28b9";
width = 649;
},
{
components = (
{
name = G;
},
{
name = commaaccentcomb.case;
transform = "{1, 0, 0, 1, 295, 0}";
}
);
layerId = "634A4682-752C-4BE1-9291-605804ACC698";
width = 646;
}
);
leftKerningGroup = O;
rightKerningGroup = G;
unicode = 0122;
},
{
glyphname = H;
layers = (
{
anchors = (
{
name = bottom;
position = "{381, 0}";
},
{
name = center;
position = "{381, 480}";
},
{
name = top;
position = "{381, 648}";
},
{
name = topleft;
position = "{35, 648}";
}
);
layerId = "f777c4c2-d323-4068-8b89-2bd904ae3831";
paths = (
{
closed = 1;
nodes = (
"337 0 LINE",
"337 56 LINE",
"257 75 LINE",
"257 296 LINE",
"505 296 LINE",
"505 75 LINE",
"425 56 LINE",
"425 0 LINE",
"727 0 LINE",
"727 56 LINE",
"647 75 LINE",
"647 573 LINE",
"727 592 LINE",
"727 648 LINE",
"425 648 LINE",
"425 592 LINE",
"505 573 LINE",
"505 373 LINE",
"257 373 LINE",
"257 573 LINE",
"337 592 LINE",
"337 648 LINE",
"35 648 LINE",
"35 592 LINE",
"115 573 LINE",
"115 75 LINE",
"35 56 LINE",
"35 0 LINE"
);
}
);
width = 762;
},
{
anchors = (
{
name = bottom;
position = "{377, 0}";
},
{
name = center;
position = "{377, 480}";
},
{
name = top;
position = "{377, 648}";
},
{
name = topleft;
position = "{55, 648}";
}
);
layerId = "fce2a917-1261-4b8f-a12a-6bbc6dc19885";
paths = (
{
closed = 1;
nodes = (
"307 0 LINE",
"307 44 LINE",
"224 59 LINE",
"224 305 LINE",
"530 305 LINE",
"530 59 LINE",
"447 44 LINE",
"447 0 LINE",
"698 0 LINE",
"698 44 LINE",
"616 59 LINE",
"616 589 LINE",
"698 604 LINE",
"698 648 LINE",
"447 648 LINE",
"447 604 LINE",
"530 589 LINE",
"530 360 LINE",
"224 360 LINE",
"224 589 LINE",
"307 604 LINE",
"307 648 LINE",
"55 648 LINE",
"55 604 LINE",
"138 589 LINE",
"138 59 LINE",
"55 44 LINE",
"55 0 LINE"
);
}
);
width = 753;
},
{
anchors = (
{
name = bottom;
position = "{376, 0}";
},
{
name = center;
position = "{376, 480}";
},
{
name = top;
position = "{376, 648}";
},
{
name = topleft;
position = "{60, 648}";
}
);
layerId = "4c090d2b-0954-42f9-b8fa-9b61004e66c3";
paths = (
{
closed = 1;
nodes = (
"299 0 LINE",
"299 41 LINE",
"215 55 LINE",
"215 307 LINE",
"537 307 LINE",
"537 55 LINE",
"453 41 LINE",
"453 0 LINE",
"690 0 LINE",
"690 41 LINE",
"608 55 LINE",
"608 593 LINE",
"690 607 LINE",
"690 648 LINE",
"453 648 LINE",
"453 607 LINE",
"537 593 LINE",
"537 357 LINE",
"215 357 LINE",
"215 593 LINE",
"299 607 LINE",
"299 648 LINE",
"60 648 LINE",
"60 607 LINE",
"144 593 LINE",
"144 55 LINE",
"60 41 LINE",
"60 0 LINE"
);
}
);
width = 751;
},
{
anchors = (
{
name = bottom;
position = "{383, 0}";
},
{
name = center;
position = "{383, 480}";
},
{
name = top;
position = "{383, 648}";
},
{
name = topleft;
position = "{28, 648}";
}
);
layerId = "5be9d440-7da3-4849-9ff3-c66a194b28b9";
paths = (
{
closed = 1;
nodes = (
"347 0 LINE",
"347 60 LINE",
"268 80 LINE",
"268 293 LINE",
"497 293 LINE",
"497 80 LINE",
"418 60 LINE",
"418 0 LINE",
"737 0 LINE",
"737 60 LINE",
"658 80 LINE",
"658 568 LINE",
"737 588 LINE",
"737 648 LINE",
"418 648 LINE",
"418 588 LINE",
"497 568 LINE",
"497 377 LINE",
"268 377 LINE",
"268 568 LINE",
"347 588 LINE",
"347 648 LINE",
"28 648 LINE",
"28 588 LINE",
"107 568 LINE",
"107 80 LINE",
"28 60 LINE",
"28 0 LINE"
);
}
);
width = 765;
},
{
anchors = (
{
name = bottom;
position = "{378, 0}";
},
{
name = center;
position = "{378, 480}";
},
{
name = top;
position = "{378, 648}";
},
{
name = topleft;
position = "{49, 648}";
}
);
layerId = "634A4682-752C-4BE1-9291-605804ACC698";
paths = (
{
closed = 1;
nodes = (
"316 0 LINE",
"316 48 LINE",
"234 64 LINE",
"234 302 LINE",
"523 302 LINE",
"523 64 LINE",
"440 48 LINE",
"440 0 LINE",
"707 0 LINE",
"707 48 LINE",
"625 64 LINE",
"625 584 LINE",
"707 600 LINE",
"707 648 LINE",
"440 648 LINE",
"440 600 LINE",
"523 584 LINE",
"523 364 LINE",
"234 364 LINE",
"234 584 LINE",
"316 600 LINE",
"316 648 LINE",
"49 648 LINE",
"49 600 LINE",
"131 584 LINE",
"131 64 LINE",
"49 48 LINE",
"49 0 LINE"
);
}
);
width = 756;
}
);
leftKerningGroup = H;
rightKerningGroup = H;
unicode = 0048;
},
{
glyphname = I;
layers = (
{
anchors = (
{
name = bottom;
position = "{186, 0}";
},
{
name = ogonek;
position = "{304, 0}";
},
{
name = top;
position = "{186, 648}";
}
);
layerId = "f777c4c2-d323-4068-8b89-2bd904ae3831";
paths = (
{
closed = 1;
nodes = (
"337 0 LINE",
"337 56 LINE",
"257 75 LINE",
"257 573 LINE",
"337 592 LINE",
"337 648 LINE",
"35 648 LINE",
"35 592 LINE",
"115 573 LINE",
"115 75 LINE",
"35 56 LINE",
"35 0 LINE"
);
}
);
width = 372;
},
{
anchors = (
{
name = bottom;
position = "{181, 0}";
},
{
name = ogonek;
position = "{266, 0}";
},
{
name = top;
position = "{181, 648}";
}
);
layerId = "fce2a917-1261-4b8f-a12a-6bbc6dc19885";
paths = (
{
closed = 1;
nodes = (
"306 0 LINE",
"306 44 LINE",
"224 59 LINE",
"224 589 LINE",
"306 604 LINE",
"306 648 LINE",
"55 648 LINE",
"55 604 LINE",
"137 589 LINE",
"137 59 LINE",
"55 44 LINE",
"55 0 LINE"
);
}
);
width = 361;
},
{
anchors = (
{
name = bottom;
position = "{180, 0}";
},
{
name = ogonek;
position = "{260, 0}";
},
{
name = top;
position = "{180, 648}";
}
);
layerId = "4c090d2b-0954-42f9-b8fa-9b61004e66c3";
paths = (
{
closed = 1;
nodes = (
"298 0 LINE",
"298 41 LINE",
"215 55 LINE",
"215 593 LINE",
"298 607 LINE",
"298 648 LINE",
"60 648 LINE",
"60 607 LINE",
"143 593 LINE",
"143 55 LINE",
"60 41 LINE",
"60 0 LINE"
);
}
);
width = 359;
},
{
anchors = (
{
name = bottom;
position = "{187, 0}";
},
{
name = ogonek;
position = "{317, 0}";
},
{
name = top;
position = "{187, 648}";
}
);
layerId = "5be9d440-7da3-4849-9ff3-c66a194b28b9";
paths = (
{
closed = 1;
nodes = (
"347 0 LINE",
"347 60 LINE",
"268 80 LINE",
"268 568 LINE",
"347 588 LINE",
"347 648 LINE",
"28 648 LINE",
"28 588 LINE",
"107 568 LINE",
"107 80 LINE",
"28 60 LINE",
"28 0 LINE"
);
}
);
width = 375;
},
{
anchors = (
{
name = bottom;
position = "{183, 0}";
},
{
name = ogonek;
position = "{277, 0}";
},
{
name = top;
position = "{183, 648}";
}
);
layerId = "634A4682-752C-4BE1-9291-605804ACC698";
paths = (
{
closed = 1;
nodes = (
"315 0 LINE",
"315 48 LINE",
"234 64 LINE",
"234 584 LINE",
"315 600 LINE",
"315 648 LINE",
"49 648 LINE",
"49 600 LINE",
"130 584 LINE",
"130 64 LINE",
"49 48 LINE",
"49 0 LINE"
);
}
);
width = 364;
}
);
leftKerningGroup = H;
leftMetricsKey = H;
rightKerningGroup = H;
rightMetricsKey = H;
unicode = 0049;
},
{
glyphname = J;
layers = (
{
anchors = (
{
name = bottom;
position = "{146, 0}";
},
{
name = top;
position = "{258, 648}";
}
);
layerId = "f777c4c2-d323-4068-8b89-2bd904ae3831";
paths = (
{
closed = 1;
nodes = (
"273 -18 OFFCURVE",
"329 33 OFFCURVE",
"329 150 CURVE SMOOTH",
"329 573 LINE",
"409 592 LINE",
"409 648 LINE",
"90 648 LINE",
"90 592 LINE",
"187 573 LINE",
"187 130 LINE SMOOTH",
"187 85 OFFCURVE",
"179 65 OFFCURVE",
"131 65 CURVE SMOOTH",
"115 65 OFFCURVE",
"97 69 OFFCURVE",
"91 72 CURVE",
"65 189 LINE",
"0 189 LINE",
"0 15 LINE",
"24 0 OFFCURVE",
"77 -18 OFFCURVE",
"146 -18 CURVE SMOOTH"
);
}
);
width = 434;
},
{
anchors = (
{
name = bottom;
position = "{142, 0}";
},
{
name = top;
position = "{244, 648}";
}
);
layerId = "fce2a917-1261-4b8f-a12a-6bbc6dc19885";
paths = (
{
closed = 1;
nodes = (
"234 -14 OFFCURVE",
"287 29 OFFCURVE",
"287 111 CURVE SMOOTH",
"287 589 LINE",
"360 604 LINE",
"360 648 LINE",
"105 648 LINE",
"105 604 LINE",
"200 587 LINE",
"200 99 LINE SMOOTH",
"200 66 OFFCURVE",
"185 37 OFFCURVE",
"134 37 CURVE SMOOTH",
"111 37 OFFCURVE",
"87 43 OFFCURVE",
"77 47 CURVE",
"48 162 LINE",
"0 162 LINE",
"0 13 LINE",
"22 1 OFFCURVE",
"71 -14 OFFCURVE",
"132 -14 CURVE SMOOTH"
);
}
);
width = 405;
},
{
anchors = (
{
name = bottom;
position = "{138, 0}";
},
{
name = top;
position = "{237, 648}";
}
);
background = {
paths = (
{
closed = 1;
nodes = (
"211 -13 OFFCURVE",
"273 12 OFFCURVE",
"273 109 CURVE SMOOTH",
"273 593 LINE",
"344 607 LINE",
"344 648 LINE",
"101 648 LINE",
"101 607 LINE",
"200 591 LINE",
"200 94 LINE SMOOTH",
"200 61 OFFCURVE",
"186 30 OFFCURVE",
"142 30 CURVE SMOOTH",
"120 30 OFFCURVE",
"98 36 OFFCURVE",
"88 41 CURVE",
"58 148 LINE",
"16 148 LINE",
"16 12 LINE",
"9 16 OFFCURVE",
"60 -13 OFFCURVE",
"135 -13 CURVE SMOOTH"
);
}
);
};
layerId = "4c090d2b-0954-42f9-b8fa-9b61004e66c3";
paths = (
{
closed = 1;
nodes = (
"228 -13 OFFCURVE",
"273 24 OFFCURVE",
"273 109 CURVE SMOOTH",
"273 593 LINE",
"344 607 LINE",
"344 648 LINE",
"101 648 LINE",
"101 607 LINE",
"200 591 LINE",
"200 94 LINE SMOOTH",
"200 61 OFFCURVE",
"184 30 OFFCURVE",
"132 30 CURVE SMOOTH",
"108 30 OFFCURVE",
"82 36 OFFCURVE",
"72 41 CURVE",
"42 155 LINE",
"0 155 LINE",
"0 12 LINE",
"30 -2 OFFCURVE",
"74 -13 OFFCURVE",
"125 -13 CURVE SMOOTH"
);
}
);
width = 399;
},
{
anchors = (
{
name = bottom;
position = "{152, 0}";
},
{
name = top;
position = "{267, 648}";
}
);
layerId = "5be9d440-7da3-4849-9ff3-c66a194b28b9";
paths = (
{
closed = 1;
nodes = (
"296 -19 OFFCURVE",
"348 27 OFFCURVE",
"348 153 CURVE SMOOTH",
"348 568 LINE",
"430 588 LINE",
"430 648 LINE",
"97 648 LINE",
"97 588 LINE",
"187 568 LINE",
"187 137 LINE SMOOTH",
"187 91 OFFCURVE",
"181 75 OFFCURVE",
"132 75 CURVE SMOOTH",
"116 75 OFFCURVE",
"100 78 OFFCURVE",
"96 81 CURVE",
"70 198 LINE",
"0 198 LINE",
"0 16 LINE",
"32 -4 OFFCURVE",
"85 -19 OFFCURVE",
"153 -19 CURVE SMOOTH"
);
}
);
width = 445;
},
{
anchors = (
{
name = bottom;
position = "{143, 0}";
},
{
name = top;
position = "{248, 648}";
}
);
layerId = "634A4682-752C-4BE1-9291-605804ACC698";
paths = (
{
closed = 1;
nodes = (
"246 -15 OFFCURVE",
"300 30 OFFCURVE",
"300 123 CURVE SMOOTH",
"300 584 LINE",
"375 600 LINE",
"375 648 LINE",
"101 648 LINE",
"101 600 LINE",
"196 583 LINE",
"196 108 LINE SMOOTH",
"196 72 OFFCURVE",
"183 45 OFFCURVE",
"133 45 CURVE SMOOTH",
"112 45 OFFCURVE",
"90 51 OFFCURVE",
"81 55 CURVE",
"53 170 LINE",
"0 170 LINE",
"0 14 LINE",
"23 1 OFFCURVE",
"73 -15 OFFCURVE",
"136 -15 CURVE SMOOTH"
);
}
);
width = 414;
}
);
leftKerningGroup = J;
rightKerningGroup = J;
unicode = 004A;
},
{
glyphname = K;
layers = (
{
anchors = (
{
name = bottom;
position = "{347, 0}";
},
{
name = top;
position = "{361, 648}";
}
);
layerId = "f777c4c2-d323-4068-8b89-2bd904ae3831";
paths = (
{
closed = 1;
nodes = (
"337 0 LINE",
"337 56 LINE",
"257 75 LINE",
"257 291 LINE",
"270 291 LINE",
"436 45 LINE SMOOTH",
"455 17 OFFCURVE",
"470 0 OFFCURVE",
"504 0 CURVE SMOOTH",
"654 0 LINE",
"654 56 LINE",
"573 76 LINE",
"380 356 LINE",
"556 573 LINE",
"625 592 LINE",
"625 648 LINE",
"392 648 LINE",
"392 592 LINE",
"440 580 LINE",
"440 563 LINE",
"272 356 LINE",
"257 356 LINE",
"257 573 LINE",
"337 592 LINE",
"337 648 LINE",
"35 648 LINE",
"35 592 LINE",
"115 573 LINE",
"115 75 LINE",
"35 56 LINE",
"35 0 LINE"
);
}
);
width = 634;
},
{
anchors = (
{
name = bottom;
position = "{333, 0}";
},
{
name = top;
position = "{342, 648}";
}
);
layerId = "fce2a917-1261-4b8f-a12a-6bbc6dc19885";
paths = (
{
closed = 1;
nodes = (
"307 0 LINE",
"307 44 LINE",
"224 59 LINE",
"224 312 LINE",
"257 312 LINE",
"450 29 LINE SMOOTH",
"467 4 OFFCURVE",
"479 0 OFFCURVE",
"511 0 CURVE SMOOTH",
"605 0 LINE",
"605 45 LINE",
"541 60 LINE",
"332 358 LINE",
"528 592 LINE",
"585 604 LINE",
"585 648 LINE",
"381 648 LINE",
"381 605 LINE",
"439 593 LINE",
"439 582 LINE",
"255 359 LINE",
"224 359 LINE",
"224 589 LINE",
"307 604 LINE",
"307 648 LINE",
"55 648 LINE",
"55 604 LINE",
"138 589 LINE",
"138 59 LINE",
"55 44 LINE",
"55 0 LINE"
);
}
);
width = 600;
},
{
anchors = (
{
name = bottom;
position = "{332, 0}";
},
{
name = top;
position = "{337, 648}";
}
);
layerId = "4c090d2b-0954-42f9-b8fa-9b61004e66c3";
paths = (
{
closed = 1;
nodes = (
"299 0 LINE",
"299 41 LINE",
"215 55 LINE",
"215 317 LINE",
"261 317 LINE",
"461 25 LINE SMOOTH",
"477 1 OFFCURVE",
"488 0 OFFCURVE",
"520 0 CURVE SMOOTH",
"599 0 LINE",
"599 42 LINE",
"525 57 LINE",
"318 353 LINE",
"520 597 LINE",
"578 607 LINE",
"578 648 LINE",
"379 648 LINE",
"379 608 LINE",
"438 596 LINE",
"438 587 LINE",
"256 360 LINE",
"215 360 LINE",
"215 593 LINE",
"299 607 LINE",
"299 648 LINE",
"60 648 LINE",
"60 607 LINE",
"144 593 LINE",
"144 55 LINE",
"60 41 LINE",
"60 0 LINE"
);
}
);
width = 591;
},
{
anchors = (
{
name = bottom;
position = "{352, 0}";
},
{
name = top;
position = "{367, 648}";
}
);
layerId = "5be9d440-7da3-4849-9ff3-c66a194b28b9";
paths = (
{
closed = 1;
nodes = (
"347 0 LINE",
"347 60 LINE",
"268 80 LINE",
"268 284 LINE",
"274 284 LINE",
"431 50 LINE SMOOTH",
"451 21 OFFCURVE",
"467 0 OFFCURVE",
"502 0 CURVE SMOOTH",
"671 0 LINE",
"671 60 LINE",
"589 81 LINE",
"396 362 LINE",
"563 567 LINE",
"636 588 LINE",
"636 648 LINE",
"396 648 LINE",
"396 588 LINE",
"440 576 LINE",
"440 557 LINE",
"278 355 LINE",
"268 355 LINE",
"268 568 LINE",
"347 588 LINE",
"347 648 LINE",
"28 648 LINE",
"28 588 LINE",
"107 568 LINE",
"107 80 LINE",
"28 60 LINE",
"28 0 LINE"
);
}
);
width = 646;
},
{
anchors = (
{
name = bottom;
position = "{337, 0}";
},
{
name = top;
position = "{348, 648}";
}
);
layerId = "634A4682-752C-4BE1-9291-605804ACC698";
paths = (
{
closed = 1;
nodes = (
"316 0 LINE",
"316 48 LINE",
"234 64 LINE",
"234 306 LINE",
"261 306 LINE",
"446 34 LINE SMOOTH",
"463 8 OFFCURVE",
"476 0 OFFCURVE",
"509 0 CURVE SMOOTH",
"620 0 LINE",
"620 48 LINE",
"551 65 LINE",
"346 357 LINE",
"536 586 LINE",
"597 600 LINE",
"597 648 LINE",
"384 648 LINE",
"384 601 LINE",
"439 589 LINE",
"439 576 LINE",
"260 358 LINE",
"234 358 LINE",
"234 584 LINE",
"316 600 LINE",
"316 648 LINE",
"49 648 LINE",
"49 600 LINE",
"131 584 LINE",
"131 64 LINE",
"49 48 LINE",
"49 0 LINE"
);
}
);
width = 610;
}
);
leftKerningGroup = H;
leftMetricsKey = H;
rightKerningGroup = K;
unicode = 004B;
},
{
glyphname = L;
layers = (
{
anchors = (
{
name = bottom;
position = "{313, 0}";
},
{
name = center;
position = "{186, 324}";
},
{
name = top;
position = "{186, 648}";
},
{
name = topright;
position = "{383, 494}";
}
);
layerId = "f777c4c2-d323-4068-8b89-2bd904ae3831";
paths = (
{
closed = 1;
nodes = (
"518 0 LINE",
"518 188 LINE",
"452 188 LINE",
"425 76 LINE",
"308 76 LINE",
"257 83 LINE",
"257 573 LINE",
"337 592 LINE",
"337 648 LINE",
"35 648 LINE",
"35 592 LINE",
"115 573 LINE",
"115 75 LINE",
"35 56 LINE",
"35 0 LINE"
);
}
);
width = 523;
},
{
anchors = (
{
name = bottom;
position = "{329, 0}";
},
{
name = center;
position = "{181, 324}";
},
{
name = top;
position = "{181, 648}";
},
{
name = topright;
position = "{399, 494}";
}
);
layerId = "fce2a917-1261-4b8f-a12a-6bbc6dc19885";
paths = (
{
closed = 1;
nodes = (
"506 0 LINE",
"506 162 LINE",
"457 162 LINE",
"435 55 LINE",
"322 55 LINE",
"224 63 LINE",
"224 586 LINE",
"315 601 LINE",
"315 648 LINE",
"55 648 LINE",
"55 605 LINE",
"138 588 LINE",
"138 60 LINE",
"55 43 LINE",
"55 0 LINE"
);
}
);
width = 523;
},
{
anchors = (
{
name = bottom;
position = "{323, 0}";
},
{
name = center;
position = "{180, 324}";
},
{
name = top;
position = "{180, 648}";
},
{
name = topright;
position = "{400, 494}";
}
);
layerId = "4c090d2b-0954-42f9-b8fa-9b61004e66c3";
paths = (
{
closed = 1;
nodes = (
"503 0 LINE",
"503 155 LINE",
"458 155 LINE",
"438 50 LINE",
"326 50 LINE",
"215 58 LINE",
"215 589 LINE",
"309 603 LINE",
"309 648 LINE",
"60 648 LINE",
"60 608 LINE",
"144 592 LINE",
"144 56 LINE",
"60 40 LINE",
"60 0 LINE"
);
}
);
width = 523;
},
{
anchors = (
{
name = bottom;
position = "{316, 0}";
},
{
name = center;
position = "{188, 324}";
},
{
name = top;
position = "{188, 648}";
},
{
name = topright;
position = "{380, 494}";
}
);
layerId = "5be9d440-7da3-4849-9ff3-c66a194b28b9";
paths = (
{
closed = 1;
nodes = (
"522 0 LINE",
"522 197 LINE",
"450 197 LINE",
"422 83 LINE",
"303 83 LINE",
"268 90 LINE",
"268 569 LINE",
"344 589 LINE",
"344 648 LINE",
"28 648 LINE",
"28 588 LINE",
"107 568 LINE",
"107 80 LINE",
"28 60 LINE",
"28 0 LINE"
);
}
);
width = 523;
},
{
anchors = (
{
name = bottom;
position = "{324, 0}";
},
{
name = center;
position = "{183, 324}";
},
{
name = top;
position = "{183, 648}";
},
{
name = topright;
position = "{394, 494}";
}
);
layerId = "634A4682-752C-4BE1-9291-605804ACC698";
paths = (
{
closed = 1;
nodes = (
"510 0 LINE",
"510 170 LINE",
"456 170 LINE",
"432 61 LINE",
"318 61 LINE",
"234 69 LINE",
"234 582 LINE",
"322 598 LINE",
"322 648 LINE",
"49 648 LINE",
"49 601 LINE",
"131 584 LINE",
"131 65 LINE",
"49 47 LINE",
"49 0 LINE"
);
}
);
width = 523;
}
);
leftKerningGroup = H;
leftMetricsKey = H;
rightKerningGroup = L;
unicode = 004C;
},
{
glyphname = LJ;
layers = (
{
components = (
{
name = J;
transform = "{1, 0, 0, 1, 523, 0}";
}
);
layerId = "f777c4c2-d323-4068-8b89-2bd904ae3831";
paths = (
{
closed = 1;
nodes = (
"498 0 LINE",
"498 188 LINE",
"432 188 LINE",
"405 76 LINE",
"308 76 LINE",
"257 83 LINE",
"257 573 LINE",
"347 592 LINE",
"347 648 LINE",
"35 648 LINE",
"35 592 LINE",
"115 573 LINE",
"115 75 LINE",
"35 56 LINE",
"35 0 LINE"
);
}
);
width = 957;
},
{
components = (
{
name = J;
transform = "{1, 0, 0, 1, 513, 0}";
}
);
layerId = "fce2a917-1261-4b8f-a12a-6bbc6dc19885";
paths = (
{
closed = 1;
nodes = (
"486 0 LINE",
"486 162 LINE",
"437 162 LINE",
"415 55 LINE",
"322 55 LINE",
"224 63 LINE",
"224 586 LINE",
"315 601 LINE",
"315 648 LINE",
"55 648 LINE",
"55 605 LINE",
"138 588 LINE",
"138 60 LINE",
"55 43 LINE",
"55 0 LINE"
);
}
);
width = 918;
},
{
components = (
{
name = J;
transform = "{1, 0, 0, 1, 513, 0}";
}
);
layerId = "4c090d2b-0954-42f9-b8fa-9b61004e66c3";
paths = (
{
closed = 1;
nodes = (
"483 0 LINE",
"483 155 LINE",
"438 155 LINE",
"418 50 LINE",
"326 50 LINE",
"215 58 LINE",
"215 589 LINE",
"309 603 LINE",
"309 648 LINE",
"60 648 LINE",
"60 608 LINE",
"144 592 LINE",
"144 56 LINE",
"60 40 LINE",
"60 0 LINE"
);
}
);
width = 912;
},
{
components = (
{
name = J;
transform = "{1, 0, 0, 1, 523, 0}";
}
);
layerId = "5be9d440-7da3-4849-9ff3-c66a194b28b9";
paths = (
{
closed = 1;
nodes = (
"502 0 LINE",
"502 197 LINE",
"430 197 LINE",
"402 83 LINE",
"303 83 LINE",
"268 90 LINE",
"268 569 LINE",
"354 589 LINE",
"354 648 LINE",
"28 648 LINE",
"28 588 LINE",
"107 568 LINE",
"107 80 LINE",
"28 60 LINE",
"28 0 LINE"
);
}
);
width = 968;
},
{
components = (
{
alignment = -1;
name = J;
transform = "{1, 0, 0, 1, 516, 0}";
}
);
layerId = "634A4682-752C-4BE1-9291-605804ACC698";
paths = (
{
closed = 1;
nodes = (
"490 0 LINE",
"490 170 LINE",
"436 170 LINE",
"412 61 LINE",
"318 61 LINE",
"234 69 LINE",
"234 582 LINE",
"325 598 LINE",
"325 648 LINE",
"49 648 LINE",
"49 601 LINE",
"131 584 LINE",
"131 65 LINE",
"49 47 LINE",
"49 0 LINE"
);
}
);
width = 930;
}
);
leftKerningGroup = H;
leftMetricsKey = H;
rightKerningGroup = J;
rightMetricsKey = J;
unicode = 01C7;
},
{
glyphname = Lcaron;
layers = (
{
background = {
paths = (
{
closed = 1;
nodes = (
"518 0 LINE",
"518 188 LINE",
"452 188 LINE",
"425 76 LINE",
"308 76 LINE",
"257 83 LINE",
"257 573 LINE",
"337 592 LINE",
"337 648 LINE",
"35 648 LINE",
"35 592 LINE",
"115 573 LINE",
"115 75 LINE",
"35 56 LINE",
"35 0 LINE"
);
},
{
closed = 1;
nodes = (
"445 482 LINE",
"445 482 OFFCURVE",
"512 548 OFFCURVE",
"512 615 CURVE SMOOTH",
"512 639 OFFCURVE",
"495 671 OFFCURVE",
"453 671 CURVE SMOOTH",
"435 671 OFFCURVE",
"415 665 OFFCURVE",
"401 649 CURVE",
"409 641 OFFCURVE",
"417 614 OFFCURVE",
"417 589 CURVE SMOOTH",
"417 561 OFFCURVE",
"411 513 OFFCURVE",
"401 482 CURVE"
);
}
);
};
components = (
{
name = L;
},
{
name = caroncomb.alt;
transform = "{1, 0, 0, 1, 383, 0}";
}
);
layerId = "f777c4c2-d323-4068-8b89-2bd904ae3831";
width = 523;
},
{
background = {
paths = (
{
closed = 1;
nodes = (
"510 0 LINE",
"510 162 LINE",
"461 162 LINE",
"439 55 LINE",
"326 55 LINE",
"228 63 LINE",
"228 586 LINE",
"319 601 LINE",
"319 648 LINE",
"59 648 LINE",
"59 605 LINE",
"142 588 LINE",
"142 60 LINE",
"59 43 LINE",
"59 0 LINE"
);
},
{
closed = 1;
nodes = (
"415 481 LINE",
"415 481 OFFCURVE",
"469 559 OFFCURVE",
"469 604 CURVE SMOOTH",
"469 633 OFFCURVE",
"454 658 OFFCURVE",
"419 658 CURVE SMOOTH",
"395 658 OFFCURVE",
"381 645 OFFCURVE",
"374 635 CURVE",
"388 618 OFFCURVE",
"399 600 OFFCURVE",
"399 576 CURVE SMOOTH",
"399 548 OFFCURVE",
"393 510 OFFCURVE",
"383 481 CURVE"
);
}
);
};
components = (
{
name = L;
},
{
name = caroncomb.alt;
transform = "{1, 0, 0, 1, 399, 0}";
}
);
layerId = "fce2a917-1261-4b8f-a12a-6bbc6dc19885";
width = 523;
},
{
background = {
paths = (
{
closed = 1;
nodes = (
"508 0 LINE",
"508 155 LINE",
"463 155 LINE",
"443 50 LINE",
"331 50 LINE",
"220 58 LINE",
"220 589 LINE",
"314 603 LINE",
"314 648 LINE",
"65 648 LINE",
"65 608 LINE",
"149 592 LINE",
"149 56 LINE",
"65 40 LINE",
"65 0 LINE"
);
},
{
closed = 1;
nodes = (
"407 481 LINE",
"407 481 OFFCURVE",
"458 562 OFFCURVE",
"458 601 CURVE SMOOTH",
"458 631 OFFCURVE",
"443 655 OFFCURVE",
"410 655 CURVE SMOOTH",
"385 655 OFFCURVE",
"372 640 OFFCURVE",
"367 631 CURVE",
"383 612 OFFCURVE",
"394 596 OFFCURVE",
"394 573 CURVE SMOOTH",
"394 545 OFFCURVE",
"388 509 OFFCURVE",
"378 481 CURVE"
);
}
);
};
components = (
{
name = L;
},
{
name = caroncomb.alt;
transform = "{1, 0, 0, 1, 400, 0}";
}
);
layerId = "4c090d2b-0954-42f9-b8fa-9b61004e66c3";
width = 523;
},
{
background = {
paths = (
{
closed = 1;
nodes = (
"521 0 LINE",
"521 197 LINE",
"449 197 LINE",
"420 83 LINE",
"302 83 LINE",
"267 90 LINE",
"267 569 LINE",
"343 589 LINE",
"343 648 LINE",
"27 648 LINE",
"27 588 LINE",
"106 568 LINE",
"106 80 LINE",
"27 60 LINE",
"27 0 LINE"
);
},
{
closed = 1;
nodes = (
"455 482 LINE",
"455 482 OFFCURVE",
"527 544 OFFCURVE",
"527 619 CURVE SMOOTH",
"527 641 OFFCURVE",
"509 675 OFFCURVE",
"465 675 CURVE SMOOTH",
"449 675 OFFCURVE",
"427 672 OFFCURVE",
"410 654 CURVE",
"416 649 OFFCURVE",
"423 619 OFFCURVE",
"423 593 CURVE SMOOTH",
"423 565 OFFCURVE",
"417 514 OFFCURVE",
"407 482 CURVE"
);
}
);
};
components = (
{
name = L;
},
{
name = caroncomb.alt;
transform = "{1, 0, 0, 1, 380, 0}";
}
);
layerId = "5be9d440-7da3-4849-9ff3-c66a194b28b9";
width = 523;
},
{
components = (
{
name = L;
},
{
name = caroncomb.alt;
transform = "{1, 0, 0, 1, 394, 0}";
}
);
layerId = "634A4682-752C-4BE1-9291-605804ACC698";
width = 523;
}
);
leftKerningGroup = H;
rightKerningGroup = L;
unicode = 013D;
},
{
glyphname = Lslash;
layers = (
{
components = (
{
name = L;
}
);
layerId = "f777c4c2-d323-4068-8b89-2bd904ae3831";
paths = (
{
closed = 1;
nodes = (
"371 344 LINE",
"371 409 LINE",
"45 287 LINE",
"45 222 LINE"
);
}
);
width = 523;
},
{
background = {
paths = (
{
closed = 1;
nodes = (
"521 0 LINE",
"521 162 LINE",
"472 162 LINE",
"450 55 LINE",
"337 55 LINE",
"239 63 LINE",
"239 301 LINE",
"374 349 LINE",
"374 412 LINE",
"239 362 LINE",
"239 586 LINE",
"330 601 LINE",
"330 648 LINE",
"70 648 LINE",
"70 605 LINE",
"153 588 LINE",
"153 331 LINE",
"84 306 LINE",
"84 247 LINE",
"153 271 LINE",
"153 60 LINE",
"70 43 LINE",
"70 0 LINE"
);
}
);
};
components = (
{
name = L;
}
);
layerId = "fce2a917-1261-4b8f-a12a-6bbc6dc19885";
paths = (
{
closed = 1;
nodes = (
"371 344 LINE",
"371 404 LINE",
"55 287 LINE",
"55 227 LINE"
);
}
);
width = 523;
},
{
background = {
paths = (
{
closed = 1;
nodes = (
"366 344 LINE",
"366 399 LINE",
"60 287 LINE",
"60 232 LINE"
);
}
);
};
components = (
{
name = L;
}
);
layerId = "4c090d2b-0954-42f9-b8fa-9b61004e66c3";
paths = (
{
closed = 1;
nodes = (
"366 344 LINE",
"366 399 LINE",
"60 287 LINE",
"60 232 LINE"
);
}
);
width = 523;
},
{
components = (
{
name = L;
}
);
layerId = "5be9d440-7da3-4849-9ff3-c66a194b28b9";
paths = (
{
closed = 1;
nodes = (
"374 351 LINE",
"374 426 LINE",
"28 297 LINE",
"28 222 LINE"
);
}
);
width = 523;
},
{
components = (
{
alignment = -1;
name = L;
}
);
layerId = "634A4682-752C-4BE1-9291-605804ACC698";
paths = (
{
closed = 1;
nodes = (
"371 344 LINE",
"371 405 LINE",
"52 287 LINE",
"52 225 LINE"
);
}
);
width = 523;
}
);
leftKerningGroup = H;
leftMetricsKey = H;
rightKerningGroup = L;
unicode = 0141;
},
{
glyphname = M;
layers = (
{
anchors = (
{
name = bottom;
position = "{439, 0}";
},
{
name = top;
position = "{439, 648}";
}
);
background = {
paths = (
{
closed = 1;
nodes = (
"291 0 LINE",
"291 56 LINE",
"211 75 LINE",
"211 432 LINE",
"209 456 LINE",
"215 456 LINE",
"358 0 LINE",
"479 0 LINE",
"619 456 LINE",
"624 456 LINE",
"622 432 LINE",
"622 75 LINE",
"542 56 LINE",
"542 0 LINE",
"843 0 LINE",
"843 56 LINE",
"763 75 LINE",
"763 574 LINE",
"831 586 LINE",
"831 648 LINE",
"589 648 LINE",
"442 179 LINE",
"440 148 LINE",
"436 148 LINE",
"434 179 LINE",
"290 648 LINE",
"46 648 LINE",
"46 587 LINE",
"112 574 LINE",
"112 75 LINE",
"32 56 LINE",
"32 0 LINE"
);
}
);
};
layerId = "f777c4c2-d323-4068-8b89-2bd904ae3831";
paths = (
{
closed = 1;
nodes = (
"291 0 LINE",
"291 56 LINE",
"211 75 LINE",
"211 432 LINE",
"209 456 LINE",
"215 456 LINE",
"358 0 LINE",
"479 0 LINE",
"619 456 LINE",
"624 456 LINE",
"622 432 LINE",
"622 75 LINE",
"542 56 LINE",
"542 0 LINE",
"843 0 LINE",
"843 56 LINE",
"763 75 LINE",
"763 574 LINE",
"831 586 LINE",
"831 648 LINE",
"589 648 LINE",
"445 189 LINE",
"440 148 LINE",
"436 148 LINE",
"431 189 LINE",
"290 648 LINE",
"46 648 LINE",
"46 587 LINE",
"112 574 LINE",
"112 75 LINE",
"32 56 LINE",
"32 0 LINE"
);
}
);
width = 878;
},
{
anchors = (
{
name = bottom;
position = "{443, 0}";
},
{
name = top;
position = "{443, 648}";
}
);
layerId = "fce2a917-1261-4b8f-a12a-6bbc6dc19885";
paths = (
{
closed = 1;
nodes = (
"262 0 LINE",
"262 42 LINE",
"189 58 LINE",
"189 551 LINE",
"189 581 LINE",
"201 581 LINE",
"397 0 LINE",
"445 0 LINE",
"641 581 LINE",
"656 581 LINE",
"656 551 LINE",
"656 59 LINE",
"574 44 LINE",
"574 0 LINE",
"826 0 LINE",
"826 44 LINE",
"743 59 LINE",
"743 589 LINE",
"826 604 LINE",
"826 648 LINE",
"604 648 LINE",
"453 190 LINE",
"440 134 LINE",
"437 134 LINE",
"423 190 LINE",
"269 648 LINE",
"64 648 LINE",
"64 604 LINE",
"128 592 LINE",
"128 58 LINE",
"55 42 LINE",
"55 0 LINE"
);
}
);
width = 885;
},
{
anchors = (
{
name = bottom;
position = "{444, 0}";
},
{
name = top;
position = "{444, 648}";
}
);
layerId = "4c090d2b-0954-42f9-b8fa-9b61004e66c3";
paths = (
{
closed = 1;
nodes = (
"254 0 LINE",
"254 38 LINE",
"184 54 LINE",
"184 560 LINE",
"184 590 LINE",
"200 590 LINE",
"407 0 LINE",
"446 0 LINE",
"650 590 LINE",
"665 590 LINE",
"665 560 LINE",
"665 55 LINE",
"582 41 LINE",
"582 0 LINE",
"822 0 LINE",
"822 41 LINE",
"738 55 LINE",
"738 593 LINE",
"825 609 LINE",
"825 648 LINE",
"610 648 LINE",
"458 193 LINE",
"438 126 LINE",
"435 126 LINE",
"416 193 LINE",
"259 648 LINE",
"69 648 LINE",
"69 608 LINE",
"129 597 LINE",
"129 54 LINE",
"61 38 LINE",
"61 0 LINE"
);
}
);
width = 887;
},
{
anchors = (
{
name = bottom;
position = "{438, 0}";
},
{
name = top;
position = "{438, 648}";
}
);
background = {
paths = (
{
closed = 1;
nodes = (
"301 0 LINE",
"301 61 LINE",
"214 81 LINE",
"214 389 LINE",
"211 413 LINE",
"217 413 LINE",
"343 0 LINE",
"492 0 LINE",
"607 413 LINE",
"614 413 LINE",
"610 388 LINE",
"610 80 LINE",
"531 60 LINE",
"531 0 LINE",
"849 0 LINE",
"849 60 LINE",
"770 80 LINE",
"770 569 LINE",
"833 580 LINE",
"833 648 LINE",
"573 648 LINE",
"442 179 LINE",
"439 149 LINE",
"437 149 LINE",
"435 179 LINE",
"303 648 LINE",
"40 648 LINE",
"40 581 LINE",
"107 568 LINE",
"107 81 LINE",
"24 61 LINE",
"24 0 LINE"
);
}
);
};
layerId = "5be9d440-7da3-4849-9ff3-c66a194b28b9";
paths = (
{
closed = 1;
nodes = (
"301 0 LINE",
"301 61 LINE",
"214 81 LINE",
"214 389 LINE",
"211 413 LINE",
"217 413 LINE",
"343 0 LINE",
"492 0 LINE",
"607 413 LINE",
"614 413 LINE",
"610 388 LINE",
"610 80 LINE",
"531 60 LINE",
"531 0 LINE",
"849 0 LINE",
"849 60 LINE",
"770 80 LINE",
"770 569 LINE",
"833 580 LINE",
"833 648 LINE",
"573 648 LINE",
"447 199 LINE",
"440 148 LINE",
"435 148 LINE",
"429 199 LINE",
"303 648 LINE",
"40 648 LINE",
"40 581 LINE",
"107 568 LINE",
"107 81 LINE",
"24 61 LINE",
"24 0 LINE"
);
}
);
width = 876;
},
{
anchors = (
{
name = bottom;
position = "{442, 0}";
},
{
name = top;
position = "{442, 648}";
}
);
layerId = "634A4682-752C-4BE1-9291-605804ACC698";
paths = (
{
closed = 1;
nodes = (
"271 0 LINE",
"271 46 LINE",
"196 63 LINE",
"196 515 LINE",
"195 544 LINE",
"205 544 LINE",
"385 0 LINE",
"455 0 LINE",
"634 544 LINE",
"646 544 LINE",
"646 515 LINE",
"646 64 LINE",
"564 48 LINE",
"564 0 LINE",
"831 0 LINE",
"831 48 LINE",
"749 64 LINE",
"749 585 LINE",
"827 599 LINE",
"827 648 LINE",
"600 648 LINE",
"451 190 LINE",
"440 138 LINE",
"437 138 LINE",
"425 190 LINE",
"275 648 LINE",
"59 648 LINE",
"59 599 LINE",
"123 587 LINE",
"123 63 LINE",
"48 46 LINE",
"48 0 LINE"
);
}
);
width = 883;
}
);
leftKerningGroup = M;
rightKerningGroup = M;
unicode = 004D;
},
{
glyphname = N;
layers = (
{
anchors = (
{
name = bottom;
position = "{365, 0}";
},
{
name = top;
position = "{365, 648}";
}
);
background = {
paths = (
{
closed = 1;
nodes = (
"294 0 LINE",
"294 56 LINE",
"214 75 LINE",
"214 460 LINE",
"218 460 LINE",
"229 435 LINE",
"506 0 LINE",
"629 0 LINE",
"629 573 LINE",
"709 591 LINE",
"709 648 LINE",
"450 648 LINE",
"450 591 LINE",
"530 573 LINE",
"530 219 LINE",
"526 219 LINE",
"516 244 LINE",
"259 648 LINE",
"49 648 LINE",
"49 587 LINE",
"115 574 LINE",
"115 75 LINE",
"35 56 LINE",
"35 0 LINE"
);
}
);
};
layerId = "f777c4c2-d323-4068-8b89-2bd904ae3831";
paths = (
{
closed = 1;
nodes = (
"294 0 LINE",
"294 56 LINE",
"214 75 LINE",
"214 460 LINE",
"218 460 LINE",
"239 420 LINE",
"506 0 LINE",
"629 0 LINE",
"629 573 LINE",
"709 591 LINE",
"709 648 LINE",
"450 648 LINE",
"450 591 LINE",
"530 573 LINE",
"530 219 LINE",
"526 219 LINE",
"506 259 LINE",
"259 648 LINE",
"49 648 LINE",
"49 587 LINE",
"115 574 LINE",
"115 75 LINE",
"35 56 LINE",
"35 0 LINE"
);
}
);
width = 729;
},
{
anchors = (
{
name = bottom;
position = "{364, 0}";
},
{
name = top;
position = "{364, 648}";
}
);
layerId = "fce2a917-1261-4b8f-a12a-6bbc6dc19885";
paths = (
{
closed = 1;
nodes = (
"255 0 LINE",
"255 42 LINE",
"185 58 LINE",
"185 527 LINE",
"191 527 LINE",
"203 503 LINE",
"519 0 LINE",
"611 0 LINE",
"611 590 LINE",
"680 606 LINE",
"680 648 LINE",
"481 648 LINE",
"481 606 LINE",
"550 590 LINE",
"550 116 LINE",
"544 116 LINE",
"531 141 LINE",
"213 648 LINE",
"60 648 LINE",
"60 604 LINE",
"125 590 LINE",
"125 58 LINE",
"55 42 LINE",
"55 0 LINE"
);
}
);
width = 727;
},
{
anchors = (
{
name = bottom;
position = "{365, 0}";
},
{
name = top;
position = "{365, 648}";
}
);
layerId = "4c090d2b-0954-42f9-b8fa-9b61004e66c3";
paths = (
{
closed = 1;
nodes = (
"246 0 LINE",
"246 38 LINE",
"180 54 LINE",
"180 541 LINE",
"183 541 LINE",
"195 517 LINE",
"536 0 LINE",
"609 0 LINE",
"609 594 LINE",
"673 610 LINE",
"673 648 LINE",
"490 648 LINE",
"490 610 LINE",
"554 594 LINE",
"554 99 LINE",
"551 99 LINE",
"537 125 LINE",
"192 648 LINE",
"63 648 LINE",
"63 608 LINE",
"125 594 LINE",
"125 54 LINE",
"60 38 LINE",
"60 0 LINE"
);
}
);
width = 727;
},
{
anchors = (
{
name = bottom;
position = "{365, 0}";
},
{
name = top;
position = "{365, 648}";
}
);
layerId = "5be9d440-7da3-4849-9ff3-c66a194b28b9";
paths = (
{
closed = 1;
nodes = (
"307 0 LINE",
"307 61 LINE",
"220 81 LINE",
"220 456 LINE",
"226 456 LINE",
"247 411 LINE",
"498 0 LINE",
"635 0 LINE",
"635 567 LINE",
"719 586 LINE",
"719 648 LINE",
"439 648 LINE",
"439 586 LINE",
"527 567 LINE",
"527 237 LINE",
"521 237 LINE",
"499 288 LINE",
"280 648 LINE",
"45 648 LINE",
"45 581 LINE",
"112 569 LINE",
"112 81 LINE",
"28 61 LINE",
"28 0 LINE"
);
}
);
width = 730;
},
{
anchors = (
{
name = bottom;
position = "{364, 0}";
},
{
name = top;
position = "{364, 648}";
}
);
layerId = "634A4682-752C-4BE1-9291-605804ACC698";
paths = (
{
closed = 1;
nodes = (
"267 0 LINE",
"267 46 LINE",
"194 63 LINE",
"194 507 LINE",
"199 507 LINE",
"214 478 LINE",
"515 0 LINE",
"616 0 LINE",
"616 585 LINE",
"689 602 LINE",
"689 648 LINE",
"472 648 LINE",
"472 602 LINE",
"544 585 LINE",
"544 147 LINE",
"539 147 LINE",
"524 176 LINE",
"227 648 LINE",
"57 648 LINE",
"57 599 LINE",
"122 585 LINE",
"122 63 LINE",
"49 46 LINE",
"49 0 LINE"
);
}
);
width = 728;
}
);
leftKerningGroup = H;
leftMetricsKey = H;
rightKerningGroup = N;
unicode = 004E;
},
{
glyphname = Eng;
layers = (
{
components = (
{
alignment = -1;
name = N;
}
);
layerId = "f777c4c2-d323-4068-8b89-2bd904ae3831";
paths = (
{
closed = 1;
nodes = (
"590 -169 OFFCURVE",
"629 -132 OFFCURVE",
"629 -79 CURVE SMOOTH",
"629 162 LINE",
"497 162 LINE",
"497 -77 LINE",
"395 -100 LINE",
"395 -151 LINE",
"416 -159 OFFCURVE",
"460 -169 OFFCURVE",
"507 -169 CURVE SMOOTH"
);
}
);
width = 729;
},
{
components = (
{
alignment = -1;
name = N;
}
);
layerId = "fce2a917-1261-4b8f-a12a-6bbc6dc19885";
paths = (
{
closed = 1;
nodes = (
"574 -165 OFFCURVE",
"611 -135 OFFCURVE",
"611 -83 CURVE SMOOTH",
"611 88 LINE",
"518 88 LINE",
"518 -94 LINE",
"421 -117 LINE",
"421 -155 LINE",
"436 -159 OFFCURVE",
"469 -165 OFFCURVE",
"504 -165 CURVE SMOOTH"
);
}
);
width = 727;
},
{
components = (
{
alignment = -1;
name = N;
}
);
layerId = "4c090d2b-0954-42f9-b8fa-9b61004e66c3";
paths = (
{
closed = 1;
nodes = (
"572 -164 OFFCURVE",
"608 -136 OFFCURVE",
"608 -84 CURVE SMOOTH",
"608 61 LINE",
"527 61 LINE",
"527 -98 LINE",
"430 -121 LINE",
"430 -156 LINE",
"443 -159 OFFCURVE",
"473 -164 OFFCURVE",
"505 -164 CURVE SMOOTH"
);
}
);
width = 726;
},
{
components = (
{
alignment = -1;
name = N;
}
);
layerId = "5be9d440-7da3-4849-9ff3-c66a194b28b9";
paths = (
{
closed = 1;
nodes = (
"595 -170 OFFCURVE",
"635 -131 OFFCURVE",
"635 -78 CURVE SMOOTH",
"635 127 LINE",
"494 127 LINE",
"494 -71 LINE",
"386 -94 LINE",
"386 -150 LINE",
"391 -152 OFFCURVE",
"439 -170 OFFCURVE",
"508 -170 CURVE SMOOTH"
);
}
);
width = 730;
},
{
components = (
{
alignment = -1;
name = N;
}
);
layerId = "634A4682-752C-4BE1-9291-605804ACC698";
paths = (
{
closed = 1;
nodes = (
"579 -166 OFFCURVE",
"616 -134 OFFCURVE",
"616 -82 CURVE SMOOTH",
"616 110 LINE",
"512 110 LINE",
"512 -89 LINE",
"413 -112 LINE",
"413 -154 LINE",
"430 -159 OFFCURVE",
"466 -166 OFFCURVE",
"505 -166 CURVE SMOOTH"
);
}
);
width = 728;
}
);
leftKerningGroup = H;
leftMetricsKey = H;
rightKerningGroup = N;
unicode = 014A;
},
{
glyphname = Nhookleft;
layers = (
{
anchors = (
{
name = bottom;
position = "{365, 0}";
},
{
name = top;
position = "{365, 648}";
}
);
layerId = "f777c4c2-d323-4068-8b89-2bd904ae3831";
paths = (
{
closed = 1;
nodes = (
"182 -169 OFFCURVE",
"214 -132 OFFCURVE",
"214 -79 CURVE SMOOTH",
"214 447 LINE",
"218 447 LINE",
"222 432 LINE",
"506 0 LINE",
"629 0 LINE",
"629 573 LINE",
"709 591 LINE",
"709 648 LINE",
"450 648 LINE",
"450 591 LINE",
"530 573 LINE",
"530 218 LINE",
"526 218 LINE",
"522 233 LINE",
"259 648 LINE",
"49 648 LINE",
"49 587 LINE",
"115 574 LINE",
"115 -77 LINE",
"13 -100 LINE",
"13 -151 LINE",
"32 -159 OFFCURVE",
"73 -169 OFFCURVE",
"115 -169 CURVE"
);
}
);
width = 729;
},
{
anchors = (
{
name = bottom;
position = "{364, 0}";
},
{
name = top;
position = "{364, 648}";
}
);
layerId = "fce2a917-1261-4b8f-a12a-6bbc6dc19885";
paths = (
{
closed = 1;
nodes = (
"152 -165 OFFCURVE",
"185 -135 OFFCURVE",
"185 -83 CURVE SMOOTH",
"185 516 LINE",
"194 516 LINE",
"203 501 LINE",
"519 0 LINE",
"611 0 LINE",
"611 590 LINE",
"680 606 LINE",
"680 648 LINE",
"481 648 LINE",
"481 606 LINE",
"550 590 LINE",
"550 129 LINE",
"541 129 LINE",
"526 152 LINE",
"213 648 LINE",
"60 648 LINE",
"60 604 LINE",
"125 590 LINE",
"125 -91 LINE",
"17 -117 LINE",
"17 -155 LINE",
"30 -159 OFFCURVE",
"58 -165 OFFCURVE",
"89 -165 CURVE"
);
}
);
width = 727;
},
{
anchors = (
{
name = bottom;
position = "{364, 0}";
},
{
name = top;
position = "{364, 648}";
}
);
layerId = "4c090d2b-0954-42f9-b8fa-9b61004e66c3";
paths = (
{
closed = 1;
nodes = (
"144 -164 OFFCURVE",
"177 -136 OFFCURVE",
"177 -84 CURVE SMOOTH",
"177 534 LINE",
"188 534 LINE",
"198 519 LINE",
"522 0 LINE",
"606 0 LINE",
"606 594 LINE",
"672 610 LINE",
"672 648 LINE",
"489 648 LINE",
"489 610 LINE",
"555 594 LINE",
"555 106 LINE",
"545 106 LINE",
"527 131 LINE",
"201 648 LINE",
"63 648 LINE",
"63 608 LINE",
"128 594 LINE",
"128 -95 LINE",
"18 -121 LINE",
"18 -156 LINE",
"29 -159 OFFCURVE",
"54 -164 OFFCURVE",
"82 -164 CURVE"
);
}
);
width = 726;
},
{
anchors = (
{
name = bottom;
position = "{365, 0}";
},
{
name = top;
position = "{365, 648}";
}
);
layerId = "5be9d440-7da3-4849-9ff3-c66a194b28b9";
paths = (
{
closed = 1;
nodes = (
"192 -170 OFFCURVE",
"224 -131 OFFCURVE",
"224 -78 CURVE SMOOTH",
"224 424 LINE",
"226 424 LINE",
"228 409 LINE",
"502 0 LINE",
"635 0 LINE",
"635 567 LINE",
"719 586 LINE",
"719 648 LINE",
"439 648 LINE",
"439 586 LINE",
"523 567 LINE",
"523 248 LINE",
"521 248 LINE",
"521 261 LINE",
"275 648 LINE",
"45 648 LINE",
"45 581 LINE",
"112 569 LINE",
"112 -72 LINE",
"12 -94 LINE",
"12 -150 LINE",
"33 -159 OFFCURVE",
"77 -170 OFFCURVE",
"124 -170 CURVE"
);
}
);
width = 730;
},
{
anchors = (
{
name = bottom;
position = "{364, 0}";
},
{
name = top;
position = "{364, 648}";
}
);
layerId = "634A4682-752C-4BE1-9291-605804ACC698";
paths = (
{
closed = 1;
nodes = (
"161 -166 OFFCURVE",
"194 -134 OFFCURVE",
"194 -82 CURVE SMOOTH",
"194 495 LINE",
"201 495 LINE",
"209 480 LINE",
"515 0 LINE",
"616 0 LINE",
"616 585 LINE",
"689 602 LINE",
"689 648 LINE",
"472 648 LINE",
"472 602 LINE",
"544 585 LINE",
"544 156 LINE",
"537 156 LINE",
"525 176 LINE",
"227 648 LINE",
"57 648 LINE",
"57 599 LINE",
"122 585 LINE",
"122 -87 LINE",
"16 -112 LINE",
"16 -154 LINE",
"31 -159 OFFCURVE",
"62 -166 OFFCURVE",
"97 -166 CURVE"
);
}
);
width = 728;
}
);
leftKerningGroup = H;
rightKerningGroup = N;
rightMetricsKey = N;
unicode = 019D;
},
{
glyphname = O;
layers = (
{
anchors = (
{
name = bottom;
position = "{354, 0}";
},
{
name = center;
position = "{354, 324}";
},
{
name = ogonek;
position = "{476, 0}";
},
{
name = top;
position = "{354, 648}";
},
{
name = topright;
position = "{487, 648}";
}
);
layerId = "f777c4c2-d323-4068-8b89-2bd904ae3831";
paths = (
{
closed = 1;
nodes = (
"550 -18 OFFCURVE",
"672 128 OFFCURVE",
"672 335 CURVE SMOOTH",
"672 553 OFFCURVE",
"562 666 OFFCURVE",
"366 666 CURVE SMOOTH",
"160 666 OFFCURVE",
"35 520 OFFCURVE",
"35 313 CURVE SMOOTH",
"35 95 OFFCURVE",
"145 -18 OFFCURVE",
"341 -18 CURVE"
);
},
{
closed = 1;
nodes = (
"249 65 OFFCURVE",
"198 138 OFFCURVE",
"198 340 CURVE SMOOTH",
"198 525 OFFCURVE",
"246 582 OFFCURVE",
"348 582 CURVE SMOOTH",
"459 582 OFFCURVE",
"509 510 OFFCURVE",
"509 309 CURVE SMOOTH",
"509 123 OFFCURVE",
"463 65 OFFCURVE",
"360 65 CURVE"
);
}
);
width = 707;
},
{
anchors = (
{
name = bottom;
position = "{348, 0}";
},
{
name = center;
position = "{348, 324}";
},
{
name = ogonek;
position = "{464, 0}";
},
{
name = top;
position = "{348, 648}";
},
{
name = topright;
position = "{455, 648}";
}
);
layerId = "fce2a917-1261-4b8f-a12a-6bbc6dc19885";
paths = (
{
closed = 1;
nodes = (
"560 -13 OFFCURVE",
"651 143 OFFCURVE",
"651 338 CURVE SMOOTH",
"651 531 OFFCURVE",
"546 660 OFFCURVE",
"366 660 CURVE SMOOTH",
"160 660 OFFCURVE",
"45 504 OFFCURVE",
"45 313 CURVE SMOOTH",
"45 112 OFFCURVE",
"148 -13 OFFCURVE",
"344 -13 CURVE SMOOTH"
);
},
{
closed = 1;
nodes = (
"222 44 OFFCURVE",
"146 118 OFFCURVE",
"146 319 CURVE SMOOTH",
"146 577 OFFCURVE",
"240 600 OFFCURVE",
"352 600 CURVE SMOOTH",
"467 600 OFFCURVE",
"550 553 OFFCURVE",
"550 319 CURVE SMOOTH",
"550 147 OFFCURVE",
"498 44 OFFCURVE",
"364 44 CURVE SMOOTH"
);
}
);
width = 696;
},
{
anchors = (
{
name = bottom;
position = "{346, 0}";
},
{
name = center;
position = "{346, 324}";
},
{
name = ogonek;
position = "{462, 0}";
},
{
name = top;
position = "{346, 648}";
},
{
name = topright;
position = "{446, 648}";
}
);
layerId = "4c090d2b-0954-42f9-b8fa-9b61004e66c3";
paths = (
{
closed = 1;
nodes = (
"564 -12 OFFCURVE",
"647 152 OFFCURVE",
"647 339 CURVE SMOOTH",
"647 534 OFFCURVE",
"543 658 OFFCURVE",
"367 658 CURVE SMOOTH",
"155 658 OFFCURVE",
"49 502 OFFCURVE",
"49 313 CURVE SMOOTH",
"49 113 OFFCURVE",
"150 -12 OFFCURVE",
"346 -12 CURVE SMOOTH"
);
},
{
closed = 1;
nodes = (
"216 39 OFFCURVE",
"133 113 OFFCURVE",
"133 314 CURVE SMOOTH",
"133 592 OFFCURVE",
"246 605 OFFCURVE",
"354 605 CURVE SMOOTH",
"470 605 OFFCURVE",
"562 564 OFFCURVE",
"562 322 CURVE SMOOTH",
"562 144 OFFCURVE",
"508 39 OFFCURVE",
"366 39 CURVE SMOOTH"
);
}
);
width = 693;
},
{
anchors = (
{
name = bottom;
position = "{356, 0}";
},
{
name = center;
position = "{356, 324}";
},
{
name = ogonek;
position = "{482, 0}";
},
{
name = top;
position = "{356, 648}";
},
{
name = topright;
position = "{498, 648}";
}
);
layerId = "5be9d440-7da3-4849-9ff3-c66a194b28b9";
paths = (
{
closed = 1;
nodes = (
"551 -20 OFFCURVE",
"679 119 OFFCURVE",
"679 334 CURVE SMOOTH",
"679 560 OFFCURVE",
"567 668 OFFCURVE",
"366 668 CURVE SMOOTH",
"160 668 OFFCURVE",
"32 525 OFFCURVE",
"32 313 CURVE SMOOTH",
"32 89 OFFCURVE",
"144 -20 OFFCURVE",
"340 -20 CURVE SMOOTH"
);
},
{
closed = 1;
nodes = (
"259 72 OFFCURVE",
"216 146 OFFCURVE",
"216 347 CURVE SMOOTH",
"216 502 OFFCURVE",
"250 576 OFFCURVE",
"347 576 CURVE SMOOTH",
"457 576 OFFCURVE",
"495 498 OFFCURVE",
"495 306 CURVE SMOOTH",
"495 118 OFFCURVE",
"448 72 OFFCURVE",
"360 72 CURVE SMOOTH"
);
}
);
width = 711;
},
{
anchors = (
{
name = bottom;
position = "{350, 0}";
},
{
name = center;
position = "{350, 324}";
},
{
name = ogonek;
position = "{468, 0}";
},
{
name = top;
position = "{350, 648}";
},
{
name = topright;
position = "{465, 648}";
}
);
layerId = "634A4682-752C-4BE1-9291-605804ACC698";
paths = (
{
closed = 1;
nodes = (
"557 -15 OFFCURVE",
"657 139 OFFCURVE",
"657 337 CURVE SMOOTH",
"657 538 OFFCURVE",
"551 662 OFFCURVE",
"366 662 CURVE SMOOTH",
"160 662 OFFCURVE",
"42 509 OFFCURVE",
"42 313 CURVE SMOOTH",
"42 107 OFFCURVE",
"147 -15 OFFCURVE",
"343 -15 CURVE SMOOTH"
);
},
{
closed = 1;
nodes = (
"230 50 OFFCURVE",
"162 124 OFFCURVE",
"162 325 CURVE SMOOTH",
"162 561 OFFCURVE",
"242 595 OFFCURVE",
"351 595 CURVE SMOOTH",
"465 595 OFFCURVE",
"538 540 OFFCURVE",
"538 316 CURVE SMOOTH",
"538 140 OFFCURVE",
"488 50 OFFCURVE",
"363 50 CURVE SMOOTH"
);
}
);
width = 699;
}
);
leftKerningGroup = O;
rightKerningGroup = O;
unicode = 004F;
},
{
glyphname = Oslash;
layers = (
{
anchors = (
{
name = top;
position = "{319, 648}";
}
);
layerId = "f777c4c2-d323-4068-8b89-2bd904ae3831";
paths = (
{
closed = 1;
nodes = (
"244 -7 LINE",
"274 -14 OFFCURVE",
"306 -18 OFFCURVE",
"341 -18 CURVE SMOOTH",
"550 -18 OFFCURVE",
"672 128 OFFCURVE",
"672 335 CURVE SMOOTH",
"672 487 OFFCURVE",
"618 588 OFFCURVE",
"520 635 CURVE",
"543 689 LINE",
"473 720 LINE",
"446 659 LINE",
"421 664 OFFCURVE",
"394 666 OFFCURVE",
"366 666 CURVE SMOOTH",
"160 666 OFFCURVE",
"35 520 OFFCURVE",
"35 313 CURVE SMOOTH",
"35 169 OFFCURVE",
"83 71 OFFCURVE",
"171 21 CURVE",
"143 -45 LINE",
"215 -76 LINE"
);
},
{
closed = 1;
nodes = (
"207 192 OFFCURVE",
"198 254 OFFCURVE",
"198 340 CURVE SMOOTH",
"198 525 OFFCURVE",
"246 582 OFFCURVE",
"348 582 CURVE SMOOTH",
"371 582 OFFCURVE",
"391 578 OFFCURVE",
"409 572 CURVE",
"226 148 LINE"
);
},
{
closed = 1;
nodes = (
"330 65 OFFCURVE",
"304 70 OFFCURVE",
"282 82 CURVE",
"470 519 LINE",
"496 476 OFFCURVE",
"508 408 OFFCURVE",
"508 309 CURVE SMOOTH",
"508 123 OFFCURVE",
"462 65 OFFCURVE",
"360 65 CURVE SMOOTH"
);
}
);
width = 707;
},
{
anchors = (
{
name = top;
position = "{333, 648}";
}
);
layerId = "fce2a917-1261-4b8f-a12a-6bbc6dc19885";
paths = (
{
closed = 1;
nodes = (
"241 0 LINE",
"272 -8 OFFCURVE",
"306 -13 OFFCURVE",
"344 -13 CURVE SMOOTH",
"560 -13 OFFCURVE",
"651 143 OFFCURVE",
"651 338 CURVE SMOOTH",
"651 472 OFFCURVE",
"600 575 OFFCURVE",
"509 626 CURVE",
"538 693 LINE",
"478 720 LINE",
"447 650 LINE",
"422 656 OFFCURVE",
"395 660 OFFCURVE",
"366 660 CURVE SMOOTH",
"160 660 OFFCURVE",
"45 504 OFFCURVE",
"45 313 CURVE SMOOTH",
"45 179 OFFCURVE",
"90 79 OFFCURVE",
"179 27 CURVE",
"148 -45 LINE",
"210 -72 LINE"
);
},
{
closed = 1;
nodes = (
"168 141 OFFCURVE",
"146 212 OFFCURVE",
"146 319 CURVE SMOOTH",
"146 577 OFFCURVE",
"240 600 OFFCURVE",
"352 600 CURVE SMOOTH",
"377 600 OFFCURVE",
"401 598 OFFCURVE",
"422 592 CURVE",
"209 98 LINE"
);
},
{
closed = 1;
nodes = (
"327 44 OFFCURVE",
"294 49 OFFCURVE",
"266 60 CURVE",
"481 560 LINE",
"524 522 OFFCURVE",
"550 450 OFFCURVE",
"550 319 CURVE SMOOTH",
"550 147 OFFCURVE",
"498 44 OFFCURVE",
"364 44 CURVE SMOOTH"
);
}
);
width = 696;
},
{
anchors = (
{
name = top;
position = "{335, 648}";
}
);
layerId = "4c090d2b-0954-42f9-b8fa-9b61004e66c3";
paths = (
{
closed = 1;
nodes = (
"241 2 LINE",
"272 -6 OFFCURVE",
"307 -12 OFFCURVE",
"346 -12 CURVE SMOOTH",
"564 -12 OFFCURVE",
"647 147 OFFCURVE",
"647 339 CURVE SMOOTH",
"647 468 OFFCURVE",
"596 572 OFFCURVE",
"507 624 CURVE",
"538 694 LINE",
"480 720 LINE",
"448 648 LINE",
"423 654 OFFCURVE",
"396 658 OFFCURVE",
"367 658 CURVE SMOOTH",
"161 658 OFFCURVE",
"49 500 OFFCURVE",
"49 313 CURVE SMOOTH",
"49 182 OFFCURVE",
"93 81 OFFCURVE",
"182 29 CURVE",
"150 -45 LINE",
"210 -71 LINE"
);
},
{
closed = 1;
nodes = (
"159 128 OFFCURVE",
"133 201 OFFCURVE",
"133 314 CURVE SMOOTH",
"133 591 OFFCURVE",
"239 605 OFFCURVE",
"354 605 CURVE SMOOTH",
"380 605 OFFCURVE",
"405 603 OFFCURVE",
"426 597 CURVE",
"206 85 LINE"
);
},
{
closed = 1;
nodes = (
"327 39 OFFCURVE",
"292 44 OFFCURVE",
"263 54 CURVE",
"485 571 LINE",
"532 534 OFFCURVE",
"562 461 OFFCURVE",
"562 322 CURVE SMOOTH",
"562 153 OFFCURVE",
"508 39 OFFCURVE",
"366 39 CURVE SMOOTH"
);
}
);
width = 693;
},
{
anchors = (
{
name = top;
position = "{311, 648}";
}
);
layerId = "5be9d440-7da3-4849-9ff3-c66a194b28b9";
paths = (
{
closed = 1;
nodes = (
"245 -9 LINE",
"275 -16 OFFCURVE",
"306 -20 OFFCURVE",
"340 -20 CURVE SMOOTH",
"547 -20 OFFCURVE",
"679 123 OFFCURVE",
"679 334 CURVE SMOOTH",
"679 492 OFFCURVE",
"624 592 OFFCURVE",
"524 638 CURVE",
"545 688 LINE",
"471 720 LINE",
"446 662 LINE",
"421 667 OFFCURVE",
"394 668 OFFCURVE",
"366 668 CURVE SMOOTH",
"160 668 OFFCURVE",
"32 525 OFFCURVE",
"32 313 CURVE SMOOTH",
"32 166 OFFCURVE",
"81 68 OFFCURVE",
"168 19 CURVE",
"141 -45 LINE",
"217 -77 LINE"
);
},
{
closed = 1;
nodes = (
"220 209 OFFCURVE",
"216 268 OFFCURVE",
"216 347 CURVE SMOOTH",
"216 507 OFFCURVE",
"248 576 OFFCURVE",
"347 576 CURVE SMOOTH",
"369 576 OFFCURVE",
"388 571 OFFCURVE",
"405 565 CURVE",
"232 165 LINE"
);
},
{
closed = 1;
nodes = (
"331 72 OFFCURVE",
"307 77 OFFCURVE",
"287 89 CURVE",
"466 505 LINE",
"486 460 OFFCURVE",
"494 394 OFFCURVE",
"494 306 CURVE SMOOTH",
"494 115 OFFCURVE",
"450 72 OFFCURVE",
"359 72 CURVE SMOOTH"
);
}
);
width = 711;
},
{
anchors = (
{
name = top;
position = "{329, 648}";
}
);
layerId = "634A4682-752C-4BE1-9291-605804ACC698";
paths = (
{
closed = 1;
nodes = (
"242 -2 LINE",
"273 -10 OFFCURVE",
"306 -15 OFFCURVE",
"343 -15 CURVE SMOOTH",
"557 -15 OFFCURVE",
"657 139 OFFCURVE",
"657 337 CURVE SMOOTH",
"657 477 OFFCURVE",
"605 579 OFFCURVE",
"512 629 CURVE",
"540 692 LINE",
"477 720 LINE",
"447 653 LINE",
"422 658 OFFCURVE",
"395 662 OFFCURVE",
"366 662 CURVE SMOOTH",
"160 662 OFFCURVE",
"42 509 OFFCURVE",
"42 313 CURVE SMOOTH",
"42 176 OFFCURVE",
"88 77 OFFCURVE",
"177 25 CURVE",
"147 -45 LINE",
"212 -73 LINE"
);
},
{
closed = 1;
nodes = (
"180 156 OFFCURVE",
"162 225 OFFCURVE",
"162 325 CURVE SMOOTH",
"162 561 OFFCURVE",
"242 595 OFFCURVE",
"351 595 CURVE SMOOTH",
"375 595 OFFCURVE",
"398 592 OFFCURVE",
"418 586 CURVE",
"214 113 LINE"
);
},
{
closed = 1;
nodes = (
"328 50 OFFCURVE",
"297 55 OFFCURVE",
"271 67 CURVE",
"478 548 LINE",
"516 508 OFFCURVE",
"537 437 OFFCURVE",
"537 316 CURVE SMOOTH",
"537 140 OFFCURVE",
"487 50 OFFCURVE",
"363 50 CURVE SMOOTH"
);
}
);
width = 699;
}
);
leftKerningGroup = O;
leftMetricsKey = O;
rightKerningGroup = O;
rightMetricsKey = O;
unicode = 00D8;
},
{
glyphname = OE;
layers = (
{
anchors = (
{
name = top;
position = "{525, 648}";
}
);
layerId = "f777c4c2-d323-4068-8b89-2bd904ae3831";
paths = (
{
closed = 1;
nodes = (
"880 0 LINE",
"880 197 LINE",
"816 197 LINE",
"788 76 LINE",
"661 76 LINE SMOOTH",
"639 76 OFFCURVE",
"618 76 OFFCURVE",
"596 76 CURVE",
"596 290 LINE",
"698 290 LINE",
"720 214 LINE",
"773 214 LINE",
"773 435 LINE",
"720 435 LINE",
"698 366 LINE",
"596 366 LINE",
"596 565 LINE",
"640 572 LINE",
"778 572 LINE",
"805 460 LINE",
"871 460 LINE",
"871 648 LINE",
"365 648 LINE SMOOTH",
"159 648 OFFCURVE",
"35 520 OFFCURVE",
"35 313 CURVE SMOOTH",
"35 95 OFFCURVE",
"149 0 OFFCURVE",
"345 0 CURVE SMOOTH"
);
},
{
closed = 1;
nodes = (
"247 79 OFFCURVE",
"198 138 OFFCURVE",
"198 340 CURVE SMOOTH",
"198 525 OFFCURVE",
"268 567 OFFCURVE",
"355 567 CURVE SMOOTH",
"407 567 OFFCURVE",
"440 562 OFFCURVE",
"454 559 CURVE",
"454 87 LINE",
"427 82 OFFCURVE",
"393 79 OFFCURVE",
"358 79 CURVE"
);
}
);
width = 920;
},
{
anchors = (
{
name = top;
position = "{500, 648}";
}
);
layerId = "fce2a917-1261-4b8f-a12a-6bbc6dc19885";
paths = (
{
closed = 1;
nodes = (
"841 0 LINE",
"841 164 LINE",
"792 164 LINE",
"770 57 LINE",
"650 57 LINE SMOOTH",
"613 57 OFFCURVE",
"568 61 OFFCURVE",
"543 67 CURVE",
"543 305 LINE",
"701 305 LINE",
"716 246 LINE",
"758 246 LINE",
"758 417 LINE",
"716 417 LINE",
"701 358 LINE",
"543 358 LINE",
"543 587 LINE",
"641 593 LINE",
"762 593 LINE",
"783 484 LINE",
"832 484 LINE",
"832 648 LINE",
"373 648 LINE SMOOTH",
"167 648 OFFCURVE",
"45 504 OFFCURVE",
"45 313 CURVE SMOOTH",
"45 79 OFFCURVE",
"175 0 OFFCURVE",
"360 0 CURVE SMOOTH"
);
},
{
closed = 1;
nodes = (
"232 50 OFFCURVE",
"146 125 OFFCURVE",
"146 319 CURVE SMOOTH",
"146 568 OFFCURVE",
"262 594 OFFCURVE",
"374 594 CURVE SMOOTH",
"403 594 OFFCURVE",
"436 588 OFFCURVE",
"457 578 CURVE",
"457 70 LINE",
"433 54 OFFCURVE",
"403 50 OFFCURVE",
"374 50 CURVE"
);
}
);
width = 891;
},
{
anchors = (
{
name = top;
position = "{495, 648}";
}
);
layerId = "4c090d2b-0954-42f9-b8fa-9b61004e66c3";
paths = (
{
closed = 1;
nodes = (
"832 0 LINE",
"832 155 LINE",
"787 155 LINE",
"766 52 LINE",
"648 52 LINE SMOOTH",
"607 52 OFFCURVE",
"556 57 OFFCURVE",
"530 65 CURVE",
"530 309 LINE",
"703 309 LINE",
"716 254 LINE",
"755 254 LINE",
"755 412 LINE",
"716 412 LINE",
"703 356 LINE",
"530 356 LINE",
"530 593 LINE",
"642 598 LINE",
"759 598 LINE",
"778 490 LINE",
"823 490 LINE",
"823 648 LINE",
"376 648 LINE SMOOTH",
"170 648 OFFCURVE",
"49 500 OFFCURVE",
"49 313 CURVE SMOOTH",
"49 75 OFFCURVE",
"183 0 OFFCURVE",
"365 0 CURVE SMOOTH"
);
},
{
closed = 1;
nodes = (
"229 42 OFFCURVE",
"133 122 OFFCURVE",
"133 314 CURVE SMOOTH",
"133 579 OFFCURVE",
"261 601 OFFCURVE",
"380 601 CURVE SMOOTH",
"403 601 OFFCURVE",
"436 595 OFFCURVE",
"459 583 CURVE",
"459 66 LINE",
"436 47 OFFCURVE",
"407 42 OFFCURVE",
"379 42 CURVE SMOOTH"
);
}
);
width = 885;
},
{
anchors = (
{
name = top;
position = "{534, 648}";
}
);
layerId = "5be9d440-7da3-4849-9ff3-c66a194b28b9";
paths = (
{
closed = 1;
nodes = (
"893 0 LINE",
"893 208 LINE",
"824 208 LINE",
"794 82 LINE",
"665 82 LINE SMOOTH",
"648 82 OFFCURVE",
"635 82 OFFCURVE",
"614 82 CURVE",
"614 285 LINE",
"697 285 LINE",
"721 203 LINE",
"778 203 LINE",
"778 441 LINE",
"721 441 LINE",
"697 369 LINE",
"614 369 LINE",
"614 558 LINE",
"646 565 LINE",
"783 565 LINE",
"812 452 LINE",
"884 452 LINE",
"884 648 LINE",
"362 648 LINE SMOOTH",
"156 648 OFFCURVE",
"32 525 OFFCURVE",
"32 313 CURVE SMOOTH",
"32 100 OFFCURVE",
"140 0 OFFCURVE",
"340 0 CURVE SMOOTH"
);
},
{
closed = 1;
nodes = (
"259 89 OFFCURVE",
"216 153 OFFCURVE",
"216 347 CURVE SMOOTH",
"216 500 OFFCURVE",
"270 558 OFFCURVE",
"349 558 CURVE SMOOTH",
"408 558 OFFCURVE",
"441 554 OFFCURVE",
"453 552 CURVE",
"453 97 LINE",
"425 92 OFFCURVE",
"390 89 OFFCURVE",
"353 89 CURVE"
);
}
);
width = 930;
},
{
anchors = (
{
name = top;
position = "{508, 648}";
}
);
layerId = "634A4682-752C-4BE1-9291-605804ACC698";
paths = (
{
closed = 1;
nodes = (
"853 0 LINE",
"853 174 LINE",
"799 174 LINE",
"775 63 LINE",
"653 63 LINE SMOOTH",
"621 63 OFFCURVE",
"583 66 OFFCURVE",
"559 70 CURVE",
"559 301 LINE",
"700 301 LINE",
"717 236 LINE",
"763 236 LINE",
"763 422 LINE",
"717 422 LINE",
"700 360 LINE",
"559 360 LINE",
"559 580 LINE",
"641 587 LINE",
"767 587 LINE",
"790 477 LINE",
"844 477 LINE",
"844 648 LINE",
"371 648 LINE SMOOTH",
"165 648 OFFCURVE",
"42 509 OFFCURVE",
"42 313 CURVE SMOOTH",
"42 84 OFFCURVE",
"167 0 OFFCURVE",
"356 0 CURVE SMOOTH"
);
},
{
closed = 1;
nodes = (
"236 59 OFFCURVE",
"162 129 OFFCURVE",
"162 325 CURVE SMOOTH",
"162 555 OFFCURVE",
"264 586 OFFCURVE",
"368 586 CURVE SMOOTH",
"404 586 OFFCURVE",
"437 580 OFFCURVE",
"456 572 CURVE",
"456 75 LINE",
"431 62 OFFCURVE",
"400 59 OFFCURVE",
"369 59 CURVE"
);
}
);
width = 900;
}
);
leftKerningGroup = O;
leftMetricsKey = O;
rightKerningGroup = E;
rightMetricsKey = E;
unicode = 0152;
},
{
glyphname = P;
layers = (
{
anchors = (
{
name = bottom;
position = "{186, 0}";
},
{
name = top;
position = "{292, 648}";
}
);
layerId = "f777c4c2-d323-4068-8b89-2bd904ae3831";
paths = (
{
closed = 1;
nodes = (
"337 0 LINE",
"337 56 LINE",
"257 75 LINE",
"257 568 LINE",
"269 570 OFFCURVE",
"292 572 OFFCURVE",
"312 572 CURVE SMOOTH",
"389 572 OFFCURVE",
"423 531 OFFCURVE",
"423 461 CURVE SMOOTH",
"423 362 OFFCURVE",
"394 321 OFFCURVE",
"299 310 CURVE",
"304 263 LINE",
"314 262 OFFCURVE",
"325 261 OFFCURVE",
"335 261 CURVE",
"465 259 OFFCURVE",
"573 328 OFFCURVE",
"573 461 CURVE SMOOTH",
"573 604 OFFCURVE",
"488 648 OFFCURVE",
"317 648 CURVE SMOOTH",
"35 648 LINE",
"35 592 LINE",
"115 573 LINE",
"115 75 LINE",
"35 56 LINE",
"35 0 LINE"
);
}
);
width = 583;
},
{
anchors = (
{
name = bottom;
position = "{181, 0}";
},
{
name = top;
position = "{283, 648}";
}
);
layerId = "fce2a917-1261-4b8f-a12a-6bbc6dc19885";
paths = (
{
closed = 1;
nodes = (
"335 0 LINE",
"335 46 LINE",
"224 63 LINE",
"224 586 LINE",
"241 588 OFFCURVE",
"274 591 OFFCURVE",
"303 591 CURVE SMOOTH",
"395 591 OFFCURVE",
"455 554 OFFCURVE",
"455 454 CURVE SMOOTH",
"455 339 OFFCURVE",
"383 301 OFFCURVE",
"268 301 CURVE",
"273 262 LINE",
"285 260 OFFCURVE",
"297 260 OFFCURVE",
"309 260 CURVE SMOOTH",
"452 260 OFFCURVE",
"547 335 OFFCURVE",
"547 484 CURVE SMOOTH",
"547 605 OFFCURVE",
"446 648 OFFCURVE",
"304 648 CURVE SMOOTH",
"55 648 LINE",
"55 605 LINE",
"138 588 LINE",
"138 60 LINE",
"55 43 LINE",
"55 0 LINE"
);
}
);
width = 565;
},
{
anchors = (
{
name = bottom;
position = "{180, 0}";
},
{
name = top;
position = "{281, 648}";
}
);
layerId = "4c090d2b-0954-42f9-b8fa-9b61004e66c3";
paths = (
{
closed = 1;
nodes = (
"334 0 LINE",
"334 43 LINE",
"215 60 LINE",
"215 591 LINE",
"233 593 OFFCURVE",
"268 596 OFFCURVE",
"299 596 CURVE SMOOTH",
"398 596 OFFCURVE",
"463 558 OFFCURVE",
"463 456 CURVE SMOOTH",
"463 338 OFFCURVE",
"386 299 OFFCURVE",
"260 299 CURVE",
"265 262 LINE",
"277 260 OFFCURVE",
"289 260 OFFCURVE",
"301 260 CURVE SMOOTH",
"445 260 OFFCURVE",
"540 335 OFFCURVE",
"540 484 CURVE SMOOTH",
"540 605 OFFCURVE",
"439 648 OFFCURVE",
"297 648 CURVE SMOOTH",
"60 648 LINE",
"60 608 LINE",
"144 592 LINE",
"144 56 LINE",
"60 40 LINE",
"60 0 LINE"
);
}
);
width = 560;
},
{
anchors = (
{
name = bottom;
position = "{188, 0}";
},
{
name = top;
position = "{295, 648}";
}
);
layerId = "5be9d440-7da3-4849-9ff3-c66a194b28b9";
paths = (
{
closed = 1;
nodes = (
"338 0 LINE",
"338 59 LINE",
"268 79 LINE",
"268 562 LINE",
"278 564 OFFCURVE",
"297 566 OFFCURVE",
"315 566 CURVE SMOOTH",
"385 566 OFFCURVE",
"412 520 OFFCURVE",
"412 463 CURVE SMOOTH",
"412 374 OFFCURVE",
"397 326 OFFCURVE",
"310 313 CURVE",
"315 263 LINE",
"324 262 OFFCURVE",
"335 261 OFFCURVE",
"344 261 CURVE",
"472 259 OFFCURVE",
"582 326 OFFCURVE",
"582 455 CURVE SMOOTH",
"582 604 OFFCURVE",
"498 648 OFFCURVE",
"321 648 CURVE SMOOTH",
"28 648 LINE",
"28 588 LINE",
"107 568 LINE",
"107 80 LINE",
"28 60 LINE",
"28 0 LINE"
);
}
);
width = 589;
},
{
anchors = (
{
name = bottom;
position = "{183, 0}";
},
{
name = top;
position = "{286, 648}";
}
);
layerId = "634A4682-752C-4BE1-9291-605804ACC698";
paths = (
{
closed = 1;
nodes = (
"336 0 LINE",
"336 49 LINE",
"234 67 LINE",
"234 581 LINE",
"249 583 OFFCURVE",
"279 585 OFFCURVE",
"306 585 CURVE SMOOTH",
"393 585 OFFCURVE",
"445 547 OFFCURVE",
"445 456 CURVE SMOOTH",
"445 346 OFFCURVE",
"386 307 OFFCURVE",
"277 304 CURVE",
"282 262 LINE",
"294 261 OFFCURVE",
"305 260 OFFCURVE",
"317 260 CURVE SMOOTH",
"456 260 OFFCURVE",
"555 333 OFFCURVE",
"555 477 CURVE SMOOTH",
"555 605 OFFCURVE",
"459 648 OFFCURVE",
"308 648 CURVE SMOOTH",
"49 648 LINE",
"49 601 LINE",
"131 584 LINE",
"131 65 LINE",
"49 47 LINE",
"49 0 LINE"
);
}
);
width = 570;
}
);
leftKerningGroup = H;
leftMetricsKey = H;
rightKerningGroup = P;
unicode = 0050;
},
{
glyphname = Thorn;
layers = (
{
layerId = "f777c4c2-d323-4068-8b89-2bd904ae3831";
paths = (
{
closed = 1;
nodes = (
"337 0 LINE",
"337 56 LINE",
"257 75 LINE",
"257 140 LINE",
"293 140 LINE SMOOTH",
"444 140 OFFCURVE",
"552 201 OFFCURVE",
"552 344 CURVE SMOOTH",
"552 456 OFFCURVE",
"492 511 OFFCURVE",
"339 511 CURVE SMOOTH",
"257 511 LINE",
"257 573 LINE",
"337 592 LINE",
"337 648 LINE",
"35 648 LINE",
"35 592 LINE",
"115 573 LINE",
"115 75 LINE",
"35 56 LINE",
"35 0 LINE"
);
},
{
closed = 1;
nodes = (
"257 432 LINE",
"267 433 OFFCURVE",
"284 435 OFFCURVE",
"301 435 CURVE SMOOTH",
"378 435 OFFCURVE",
"409 398 OFFCURVE",
"409 334 CURVE SMOOTH",
"409 258 OFFCURVE",
"377 216 OFFCURVE",
"288 216 CURVE SMOOTH",
"257 216 LINE"
);
}
);
width = 582;
},
{
layerId = "fce2a917-1261-4b8f-a12a-6bbc6dc19885";
paths = (
{
closed = 1;
nodes = (
"306 0 LINE",
"306 44 LINE",
"224 59 LINE",
"224 156 LINE",
"302 156 LINE SMOOTH",
"451 156 OFFCURVE",
"532 214 OFFCURVE",
"532 357 CURVE SMOOTH",
"532 475 OFFCURVE",
"455 510 OFFCURVE",
"313 510 CURVE SMOOTH",
"224 510 LINE",
"224 589 LINE",
"306 604 LINE",
"306 648 LINE",
"55 648 LINE",
"55 604 LINE",
"137 589 LINE",
"137 59 LINE",
"55 44 LINE",
"55 0 LINE"
);
},
{
closed = 1;
nodes = (
"224 453 LINE",
"252 453 OFFCURVE",
"279 453 OFFCURVE",
"307 453 CURVE SMOOTH",
"393 453 OFFCURVE",
"440 426 OFFCURVE",
"440 336 CURVE SMOOTH",
"440 237 OFFCURVE",
"391 206 OFFCURVE",
"284 206 CURVE SMOOTH",
"224 206 LINE"
);
}
);
width = 557;
},
{
layerId = "4c090d2b-0954-42f9-b8fa-9b61004e66c3";
paths = (
{
closed = 1;
nodes = (
"298 0 LINE",
"298 41 LINE",
"215 55 LINE",
"215 160 LINE",
"304 160 LINE SMOOTH",
"447 160 OFFCURVE",
"527 222 OFFCURVE",
"527 360 CURVE SMOOTH",
"527 479 OFFCURVE",
"441 510 OFFCURVE",
"306 510 CURVE SMOOTH",
"215 510 LINE",
"215 593 LINE",
"298 607 LINE",
"298 648 LINE",
"60 648 LINE",
"60 607 LINE",
"143 593 LINE",
"143 55 LINE",
"60 41 LINE",
"60 0 LINE"
);
},
{
closed = 1;
nodes = (
"215 458 LINE",
"248 458 OFFCURVE",
"278 458 OFFCURVE",
"309 458 CURVE SMOOTH",
"395 458 OFFCURVE",
"448 432 OFFCURVE",
"448 337 CURVE SMOOTH",
"448 234 OFFCURVE",
"391 203 OFFCURVE",
"283 203 CURVE SMOOTH",
"215 203 LINE"
);
}
);
width = 551;
},
{
layerId = "5be9d440-7da3-4849-9ff3-c66a194b28b9";
paths = (
{
closed = 1;
nodes = (
"347 0 LINE",
"347 60 LINE",
"268 80 LINE",
"268 135 LINE",
"290 135 LINE SMOOTH",
"448 135 OFFCURVE",
"558 193 OFFCURVE",
"558 340 CURVE SMOOTH",
"558 455 OFFCURVE",
"508 511 OFFCURVE",
"347 511 CURVE SMOOTH",
"268 511 LINE",
"268 568 LINE",
"347 588 LINE",
"347 648 LINE",
"28 648 LINE",
"28 588 LINE",
"107 568 LINE",
"107 80 LINE",
"28 60 LINE",
"28 0 LINE"
);
},
{
closed = 1;
nodes = (
"268 425 LINE",
"272 426 OFFCURVE",
"285 429 OFFCURVE",
"299 429 CURVE SMOOTH",
"375 429 OFFCURVE",
"398 391 OFFCURVE",
"398 333 CURVE SMOOTH",
"398 261 OFFCURVE",
"374 219 OFFCURVE",
"289 219 CURVE SMOOTH",
"268 219 LINE"
);
}
);
width = 590;
},
{
layerId = "634A4682-752C-4BE1-9291-605804ACC698";
paths = (
{
closed = 1;
nodes = (
"315 0 LINE",
"315 48 LINE",
"234 64 LINE",
"234 151 LINE",
"299 151 LINE SMOOTH",
"449 151 OFFCURVE",
"538 210 OFFCURVE",
"538 353 CURVE SMOOTH",
"538 469 OFFCURVE",
"466 510 OFFCURVE",
"321 510 CURVE SMOOTH",
"234 510 LINE",
"234 584 LINE",
"315 600 LINE",
"315 648 LINE",
"49 648 LINE",
"49 600 LINE",
"130 584 LINE",
"130 64 LINE",
"49 48 LINE",
"49 0 LINE"
);
},
{
closed = 1;
nodes = (
"234 447 LINE",
"257 447 OFFCURVE",
"281 448 OFFCURVE",
"305 448 CURVE SMOOTH",
"388 448 OFFCURVE",
"431 418 OFFCURVE",
"431 335 CURVE SMOOTH",
"431 243 OFFCURVE",
"387 209 OFFCURVE",
"285 209 CURVE SMOOTH",
"234 209 LINE"
);
}
);
width = 565;
}
);
leftKerningGroup = H;
leftMetricsKey = H;
rightKerningGroup = Thorn;
unicode = 00DE;
},
{
glyphname = Q;
layers = (
{
anchors = (
{
name = bottom;
position = "{354, 0}";
},
{
name = top;
position = "{354, 648}";
}
);
components = (
{
name = O;
}
);
layerId = "f777c4c2-d323-4068-8b89-2bd904ae3831";
paths = (
{
closed = 1;
nodes = (
"639 -162 OFFCURVE",
"684 -143 OFFCURVE",
"708 -128 CURVE",
"708 -77 LINE",
"603 -77 LINE",
"443 7 LINE",
"274 -13 LINE",
"319 -20 OFFCURVE",
"344 -34 OFFCURVE",
"358 -43 CURVE SMOOTH",
"507 -134 LINE",
"536 -154 OFFCURVE",
"566 -162 OFFCURVE",
"602 -162 CURVE SMOOTH"
);
}
);
width = 707;
},
{
anchors = (
{
name = bottom;
position = "{351, 0}";
},
{
name = top;
position = "{351, 648}";
}
);
components = (
{
name = O;
}
);
layerId = "fce2a917-1261-4b8f-a12a-6bbc6dc19885";
paths = (
{
closed = 1;
nodes = (
"628 -156 OFFCURVE",
"672 -136 OFFCURVE",
"696 -121 CURVE",
"696 -86 LINE",
"591 -86 LINE",
"429 16 LINE",
"285 -9 LINE",
"347 -13 OFFCURVE",
"373 -31 OFFCURVE",
"390 -43 CURVE SMOOTH",
"519 -135 LINE",
"542 -150 OFFCURVE",
"564 -156 OFFCURVE",
"591 -156 CURVE SMOOTH"
);
}
);
width = 702;
},
{
anchors = (
{
name = bottom;
position = "{351, 0}";
},
{
name = top;
position = "{351, 648}";
}
);
components = (
{
name = O;
}
);
layerId = "4c090d2b-0954-42f9-b8fa-9b61004e66c3";
paths = (
{
closed = 1;
nodes = (
"626 -150 OFFCURVE",
"670 -133 OFFCURVE",
"694 -121 CURVE",
"694 -90 LINE",
"588 -90 LINE",
"424 16 LINE",
"295 -9 LINE",
"366 -11 OFFCURVE",
"381 -31 OFFCURVE",
"399 -44 CURVE SMOOTH",
"523 -130 LINE SMOOTH",
"545 -145 OFFCURVE",
"564 -150 OFFCURVE",
"589 -150 CURVE SMOOTH"
);
}
);
width = 702;
},
{
anchors = (
{
name = bottom;
position = "{355, 0}";
},
{
name = top;
position = "{355, 648}";
}
);
components = (
{
name = O;
}
);
layerId = "5be9d440-7da3-4849-9ff3-c66a194b28b9";
paths = (
{
closed = 1;
nodes = (
"643 -166 OFFCURVE",
"688 -147 OFFCURVE",
"712 -132 CURVE",
"712 -74 LINE",
"607 -74 LINE",
"455 5 LINE",
"265 -14 LINE",
"309 -21 OFFCURVE",
"321 -28 OFFCURVE",
"347 -43 CURVE SMOOTH",
"503 -136 LINE SMOOTH",
"535 -155 OFFCURVE",
"567 -166 OFFCURVE",
"606 -166 CURVE SMOOTH"
);
}
);
width = 709;
},
{
anchors = (
{
name = bottom;
position = "{352, 0}";
},
{
name = top;
position = "{352, 648}";
}
);
components = (
{
alignment = -1;
name = O;
}
);
layerId = "634A4682-752C-4BE1-9291-605804ACC698";
paths = (
{
closed = 1;
nodes = (
"631 -158 OFFCURVE",
"676 -138 OFFCURVE",
"700 -123 CURVE",
"700 -83 LINE",
"595 -83 LINE",
"433 13 LINE",
"282 -10 LINE",
"339 -15 OFFCURVE",
"364 -32 OFFCURVE",
"380 -43 CURVE SMOOTH",
"515 -135 LINE",
"540 -151 OFFCURVE",
"565 -158 OFFCURVE",
"594 -158 CURVE SMOOTH"
);
}
);
width = 704;
}
);
leftKerningGroup = O;
leftMetricsKey = O;
rightKerningGroup = O;
unicode = 0051;
},
{
glyphname = R;
layers = (
{
anchors = (
{
name = bottom;
position = "{328, 0}";
},
{
name = top;
position = "{314, 648}";
}
);
layerId = "f777c4c2-d323-4068-8b89-2bd904ae3831";
paths = (
{
closed = 1;
nodes = (
"337 0 LINE",
"337 56 LINE",
"257 75 LINE",
"257 264 LINE",
"302 264 LINE",
"420 41 LINE SMOOTH",
"438 7 OFFCURVE",
"453 0 OFFCURVE",
"493 0 CURVE SMOOTH",
"630 0 LINE",
"630 56 LINE",
"556 73 LINE",
"432 287 LINE",
"514 317 OFFCURVE",
"564 376 OFFCURVE",
"564 465 CURVE SMOOTH",
"564 608 OFFCURVE",
"477 648 OFFCURVE",
"317 648 CURVE SMOOTH",
"35 648 LINE",
"35 592 LINE",
"115 573 LINE",
"115 75 LINE",
"35 56 LINE",
"35 0 LINE"
);
},
{
closed = 1;
nodes = (
"257 568 LINE",
"266 570 OFFCURVE",
"288 572 OFFCURVE",
"308 572 CURVE SMOOTH",
"394 572 OFFCURVE",
"415 538 OFFCURVE",
"415 465 CURVE SMOOTH",
"415 381 OFFCURVE",
"368 340 OFFCURVE",
"287 340 CURVE SMOOTH",
"257 340 LINE"
);
}
);
width = 627;
},
{
anchors = (
{
name = bottom;
position = "{338, 0}";
},
{
name = top;
position = "{306, 648}";
}
);
layerId = "fce2a917-1261-4b8f-a12a-6bbc6dc19885";
paths = (
{
closed = 1;
nodes = (
"307 0 LINE",
"307 43 LINE",
"224 60 LINE",
"224 273 LINE",
"317 273 LINE",
"456 30 LINE SMOOTH",
"468 10 OFFCURVE",
"489 0 OFFCURVE",
"511 0 CURVE SMOOTH",
"606 0 LINE",
"606 43 LINE",
"538 62 LINE",
"397 293 LINE",
"461 321 OFFCURVE",
"538 362 OFFCURVE",
"538 488 CURVE SMOOTH",
"538 600 OFFCURVE",
"450 648 OFFCURVE",
"339 648 CURVE SMOOTH",
"55 648 LINE",
"55 605 LINE",
"138 588 LINE",
"138 60 LINE",
"55 43 LINE",
"55 0 LINE"
);
},
{
closed = 1;
nodes = (
"224 586 LINE",
"248 589 OFFCURVE",
"281 591 OFFCURVE",
"305 591 CURVE SMOOTH",
"364 591 OFFCURVE",
"444 580 OFFCURVE",
"444 470 CURVE SMOOTH",
"444 385 OFFCURVE",
"379 328 OFFCURVE",
"287 328 CURVE SMOOTH",
"224 328 LINE"
);
}
);
width = 611;
},
{
anchors = (
{
name = bottom;
position = "{341, 0}";
},
{
name = top;
position = "{304, 648}";
}
);
layerId = "4c090d2b-0954-42f9-b8fa-9b61004e66c3";
paths = (
{
closed = 1;
nodes = (
"299 0 LINE",
"299 40 LINE",
"215 56 LINE",
"215 275 LINE",
"319 275 LINE",
"463 29 LINE SMOOTH",
"477 7 OFFCURVE",
"489 0 OFFCURVE",
"517 0 CURVE SMOOTH",
"597 0 LINE",
"597 40 LINE",
"528 59 LINE",
"386 292 LINE",
"455 325 OFFCURVE",
"531 358 OFFCURVE",
"531 494 CURVE SMOOTH",
"531 598 OFFCURVE",
"440 648 OFFCURVE",
"342 648 CURVE SMOOTH",
"60 648 LINE",
"60 608 LINE",
"144 592 LINE",
"144 56 LINE",
"60 40 LINE",
"60 0 LINE"
);
},
{
closed = 1;
nodes = (
"215 591 LINE",
"243 594 OFFCURVE",
"279 596 OFFCURVE",
"304 596 CURVE SMOOTH",
"356 596 OFFCURVE",
"452 591 OFFCURVE",
"452 471 CURVE SMOOTH",
"452 386 OFFCURVE",
"382 325 OFFCURVE",
"287 325 CURVE SMOOTH",
"215 325 LINE"
);
}
);
width = 607;
},
{
anchors = (
{
name = bottom;
position = "{325, 0}";
},
{
name = top;
position = "{317, 648}";
}
);
layerId = "5be9d440-7da3-4849-9ff3-c66a194b28b9";
paths = (
{
closed = 1;
nodes = (
"347 0 LINE",
"347 60 LINE",
"268 80 LINE",
"268 261 LINE",
"302 261 LINE",
"411 42 LINE SMOOTH",
"427 10 OFFCURVE",
"445 0 OFFCURVE",
"486 0 CURVE SMOOTH",
"638 0 LINE",
"638 60 LINE",
"565 77 LINE",
"444 285 LINE",
"532 316 OFFCURVE",
"573 385 OFFCURVE",
"573 457 CURVE SMOOTH",
"573 611 OFFCURVE",
"486 648 OFFCURVE",
"310 648 CURVE SMOOTH",
"28 648 LINE",
"28 588 LINE",
"107 568 LINE",
"107 80 LINE",
"28 60 LINE",
"28 0 LINE"
);
},
{
closed = 1;
nodes = (
"268 562 LINE",
"275 564 OFFCURVE",
"290 566 OFFCURVE",
"309 566 CURVE SMOOTH",
"396 566 OFFCURVE",
"405 524 OFFCURVE",
"405 463 CURVE SMOOTH",
"405 380 OFFCURVE",
"364 344 OFFCURVE",
"287 344 CURVE SMOOTH",
"268 344 LINE"
);
}
);
width = 632;
},
{
anchors = (
{
name = bottom;
position = "{335, 0}";
},
{
name = top;
position = "{308, 648}";
}
);
layerId = "634A4682-752C-4BE1-9291-605804ACC698";
paths = (
{
closed = 1;
nodes = (
"316 0 LINE",
"316 47 LINE",
"234 65 LINE",
"234 270 LINE",
"313 270 LINE",
"445 33 LINE SMOOTH",
"459 9 OFFCURVE",
"478 0 OFFCURVE",
"506 0 CURVE SMOOTH",
"613 0 LINE",
"613 47 LINE",
"543 65 LINE",
"408 291 LINE",
"477 320 OFFCURVE",
"546 366 OFFCURVE",
"546 481 CURVE SMOOTH",
"546 602 OFFCURVE",
"458 648 OFFCURVE",
"332 648 CURVE SMOOTH",
"49 648 LINE",
"49 601 LINE",
"131 584 LINE",
"131 65 LINE",
"49 47 LINE",
"49 0 LINE"
);
},
{
closed = 1;
nodes = (
"234 581 LINE",
"253 583 OFFCURVE",
"283 585 OFFCURVE",
"306 585 CURVE SMOOTH",
"373 585 OFFCURVE",
"435 567 OFFCURVE",
"435 469 CURVE SMOOTH",
"435 384 OFFCURVE",
"376 332 OFFCURVE",
"287 332 CURVE SMOOTH",
"234 332 LINE"
);
}
);
width = 616;
}
);
leftKerningGroup = H;
leftMetricsKey = H;
rightKerningGroup = R;
unicode = 0052;
},
{
glyphname = S;
layers = (
{
anchors = (
{
name = bottom;
position = "{275, 0}";
},
{
name = top;
position = "{275, 648}";
}
);
layerId = "f777c4c2-d323-4068-8b89-2bd904ae3831";
paths = (
{
closed = 1;
nodes = (
"375 -17 OFFCURVE",
"502 30 OFFCURVE",
"502 185 CURVE SMOOTH",
"502 323 OFFCURVE",
"396 362 OFFCURVE",
"304 395 CURVE SMOOTH",
"233 420 OFFCURVE",
"171 443 OFFCURVE",
"171 501 CURVE SMOOTH",
"171 554 OFFCURVE",
"197 582 OFFCURVE",
"285 582 CURVE SMOOTH",
"328 582 OFFCURVE",
"361 572 OFFCURVE",
"383 563 CURVE",
"404 459 LINE",
"473 459 LINE",
"473 641 LINE",
"438 651 OFFCURVE",
"356 666 OFFCURVE",
"281 666 CURVE SMOOTH",
"136 666 OFFCURVE",
"46 588 OFFCURVE",
"46 475 CURVE SMOOTH",
"46 346 OFFCURVE",
"146 307 OFFCURVE",
"236 272 CURVE SMOOTH",
"344 230 OFFCURVE",
"376 202 OFFCURVE",
"376 149 CURVE SMOOTH",
"376 105 OFFCURVE",
"347 65 OFFCURVE",
"256 65 CURVE SMOOTH",
"213 65 OFFCURVE",
"162 83 OFFCURVE",
"137 108 CURVE",
"116 211 LINE",
"46 211 LINE",
"46 33 LINE",
"70 18 OFFCURVE",
"146 -17 OFFCURVE",
"259 -17 CURVE"
);
}
);
width = 537;
},
{
anchors = (
{
name = bottom;
position = "{257, 0}";
},
{
name = top;
position = "{257, 648}";
}
);
layerId = "fce2a917-1261-4b8f-a12a-6bbc6dc19885";
paths = (
{
closed = 1;
nodes = (
"352 -10 OFFCURVE",
"469 43 OFFCURVE",
"469 179 CURVE SMOOTH",
"469 292 OFFCURVE",
"387 334 OFFCURVE",
"305 365 CURVE SMOOTH",
"222 396 OFFCURVE",
"136 417 OFFCURVE",
"136 501 CURVE SMOOTH",
"136 557 OFFCURVE",
"165 603 OFFCURVE",
"270 603 CURVE SMOOTH",
"315 603 OFFCURVE",
"356 591 OFFCURVE",
"374 582 CURVE",
"393 484 LINE",
"442 484 LINE",
"442 635 LINE",
"419 645 OFFCURVE",
"339 660 OFFCURVE",
"273 660 CURVE SMOOTH",
"141 660 OFFCURVE",
"59 587 OFFCURVE",
"59 482 CURVE SMOOTH",
"59 361 OFFCURVE",
"159 327 OFFCURVE",
"248 295 CURVE SMOOTH",
"322 268 OFFCURVE",
"388 240 OFFCURVE",
"388 162 CURVE SMOOTH",
"388 81 OFFCURVE",
"350 46 OFFCURVE",
"264 46 CURVE SMOOTH",
"207 46 OFFCURVE",
"156 62 OFFCURVE",
"127 83 CURVE",
"110 187 LINE",
"58 187 LINE",
"58 44 LINE",
"88 17 OFFCURVE",
"171 -10 OFFCURVE",
"250 -10 CURVE"
);
}
);
width = 514;
},
{
anchors = (
{
name = bottom;
position = "{250, 0}";
},
{
name = top;
position = "{250, 648}";
}
);
layerId = "4c090d2b-0954-42f9-b8fa-9b61004e66c3";
paths = (
{
closed = 1;
nodes = (
"350 -8 OFFCURVE",
"458 45 OFFCURVE",
"458 183 CURVE SMOOTH",
"458 289 OFFCURVE",
"376 327 OFFCURVE",
"292 360 CURVE SMOOTH",
"210 392 OFFCURVE",
"127 416 OFFCURVE",
"127 506 CURVE SMOOTH",
"127 574 OFFCURVE",
"173 609 OFFCURVE",
"261 609 CURVE SMOOTH",
"308 609 OFFCURVE",
"350 597 OFFCURVE",
"369 587 CURVE",
"388 491 LINE",
"432 491 LINE",
"432 633 LINE",
"409 643 OFFCURVE",
"331 658 OFFCURVE",
"267 658 CURVE SMOOTH",
"140 658 OFFCURVE",
"60 592 OFFCURVE",
"60 483 CURVE SMOOTH",
"60 376 OFFCURVE",
"162 332 OFFCURVE",
"250 298 CURVE SMOOTH",
"324 269 OFFCURVE",
"391 242 OFFCURVE",
"391 161 CURVE SMOOTH",
"391 86 OFFCURVE",
"348 42 OFFCURVE",
"242 42 CURVE SMOOTH",
"204 42 OFFCURVE",
"151 57 OFFCURVE",
"122 78 CURVE",
"106 181 LINE",
"59 181 LINE",
"59 46 LINE",
"88 19 OFFCURVE",
"168 -8 OFFCURVE",
"245 -8 CURVE SMOOTH"
);
}
);
width = 507;
},
{
anchors = (
{
name = bottom;
position = "{282, 0}";
},
{
name = top;
position = "{282, 648}";
}
);
layerId = "5be9d440-7da3-4849-9ff3-c66a194b28b9";
paths = (
{
closed = 1;
nodes = (
"384 -19 OFFCURVE",
"517 26 OFFCURVE",
"517 189 CURVE SMOOTH",
"517 314 OFFCURVE",
"420 357 OFFCURVE",
"294 410 CURVE SMOOTH",
"231 436 OFFCURVE",
"184 450 OFFCURVE",
"184 507 CURVE SMOOTH",
"184 552 OFFCURVE",
"214 576 OFFCURVE",
"291 576 CURVE SMOOTH",
"327 576 OFFCURVE",
"355 570 OFFCURVE",
"384 558 CURVE",
"405 451 LINE",
"481 451 LINE",
"481 643 LINE",
"442 653 OFFCURVE",
"361 668 OFFCURVE",
"284 668 CURVE SMOOTH",
"135 668 OFFCURVE",
"42 588 OFFCURVE",
"42 474 CURVE SMOOTH",
"42 337 OFFCURVE",
"149 305 OFFCURVE",
"251 260 CURVE SMOOTH",
"351 216 OFFCURVE",
"382 191 OFFCURVE",
"382 149 CURVE SMOOTH",
"382 98 OFFCURVE",
"340 71 OFFCURVE",
"261 71 CURVE SMOOTH",
"210 71 OFFCURVE",
"165 89 OFFCURVE",
"141 115 CURVE",
"118 219 LINE",
"43 219 LINE",
"43 29 LINE",
"64 18 OFFCURVE",
"138 -19 OFFCURVE",
"263 -19 CURVE SMOOTH"
);
}
);
width = 542;
},
{
anchors = (
{
name = bottom;
position = "{262, 0}";
},
{
name = top;
position = "{262, 648}";
}
);
layerId = "634A4682-752C-4BE1-9291-605804ACC698";
paths = (
{
closed = 1;
nodes = (
"359 -12 OFFCURVE",
"479 39 OFFCURVE",
"479 181 CURVE SMOOTH",
"479 301 OFFCURVE",
"390 342 OFFCURVE",
"305 374 CURVE SMOOTH",
"225 403 OFFCURVE",
"147 425 OFFCURVE",
"147 501 CURVE SMOOTH",
"147 556 OFFCURVE",
"175 597 OFFCURVE",
"275 597 CURVE SMOOTH",
"319 597 OFFCURVE",
"358 585 OFFCURVE",
"377 576 CURVE",
"396 476 LINE",
"451 476 LINE",
"451 637 LINE",
"425 647 OFFCURVE",
"344 662 OFFCURVE",
"275 662 CURVE SMOOTH",
"140 662 OFFCURVE",
"55 587 OFFCURVE",
"55 480 CURVE SMOOTH",
"55 357 OFFCURVE",
"155 321 OFFCURVE",
"244 288 CURVE SMOOTH",
"329 257 OFFCURVE",
"384 229 OFFCURVE",
"384 158 CURVE SMOOTH",
"384 88 OFFCURVE",
"349 52 OFFCURVE",
"262 52 CURVE SMOOTH",
"209 52 OFFCURVE",
"158 68 OFFCURVE",
"130 91 CURVE",
"112 194 LINE",
"54 194 LINE",
"54 41 LINE",
"83 17 OFFCURVE",
"164 -12 OFFCURVE",
"253 -12 CURVE"
);
}
);
width = 521;
}
);
leftKerningGroup = S;
rightKerningGroup = S;
unicode = 0053;
},
{
glyphname = Scedilla;
layers = (
{
layerId = "f777c4c2-d323-4068-8b89-2bd904ae3831";
paths = (
{
closed = 1;
nodes = (
"334 -194 OFFCURVE",
"376 -163 OFFCURVE",
"376 -104 CURVE SMOOTH",
"376 -58 OFFCURVE",
"349 -45 OFFCURVE",
"308 -35 CURVE SMOOTH",
"287 -30 LINE",
"287 -15 LINE",
"393 -7 OFFCURVE",
"498 45 OFFCURVE",
"498 195 CURVE SMOOTH",
"498 312 OFFCURVE",
"407 359 OFFCURVE",
"293 405 CURVE SMOOTH",
"226 432 OFFCURVE",
"173 452 OFFCURVE",
"173 501 CURVE SMOOTH",
"173 554 OFFCURVE",
"192 582 OFFCURVE",
"281 582 CURVE SMOOTH",
"314 582 OFFCURVE",
"348 575 OFFCURVE",
"379 563 CURVE",
"400 459 LINE",
"469 459 LINE",
"469 641 LINE",
"434 651 OFFCURVE",
"352 666 OFFCURVE",
"277 666 CURVE SMOOTH",
"132 666 OFFCURVE",
"42 588 OFFCURVE",
"42 475 CURVE SMOOTH",
"42 339 OFFCURVE",
"153 299 OFFCURVE",
"246 262 CURVE SMOOTH",
"360 216 OFFCURVE",
"372 199 OFFCURVE",
"372 152 CURVE SMOOTH",
"372 95 OFFCURVE",
"343 65 OFFCURVE",
"252 65 CURVE SMOOTH",
"209 65 OFFCURVE",
"158 83 OFFCURVE",
"133 108 CURVE",
"112 211 LINE",
"42 211 LINE",
"42 33 LINE",
"64 19 OFFCURVE",
"131 -12 OFFCURVE",
"230 -16 CURVE",
"209 -64 LINE",
"232 -87 LINE",
"261 -93 LINE SMOOTH",
"277 -96 OFFCURVE",
"284 -102 OFFCURVE",
"284 -116 CURVE SMOOTH",
"284 -137 OFFCURVE",
"269 -141 OFFCURVE",
"249 -141 CURVE SMOOTH",
"227 -141 OFFCURVE",
"211 -138 OFFCURVE",
"188 -128 CURVE",
"168 -175 LINE",
"193 -188 OFFCURVE",
"215 -194 OFFCURVE",
"252 -194 CURVE"
);
}
);
width = 536;
},
{
layerId = "fce2a917-1261-4b8f-a12a-6bbc6dc19885";
paths = (
{
closed = 1;
nodes = (
"301 -187 OFFCURVE",
"364 -166 OFFCURVE",
"364 -96 CURVE SMOOTH",
"364 -52 OFFCURVE",
"330 -42 OFFCURVE",
"292 -33 CURVE SMOOTH",
"275 -29 LINE",
"275 -9 LINE",
"370 -1 OFFCURVE",
"469 54 OFFCURVE",
"469 184 CURVE SMOOTH",
"469 306 OFFCURVE",
"379 343 OFFCURVE",
"294 375 CURVE SMOOTH",
"218 403 OFFCURVE",
"146 428 OFFCURVE",
"146 505 CURVE SMOOTH",
"146 560 OFFCURVE",
"169 601 OFFCURVE",
"270 601 CURVE SMOOTH",
"306 601 OFFCURVE",
"350 591 OFFCURVE",
"374 578 CURVE",
"393 484 LINE",
"442 484 LINE",
"442 635 LINE",
"419 645 OFFCURVE",
"339 660 OFFCURVE",
"273 660 CURVE SMOOTH",
"141 660 OFFCURVE",
"59 587 OFFCURVE",
"59 477 CURVE SMOOTH",
"59 350 OFFCURVE",
"164 321 OFFCURVE",
"254 288 CURVE SMOOTH",
"323 263 OFFCURVE",
"383 235 OFFCURVE",
"383 162 CURVE SMOOTH",
"383 71 OFFCURVE",
"337 48 OFFCURVE",
"244 48 CURVE SMOOTH",
"207 48 OFFCURVE",
"156 65 OFFCURVE",
"127 87 CURVE",
"112 187 LINE",
"58 187 LINE",
"58 44 LINE",
"85 19 OFFCURVE",
"157 -5 OFFCURVE",
"230 -9 CURVE",
"209 -59 LINE",
"228 -78 LINE",
"265 -86 LINE SMOOTH",
"285 -90 OFFCURVE",
"296 -93 OFFCURVE",
"296 -115 CURVE SMOOTH",
"296 -135 OFFCURVE",
"276 -145 OFFCURVE",
"237 -145 CURVE SMOOTH",
"214 -145 OFFCURVE",
"198 -140 OFFCURVE",
"183 -134 CURVE",
"167 -171 LINE",
"190 -181 OFFCURVE",
"210 -187 OFFCURVE",
"241 -187 CURVE"
);
}
);
width = 514;
},
{
layerId = "4c090d2b-0954-42f9-b8fa-9b61004e66c3";
paths = (
{
closed = 1;
nodes = (
"292 -185 OFFCURVE",
"361 -167 OFFCURVE",
"361 -94 CURVE SMOOTH",
"361 -50 OFFCURVE",
"325 -41 OFFCURVE",
"288 -32 CURVE",
"272 -29 LINE",
"272 -7 LINE",
"364 1 OFFCURVE",
"461 56 OFFCURVE",
"461 181 CURVE SMOOTH",
"461 304 OFFCURVE",
"372 339 OFFCURVE",
"294 367 CURVE SMOOTH",
"216 395 OFFCURVE",
"139 422 OFFCURVE",
"139 506 CURVE SMOOTH",
"139 562 OFFCURVE",
"163 606 OFFCURVE",
"267 606 CURVE SMOOTH",
"304 606 OFFCURVE",
"351 595 OFFCURVE",
"373 582 CURVE",
"391 491 LINE",
"435 491 LINE",
"435 633 LINE",
"415 643 OFFCURVE",
"336 658 OFFCURVE",
"272 658 CURVE SMOOTH",
"143 658 OFFCURVE",
"63 587 OFFCURVE",
"63 478 CURVE SMOOTH",
"63 353 OFFCURVE",
"167 327 OFFCURVE",
"256 295 CURVE SMOOTH",
"313 275 OFFCURVE",
"386 244 OFFCURVE",
"386 165 CURVE SMOOTH",
"386 65 OFFCURVE",
"335 44 OFFCURVE",
"242 44 CURVE SMOOTH",
"206 44 OFFCURVE",
"155 60 OFFCURVE",
"125 82 CURVE",
"112 181 LINE",
"62 181 LINE",
"62 47 LINE",
"90 19 OFFCURVE",
"164 -3 OFFCURVE",
"230 -7 CURVE",
"209 -58 LINE",
"227 -76 LINE",
"266 -84 LINE SMOOTH",
"287 -88 OFFCURVE",
"299 -91 OFFCURVE",
"299 -115 CURVE SMOOTH",
"299 -134 OFFCURVE",
"278 -146 OFFCURVE",
"234 -146 CURVE SMOOTH",
"211 -146 OFFCURVE",
"195 -141 OFFCURVE",
"182 -136 CURVE",
"167 -170 LINE",
"189 -179 OFFCURVE",
"209 -185 OFFCURVE",
"238 -185 CURVE"
);
}
);
width = 508;
},
{
layerId = "5be9d440-7da3-4849-9ff3-c66a194b28b9";
paths = (
{
closed = 1;
nodes = (
"345 -196 OFFCURVE",
"380 -162 OFFCURVE",
"380 -107 CURVE SMOOTH",
"380 -60 OFFCURVE",
"355 -46 OFFCURVE",
"313 -36 CURVE SMOOTH",
"291 -30 LINE",
"291 -17 LINE",
"401 -9 OFFCURVE",
"508 42 OFFCURVE",
"508 199 CURVE SMOOTH",
"508 314 OFFCURVE",
"417 364 OFFCURVE",
"293 415 CURVE SMOOTH",
"229 442 OFFCURVE",
"182 460 OFFCURVE",
"182 500 CURVE SMOOTH",
"182 552 OFFCURVE",
"200 576 OFFCURVE",
"285 576 CURVE SMOOTH",
"317 576 OFFCURVE",
"347 570 OFFCURVE",
"381 558 CURVE",
"402 451 LINE",
"478 451 LINE",
"478 643 LINE",
"439 653 OFFCURVE",
"356 668 OFFCURVE",
"278 668 CURVE SMOOTH",
"129 668 OFFCURVE",
"36 588 OFFCURVE",
"36 474 CURVE SMOOTH",
"36 335 OFFCURVE",
"149 292 OFFCURVE",
"243 253 CURVE SMOOTH",
"373 200 OFFCURVE",
"368 187 OFFCURVE",
"368 149 CURVE SMOOTH",
"368 103 OFFCURVE",
"345 71 OFFCURVE",
"255 71 CURVE SMOOTH",
"210 71 OFFCURVE",
"159 89 OFFCURVE",
"135 115 CURVE",
"112 219 LINE",
"37 219 LINE",
"37 29 LINE",
"57 19 OFFCURVE",
"122 -14 OFFCURVE",
"230 -18 CURVE",
"209 -66 LINE",
"233 -90 LINE",
"260 -95 LINE SMOOTH",
"274 -98 OFFCURVE",
"280 -105 OFFCURVE",
"280 -116 CURVE SMOOTH",
"280 -138 OFFCURVE",
"267 -140 OFFCURVE",
"253 -140 CURVE SMOOTH",
"231 -140 OFFCURVE",
"215 -137 OFFCURVE",
"190 -126 CURVE",
"168 -176 LINE",
"194 -190 OFFCURVE",
"217 -196 OFFCURVE",
"256 -196 CURVE"
);
}
);
width = 543;
},
{
layerId = "634A4682-752C-4BE1-9291-605804ACC698";
paths = (
{
closed = 1;
nodes = (
"311 -189 OFFCURVE",
"368 -165 OFFCURVE",
"368 -98 CURVE SMOOTH",
"368 -54 OFFCURVE",
"336 -43 OFFCURVE",
"297 -34 CURVE SMOOTH",
"279 -29 LINE",
"279 -11 LINE",
"377 -3 OFFCURVE",
"478 51 OFFCURVE",
"478 187 CURVE SMOOTH",
"478 308 OFFCURVE",
"387 348 OFFCURVE",
"294 384 CURVE SMOOTH",
"220 412 OFFCURVE",
"154 435 OFFCURVE",
"154 504 CURVE SMOOTH",
"154 558 OFFCURVE",
"176 595 OFFCURVE",
"273 595 CURVE SMOOTH",
"308 595 OFFCURVE",
"349 586 OFFCURVE",
"376 574 CURVE",
"395 476 LINE",
"450 476 LINE",
"450 637 LINE",
"423 647 OFFCURVE",
"343 662 OFFCURVE",
"274 662 CURVE SMOOTH",
"138 662 OFFCURVE",
"54 587 OFFCURVE",
"54 476 CURVE SMOOTH",
"54 347 OFFCURVE",
"161 314 OFFCURVE",
"252 280 CURVE SMOOTH",
"334 249 OFFCURVE",
"380 224 OFFCURVE",
"380 159 CURVE SMOOTH",
"380 78 OFFCURVE",
"339 53 OFFCURVE",
"246 53 CURVE SMOOTH",
"208 53 OFFCURVE",
"157 70 OFFCURVE",
"129 93 CURVE",
"112 194 LINE",
"53 194 LINE",
"53 41 LINE",
"79 19 OFFCURVE",
"149 -7 OFFCURVE",
"230 -11 CURVE",
"209 -61 LINE",
"229 -81 LINE",
"264 -88 LINE SMOOTH",
"283 -92 OFFCURVE",
"292 -96 OFFCURVE",
"292 -115 CURVE SMOOTH",
"292 -136 OFFCURVE",
"274 -144 OFFCURVE",
"241 -144 CURVE SMOOTH",
"218 -144 OFFCURVE",
"202 -139 OFFCURVE",
"185 -132 CURVE",
"167 -172 LINE",
"191 -183 OFFCURVE",
"212 -189 OFFCURVE",
"244 -189 CURVE"
);
}
);
width = 521;
}
);
leftKerningGroup = S;
rightKerningGroup = S;
unicode = 015E;
},
{
glyphname = Germandbls;
layers = (
{
anchors = (
{
name = bottom;
position = "{431, 0}";
},
{
name = top;
position = "{431, 648}";
}
);
layerId = "f777c4c2-d323-4068-8b89-2bd904ae3831";
paths = (
{
closed = 1;
nodes = (
"589 -17 OFFCURVE",
"697 44 OFFCURVE",
"697 183 CURVE SMOOTH",
"697 282 OFFCURVE",
"640 351 OFFCURVE",
"518 370 CURVE",
"518 378 LINE",
"655 572 LINE",
"655 640 LINE",
"621 649 OFFCURVE",
"495 666 OFFCURVE",
"418 666 CURVE SMOOTH",
"203 666 OFFCURVE",
"90 533 OFFCURVE",
"90 343 CURVE SMOOTH",
"90 75 LINE",
"10 56 LINE",
"10 0 LINE",
"232 0 LINE",
"232 56 LINE",
"232 75 LINE",
"232 369 LINE SMOOTH",
"232 511 OFFCURVE",
"270 582 OFFCURVE",
"404 582 CURVE SMOOTH",
"442 582 OFFCURVE",
"476 578 OFFCURVE",
"505 573 CURVE",
"505 563 LINE",
"374 375 LINE",
"374 300 LINE",
"396 300 LINE SMOOTH",
"547 300 OFFCURVE",
"571 224 OFFCURVE",
"571 167 CURVE SMOOTH",
"571 112 OFFCURVE",
"549 65 OFFCURVE",
"488 65 CURVE SMOOTH",
"450 65 OFFCURVE",
"420 83 OFFCURVE",
"407 98 CURVE",
"386 201 LINE",
"316 201 LINE",
"316 23 LINE",
"334 11 OFFCURVE",
"404 -17 OFFCURVE",
"478 -17 CURVE"
);
}
);
width = 727;
},
{
anchors = (
{
name = bottom;
position = "{429, 0}";
},
{
name = top;
position = "{429, 648}";
}
);
layerId = "fce2a917-1261-4b8f-a12a-6bbc6dc19885";
paths = (
{
closed = 1;
nodes = (
"591 -10 OFFCURVE",
"686 54 OFFCURVE",
"686 177 CURVE SMOOTH",
"686 302 OFFCURVE",
"589 347 OFFCURVE",
"487 351 CURVE",
"487 361 LINE",
"636 570 LINE",
"636 632 LINE",
"562 652 OFFCURVE",
"477 660 OFFCURVE",
"425 660 CURVE SMOOTH",
"216 660 OFFCURVE",
"122 533 OFFCURVE",
"122 342 CURVE SMOOTH",
"122 59 LINE",
"40 44 LINE",
"40 0 LINE",
"291 0 LINE",
"291 44 LINE",
"208 59 LINE",
"208 370 LINE SMOOTH",
"208 510 OFFCURVE",
"254 601 OFFCURVE",
"405 601 CURVE SMOOTH",
"447 601 OFFCURVE",
"495 594 OFFCURVE",
"534 583 CURVE",
"534 568 LINE",
"377 337 LINE",
"377 290 LINE",
"425 290 LINE SMOOTH",
"519 290 OFFCURVE",
"600 261 OFFCURVE",
"600 154 CURVE SMOOTH",
"600 92 OFFCURVE",
"573 48 OFFCURVE",
"507 48 CURVE SMOOTH",
"463 48 OFFCURVE",
"435 67 OFFCURVE",
"424 77 CURVE",
"409 177 LINE",
"355 177 LINE",
"355 34 LINE",
"379 12 OFFCURVE",
"447 -10 OFFCURVE",
"500 -10 CURVE SMOOTH"
);
}
);
width = 723;
},
{
anchors = (
{
name = bottom;
position = "{416, 0}";
},
{
name = top;
position = "{416, 648}";
}
);
layerId = "4c090d2b-0954-42f9-b8fa-9b61004e66c3";
paths = (
{
closed = 1;
nodes = (
"579 -8 OFFCURVE",
"670 57 OFFCURVE",
"670 175 CURVE SMOOTH",
"670 307 OFFCURVE",
"558 346 OFFCURVE",
"456 346 CURVE",
"456 357 LINE",
"618 569 LINE",
"618 630 LINE",
"534 653 OFFCURVE",
"459 658 OFFCURVE",
"414 658 CURVE SMOOTH",
"206 658 OFFCURVE",
"117 533 OFFCURVE",
"117 342 CURVE SMOOTH",
"117 55 LINE",
"35 41 LINE",
"35 0 LINE",
"293 0 LINE",
"293 41 LINE",
"189 55 LINE",
"189 370 LINE SMOOTH",
"189 510 OFFCURVE",
"237 606 OFFCURVE",
"392 606 CURVE SMOOTH",
"436 606 OFFCURVE",
"491 598 OFFCURVE",
"537 585 CURVE",
"537 569 LINE",
"362 333 LINE",
"362 287 LINE",
"410 287 LINE SMOOTH",
"494 287 OFFCURVE",
"595 271 OFFCURVE",
"595 151 CURVE SMOOTH",
"595 87 OFFCURVE",
"566 44 OFFCURVE",
"499 44 CURVE SMOOTH",
"453 44 OFFCURVE",
"426 63 OFFCURVE",
"416 72 CURVE",
"402 171 LINE",
"352 171 LINE",
"352 37 LINE",
"378 12 OFFCURVE",
"445 -8 OFFCURVE",
"493 -8 CURVE SMOOTH"
);
}
);
width = 705;
},
{
anchors = (
{
name = bottom;
position = "{438, 0}";
},
{
name = top;
position = "{438, 648}";
}
);
layerId = "5be9d440-7da3-4849-9ff3-c66a194b28b9";
paths = (
{
closed = 1;
nodes = (
"594 -19 OFFCURVE",
"707 41 OFFCURVE",
"707 185 CURVE SMOOTH",
"707 275 OFFCURVE",
"663 352 OFFCURVE",
"534 376 CURVE",
"534 384 LINE",
"667 573 LINE",
"667 643 LINE",
"647 648 OFFCURVE",
"507 668 OFFCURVE",
"422 668 CURVE SMOOTH",
"205 668 OFFCURVE",
"85 533 OFFCURVE",
"85 343 CURVE SMOOTH",
"85 80 LINE",
"6 60 LINE",
"6 0 LINE",
"246 0 LINE",
"246 60 LINE",
"246 80 LINE",
"246 369 LINE SMOOTH",
"246 511 OFFCURVE",
"281 576 OFFCURVE",
"410 576 CURVE SMOOTH",
"446 576 OFFCURVE",
"475 572 OFFCURVE",
"500 569 CURVE",
"500 561 LINE",
"375 384 LINE",
"375 303 LINE",
"392 303 LINE SMOOTH",
"562 303 OFFCURVE",
"567 211 OFFCURVE",
"567 171 CURVE SMOOTH",
"567 119 OFFCURVE",
"547 71 OFFCURVE",
"487 71 CURVE SMOOTH",
"452 71 OFFCURVE",
"421 88 OFFCURVE",
"407 105 CURVE",
"384 209 LINE",
"309 209 LINE",
"309 19 LINE",
"325 11 OFFCURVE",
"395 -19 OFFCURVE",
"476 -19 CURVE"
);
}
);
width = 727;
},
{
anchors = (
{
name = bottom;
position = "{430, 0}";
},
{
name = top;
position = "{430, 648}";
}
);
layerId = "634A4682-752C-4BE1-9291-605804ACC698";
paths = (
{
closed = 1;
nodes = (
"590 -12 OFFCURVE",
"689 51 OFFCURVE",
"689 179 CURVE SMOOTH",
"689 296 OFFCURVE",
"604 348 OFFCURVE",
"496 357 CURVE",
"496 366 LINE",
"642 571 LINE",
"642 634 LINE",
"580 651 OFFCURVE",
"482 662 OFFCURVE",
"423 662 CURVE SMOOTH",
"212 662 OFFCURVE",
"112 533 OFFCURVE",
"112 342 CURVE SMOOTH",
"112 64 LINE",
"31 48 LINE",
"31 0 LINE",
"273 0 LINE",
"273 48 LINE",
"215 64 LINE",
"215 370 LINE SMOOTH",
"215 510 OFFCURVE",
"259 595 OFFCURVE",
"405 595 CURVE SMOOTH",
"446 595 OFFCURVE",
"489 589 OFFCURVE",
"525 580 CURVE",
"525 567 LINE",
"376 348 LINE",
"376 293 LINE",
"416 293 LINE SMOOTH",
"527 293 OFFCURVE",
"591 250 OFFCURVE",
"591 158 CURVE SMOOTH",
"591 98 OFFCURVE",
"566 53 OFFCURVE",
"501 53 CURVE SMOOTH",
"459 53 OFFCURVE",
"431 72 OFFCURVE",
"419 83 CURVE",
"402 184 LINE",
"343 184 LINE",
"343 31 LINE",
"366 12 OFFCURVE",
"434 -12 OFFCURVE",
"493 -12 CURVE SMOOTH"
);
}
);
width = 724;
}
);
leftKerningGroup = Germandbls;
rightKerningGroup = Germandbls;
unicode = 1E9E;
},
{
glyphname = Schwa;
layers = (
{
anchors = (
{
name = bottom;
position = "{354, 0}";
},
{
name = center;
position = "{354, 324}";
},
{
name = top;
position = "{354, 648}";
},
{
name = topright;
position = "{458, 648}";
}
);
layerId = "f777c4c2-d323-4068-8b89-2bd904ae3831";
paths = (
{
closed = 1;
nodes = (
"518 -18 OFFCURVE",
"638 115 OFFCURVE",
"641 332 CURVE",
"638 552 OFFCURVE",
"535 666 OFFCURVE",
"335 666 CURVE SMOOTH",
"212 666 OFFCURVE",
"138 638 OFFCURVE",
"98 621 CURVE",
"98 441 LINE",
"172 441 LINE",
"195 560 LINE",
"218 570 OFFCURVE",
"257 583 OFFCURVE",
"309 583 CURVE SMOOTH",
"414 583 OFFCURVE",
"469 544 OFFCURVE",
"477 373 CURVE",
"39 373 LINE",
"36 354 OFFCURVE",
"35 334 OFFCURVE",
"35 313 CURVE SMOOTH",
"35 94 OFFCURVE",
"142 -18 OFFCURVE",
"323 -18 CURVE"
);
},
{
closed = 1;
nodes = (
"252 65 OFFCURVE",
"205 126 OFFCURVE",
"199 296 CURVE",
"478 296 LINE",
"476 120 OFFCURVE",
"434 65 OFFCURVE",
"346 65 CURVE"
);
}
);
width = 676;
},
{
anchors = (
{
name = bottom;
position = "{348, 0}";
},
{
name = center;
position = "{348, 324}";
},
{
name = top;
position = "{348, 648}";
},
{
name = topright;
position = "{426, 648}";
}
);
layerId = "fce2a917-1261-4b8f-a12a-6bbc6dc19885";
paths = (
{
closed = 1;
nodes = (
"534 -13 OFFCURVE",
"620 145 OFFCURVE",
"620 333 CURVE SMOOTH",
"620 550 OFFCURVE",
"522 660 OFFCURVE",
"325 660 CURVE SMOOTH",
"203 660 OFFCURVE",
"145 634 OFFCURVE",
"105 617 CURVE",
"105 465 LINE",
"154 465 LINE",
"174 567 LINE",
"191 583 OFFCURVE",
"240 604 OFFCURVE",
"313 604 CURVE SMOOTH",
"437 604 OFFCURVE",
"510 506 OFFCURVE",
"518 360 CURVE",
"47 360 LINE",
"46 345 OFFCURVE",
"45 330 OFFCURVE",
"45 310 CURVE SMOOTH",
"45 114 OFFCURVE",
"143 -13 OFFCURVE",
"328 -13 CURVE"
);
},
{
closed = 1;
nodes = (
"220 44 OFFCURVE",
"149 120 OFFCURVE",
"146 305 CURVE",
"519 305 LINE",
"516 131 OFFCURVE",
"467 44 OFFCURVE",
"339 44 CURVE"
);
}
);
width = 665;
},
{
anchors = (
{
name = bottom;
position = "{347, 0}";
},
{
name = center;
position = "{347, 324}";
},
{
name = top;
position = "{347, 648}";
},
{
name = topright;
position = "{417, 648}";
}
);
layerId = "4c090d2b-0954-42f9-b8fa-9b61004e66c3";
paths = (
{
closed = 1;
nodes = (
"539 -12 OFFCURVE",
"616 153 OFFCURVE",
"616 333 CURVE SMOOTH",
"616 549 OFFCURVE",
"520 658 OFFCURVE",
"323 658 CURVE SMOOTH",
"202 658 OFFCURVE",
"148 633 OFFCURVE",
"108 616 CURVE",
"108 471 LINE",
"150 471 LINE",
"170 569 LINE",
"164 566 OFFCURVE",
"203 609 OFFCURVE",
"315 609 CURVE SMOOTH",
"444 609 OFFCURVE",
"522 496 OFFCURVE",
"530 357 CURVE",
"50 357 LINE",
"50 343 OFFCURVE",
"49 329 OFFCURVE",
"49 309 CURVE SMOOTH",
"49 119 OFFCURVE",
"144 -12 OFFCURVE",
"330 -12 CURVE"
);
},
{
closed = 1;
nodes = (
"213 39 OFFCURVE",
"135 118 OFFCURVE",
"133 307 CURVE",
"531 307 LINE",
"527 134 OFFCURVE",
"477 39 OFFCURVE",
"338 39 CURVE"
);
}
);
width = 662;
},
{
anchors = (
{
name = bottom;
position = "{356, 0}";
},
{
name = center;
position = "{356, 324}";
},
{
name = top;
position = "{356, 648}";
},
{
name = topright;
position = "{466, 648}";
}
);
layerId = "5be9d440-7da3-4849-9ff3-c66a194b28b9";
paths = (
{
closed = 1;
nodes = (
"513 -20 OFFCURVE",
"644 105 OFFCURVE",
"648 332 CURVE",
"644 553 OFFCURVE",
"539 668 OFFCURVE",
"338 668 CURVE SMOOTH",
"215 668 OFFCURVE",
"136 639 OFFCURVE",
"96 622 CURVE",
"96 433 LINE",
"178 433 LINE",
"202 558 LINE",
"233 571 OFFCURVE",
"272 576 OFFCURVE",
"308 576 CURVE SMOOTH",
"406 576 OFFCURVE",
"455 557 OFFCURVE",
"463 377 CURVE",
"36 377 LINE",
"33 357 OFFCURVE",
"32 335 OFFCURVE",
"32 314 CURVE SMOOTH",
"32 87 OFFCURVE",
"142 -20 OFFCURVE",
"321 -20 CURVE"
);
},
{
closed = 1;
nodes = (
"263 72 OFFCURVE",
"224 128 OFFCURVE",
"217 293 CURVE",
"464 293 LINE",
"462 116 OFFCURVE",
"423 72 OFFCURVE",
"348 72 CURVE"
);
}
);
width = 680;
},
{
anchors = (
{
name = bottom;
position = "{350, 0}";
},
{
name = center;
position = "{350, 324}";
},
{
name = top;
position = "{350, 648}";
},
{
name = topright;
position = "{436, 648}";
}
);
layerId = "634A4682-752C-4BE1-9291-605804ACC698";
paths = (
{
closed = 1;
nodes = (
"529 -15 OFFCURVE",
"625 136 OFFCURVE",
"626 333 CURVE SMOOTH",
"625 551 OFFCURVE",
"526 662 OFFCURVE",
"328 662 CURVE SMOOTH",
"206 662 OFFCURVE",
"143 635 OFFCURVE",
"103 618 CURVE",
"103 458 LINE",
"159 458 LINE",
"180 565 LINE",
"199 579 OFFCURVE",
"245 598 OFFCURVE",
"312 598 CURVE SMOOTH",
"430 598 OFFCURVE",
"498 517 OFFCURVE",
"506 364 CURVE",
"45 364 LINE",
"43 348 OFFCURVE",
"42 331 OFFCURVE",
"42 311 CURVE SMOOTH",
"42 108 OFFCURVE",
"143 -15 OFFCURVE",
"327 -15 CURVE"
);
},
{
closed = 1;
nodes = (
"230 50 OFFCURVE",
"166 122 OFFCURVE",
"162 302 CURVE",
"507 302 LINE",
"504 128 OFFCURVE",
"457 50 OFFCURVE",
"341 50 CURVE"
);
}
);
width = 668;
}
);
leftKerningGroup = O;
leftMetricsKey = O;
rightKerningGroup = O;
rightMetricsKey = O;
unicode = 018F;
},
{
glyphname = T;
layers = (
{
anchors = (
{
name = bottom;
position = "{279, 0}";
},
{
name = center;
position = "{279, 324}";
},
{
name = top;
position = "{279, 648}";
}
);
layerId = "f777c4c2-d323-4068-8b89-2bd904ae3831";
paths = (
{
closed = 1;
nodes = (
"434 0 LINE",
"434 56 LINE",
"354 75 LINE",
"354 572 LINE",
"465 572 LINE",
"492 460 LINE",
"558 460 LINE",
"558 648 LINE",
"5 648 LINE",
"5 460 LINE",
"71 460 LINE",
"98 572 LINE",
"212 572 LINE",
"212 75 LINE",
"132 56 LINE",
"132 0 LINE"
);
}
);
width = 563;
},
{
anchors = (
{
name = bottom;
position = "{271, 0}";
},
{
name = center;
position = "{271, 324}";
},
{
name = top;
position = "{271, 648}";
}
);
layerId = "fce2a917-1261-4b8f-a12a-6bbc6dc19885";
paths = (
{
closed = 1;
nodes = (
"396 0 LINE",
"396 44 LINE",
"314 59 LINE",
"314 590 LINE",
"457 590 LINE",
"477 484 LINE",
"526 484 LINE",
"526 648 LINE",
"15 648 LINE",
"15 484 LINE",
"64 484 LINE",
"85 590 LINE",
"227 590 LINE",
"227 59 LINE",
"145 44 LINE",
"145 0 LINE"
);
}
);
width = 541;
},
{
anchors = (
{
name = bottom;
position = "{269, 0}";
},
{
name = center;
position = "{269, 324}";
},
{
name = top;
position = "{269, 648}";
}
);
layerId = "4c090d2b-0954-42f9-b8fa-9b61004e66c3";
paths = (
{
closed = 1;
nodes = (
"386 0 LINE",
"386 41 LINE",
"303 55 LINE",
"303 597 LINE",
"455 597 LINE",
"473 490 LINE",
"518 490 LINE",
"518 648 LINE",
"18 648 LINE",
"18 490 LINE",
"62 490 LINE",
"82 597 LINE",
"232 597 LINE",
"232 55 LINE",
"149 41 LINE",
"149 0 LINE"
);
}
);
width = 535;
},
{
anchors = (
{
name = bottom;
position = "{282, 0}";
},
{
name = center;
position = "{282, 324}";
},
{
name = top;
position = "{282, 648}";
}
);
layerId = "5be9d440-7da3-4849-9ff3-c66a194b28b9";
paths = (
{
closed = 1;
nodes = (
"447 0 LINE",
"447 60 LINE",
"368 80 LINE",
"368 564 LINE",
"468 564 LINE",
"497 452 LINE",
"569 452 LINE",
"569 648 LINE",
"2 648 LINE",
"2 452 LINE",
"73 452 LINE",
"102 564 LINE",
"207 564 LINE",
"207 80 LINE",
"128 60 LINE",
"128 0 LINE"
);
}
);
width = 570;
},
{
anchors = (
{
name = bottom;
position = "{273, 0}";
},
{
name = center;
position = "{273, 324}";
},
{
name = top;
position = "{273, 648}";
}
);
layerId = "634A4682-752C-4BE1-9291-605804ACC698";
paths = (
{
closed = 1;
nodes = (
"407 0 LINE",
"407 48 LINE",
"326 64 LINE",
"326 585 LINE",
"459 585 LINE",
"482 477 LINE",
"536 477 LINE",
"536 648 LINE",
"12 648 LINE",
"12 477 LINE",
"66 477 LINE",
"89 585 LINE",
"222 585 LINE",
"222 64 LINE",
"141 48 LINE",
"141 0 LINE"
);
}
);
width = 548;
}
);
leftKerningGroup = T;
rightKerningGroup = T;
unicode = 0054;
},
{
glyphname = Tcedilla;
layers = (
{
background = {
paths = (
{
closed = 1;
nodes = (
"358 -194 OFFCURVE",
"400 -163 OFFCURVE",
"400 -104 CURVE SMOOTH",
"400 -58 OFFCURVE",
"373 -45 OFFCURVE",
"332 -35 CURVE SMOOTH",
"311 -30 LINE",
"311 0 LINE",
"439 0 LINE",
"439 56 LINE",
"359 75 LINE",
"359 572 LINE",
"470 572 LINE",
"497 460 LINE",
"563 460 LINE",
"563 648 LINE",
"10 648 LINE",
"10 460 LINE",
"76 460 LINE",
"103 572 LINE",
"217 572 LINE",
"217 75 LINE",
"137 56 LINE",
"137 0 LINE",
"262 0 LINE",
"233 -64 LINE",
"256 -87 LINE",
"285 -93 LINE SMOOTH",
"301 -96 OFFCURVE",
"308 -102 OFFCURVE",
"308 -116 CURVE SMOOTH",
"308 -137 OFFCURVE",
"293 -141 OFFCURVE",
"273 -141 CURVE SMOOTH",
"251 -141 OFFCURVE",
"235 -138 OFFCURVE",
"212 -128 CURVE",
"192 -175 LINE",
"217 -188 OFFCURVE",
"239 -194 OFFCURVE",
"276 -194 CURVE"
);
}
);
};
components = (
{
name = T;
},
{
name = cedillacomb.case;
transform = "{1, 0, 0, 1, 183, 0}";
}
);
layerId = "f777c4c2-d323-4068-8b89-2bd904ae3831";
width = 563;
},
{
background = {
paths = (
{
closed = 1;
nodes = (
"319 -187 OFFCURVE",
"382 -166 OFFCURVE",
"382 -96 CURVE SMOOTH",
"382 -52 OFFCURVE",
"348 -42 OFFCURVE",
"310 -33 CURVE SMOOTH",
"293 -29 LINE",
"293 0 LINE",
"396 0 LINE",
"396 44 LINE",
"314 59 LINE",
"314 590 LINE",
"457 590 LINE",
"477 484 LINE",
"526 484 LINE",
"526 648 LINE",
"15 648 LINE",
"15 484 LINE",
"64 484 LINE",
"85 590 LINE",
"227 590 LINE",
"227 59 LINE",
"145 44 LINE",
"145 0 LINE",
"252 0 LINE",
"227 -59 LINE",
"246 -78 LINE",
"283 -86 LINE SMOOTH",
"303 -90 OFFCURVE",
"314 -93 OFFCURVE",
"314 -115 CURVE SMOOTH",
"314 -135 OFFCURVE",
"294 -145 OFFCURVE",
"255 -145 CURVE SMOOTH",
"232 -145 OFFCURVE",
"216 -140 OFFCURVE",
"201 -134 CURVE",
"185 -171 LINE",
"208 -181 OFFCURVE",
"228 -187 OFFCURVE",
"259 -187 CURVE"
);
}
);
};
components = (
{
name = T;
},
{
name = cedillacomb.case;
transform = "{1, 0, 0, 1, 180, 0}";
}
);
layerId = "fce2a917-1261-4b8f-a12a-6bbc6dc19885";
width = 541;
},
{
background = {
paths = (
{
closed = 1;
nodes = (
"309 -185 OFFCURVE",
"377 -167 OFFCURVE",
"377 -94 CURVE SMOOTH",
"377 -50 OFFCURVE",
"342 -41 OFFCURVE",
"304 -32 CURVE SMOOTH",
"288 -29 LINE",
"288 0 LINE",
"385 0 LINE",
"385 41 LINE",
"302 55 LINE",
"302 595 LINE",
"454 595 LINE",
"472 490 LINE",
"516 490 LINE",
"516 648 LINE",
"16 648 LINE",
"16 490 LINE",
"61 490 LINE",
"80 595 LINE",
"230 595 LINE",
"230 55 LINE",
"147 41 LINE",
"147 0 LINE",
"249 0 LINE",
"225 -58 LINE",
"243 -76 LINE",
"282 -84 LINE SMOOTH",
"304 -88 OFFCURVE",
"316 -91 OFFCURVE",
"316 -115 CURVE SMOOTH",
"316 -134 OFFCURVE",
"294 -146 OFFCURVE",
"250 -146 CURVE SMOOTH",
"227 -146 OFFCURVE",
"211 -141 OFFCURVE",
"198 -136 CURVE",
"183 -170 LINE",
"206 -179 OFFCURVE",
"225 -185 OFFCURVE",
"255 -185 CURVE"
);
}
);
};
components = (
{
name = T;
},
{
name = cedillacomb.case;
transform = "{1, 0, 0, 1, 182, 0}";
}
);
layerId = "4c090d2b-0954-42f9-b8fa-9b61004e66c3";
width = 535;
},
{
background = {
paths = (
{
closed = 1;
nodes = (
"371 -196 OFFCURVE",
"406 -162 OFFCURVE",
"406 -107 CURVE SMOOTH",
"406 -60 OFFCURVE",
"382 -46 OFFCURVE",
"339 -36 CURVE SMOOTH",
"317 -30 LINE",
"317 0 LINE",
"454 0 LINE",
"454 60 LINE",
"374 80 LINE",
"374 566 LINE",
"474 566 LINE",
"504 452 LINE",
"576 452 LINE",
"576 648 LINE",
"8 648 LINE",
"8 452 LINE",
"80 452 LINE",
"109 566 LINE",
"214 566 LINE",
"214 80 LINE",
"134 60 LINE",
"134 0 LINE",
"265 0 LINE",
"235 -66 LINE",
"259 -90 LINE",
"286 -95 LINE SMOOTH",
"300 -98 OFFCURVE",
"306 -105 OFFCURVE",
"306 -116 CURVE SMOOTH",
"306 -138 OFFCURVE",
"293 -140 OFFCURVE",
"279 -140 CURVE SMOOTH",
"257 -140 OFFCURVE",
"241 -137 OFFCURVE",
"216 -126 CURVE",
"194 -176 LINE",
"220 -190 OFFCURVE",
"243 -196 OFFCURVE",
"282 -196 CURVE"
);
}
);
};
components = (
{
name = T;
},
{
name = cedillacomb.case;
transform = "{1, 0, 0, 1, 192, 0}";
}
);
layerId = "5be9d440-7da3-4849-9ff3-c66a194b28b9";
width = 570;
},
{
components = (
{
name = T;
},
{
name = cedillacomb.case;
transform = "{1, 0, 0, 1, 180, 0}";
}
);
layerId = "634A4682-752C-4BE1-9291-605804ACC698";
width = 548;
}
);
leftKerningGroup = T;
rightKerningGroup = T;
unicode = 0162;
},
{
glyphname = U;
layers = (
{
anchors = (
{
name = bottom;
position = "{342, 0}";
},
{
name = ogonek;
position = "{484, 0}";
},
{
name = top;
position = "{342, 648}";
},
{
name = topright;
position = "{681, 648}";
}
);
layerId = "f777c4c2-d323-4068-8b89-2bd904ae3831";
paths = (
{
closed = 1;
nodes = (
"540 -18 OFFCURVE",
"601 71 OFFCURVE",
"601 278 CURVE SMOOTH",
"601 573 LINE",
"681 591 LINE",
"681 648 LINE",
"422 648 LINE",
"422 591 LINE",
"501 573 LINE",
"501 278 LINE SMOOTH",
"501 108 OFFCURVE",
"467 69 OFFCURVE",
"371 69 CURVE SMOOTH",
"260 69 OFFCURVE",
"225 103 OFFCURVE",
"225 278 CURVE SMOOTH",
"225 573 LINE",
"299 592 LINE",
"299 648 LINE",
"3 648 LINE",
"3 592 LINE",
"83 573 LINE",
"83 278 LINE SMOOTH",
"83 60 OFFCURVE",
"147 -18 OFFCURVE",
"352 -18 CURVE SMOOTH"
);
}
);
width = 684;
},
{
anchors = (
{
name = bottom;
position = "{361, 0}";
},
{
name = ogonek;
position = "{481, 0}";
},
{
name = top;
position = "{361, 648}";
},
{
name = topright;
position = "{692, 648}";
}
);
layerId = "fce2a917-1261-4b8f-a12a-6bbc6dc19885";
paths = (
{
closed = 1;
nodes = (
"562 -13 OFFCURVE",
"610 88 OFFCURVE",
"610 278 CURVE SMOOTH",
"610 587 LINE",
"692 603 LINE",
"692 648 LINE",
"463 648 LINE",
"463 603 LINE",
"545 587 LINE",
"545 278 LINE SMOOTH",
"545 132 OFFCURVE",
"510 53 OFFCURVE",
"385 53 CURVE SMOOTH",
"243 53 OFFCURVE",
"209 101 OFFCURVE",
"209 278 CURVE SMOOTH",
"209 589 LINE",
"291 604 LINE",
"291 648 LINE",
"40 648 LINE",
"40 604 LINE",
"122 589 LINE",
"122 278 LINE SMOOTH",
"122 85 OFFCURVE",
"165 -13 OFFCURVE",
"354 -13 CURVE SMOOTH"
);
}
);
width = 732;
},
{
anchors = (
{
name = bottom;
position = "{366, 0}";
},
{
name = ogonek;
position = "{483, 0}";
},
{
name = top;
position = "{366, 648}";
},
{
name = topright;
position = "{695, 648}";
}
);
layerId = "4c090d2b-0954-42f9-b8fa-9b61004e66c3";
paths = (
{
closed = 1;
nodes = (
"571 -12 OFFCURVE",
"613 92 OFFCURVE",
"613 278 CURVE SMOOTH",
"613 591 LINE",
"695 606 LINE",
"695 648 LINE",
"474 648 LINE",
"474 606 LINE",
"557 591 LINE",
"557 278 LINE SMOOTH",
"557 130 OFFCURVE",
"524 49 OFFCURVE",
"389 49 CURVE SMOOTH",
"239 49 OFFCURVE",
"205 100 OFFCURVE",
"205 278 CURVE SMOOTH",
"205 593 LINE",
"289 607 LINE",
"289 648 LINE",
"50 648 LINE",
"50 607 LINE",
"132 593 LINE",
"132 278 LINE SMOOTH",
"132 92 OFFCURVE",
"170 -12 OFFCURVE",
"355 -12 CURVE SMOOTH"
);
}
);
width = 744;
},
{
anchors = (
{
name = bottom;
position = "{336, 0}";
},
{
name = ogonek;
position = "{484, 0}";
},
{
name = top;
position = "{336, 648}";
},
{
name = topright;
position = "{678, 648}";
}
);
layerId = "5be9d440-7da3-4849-9ff3-c66a194b28b9";
paths = (
{
closed = 1;
nodes = (
"530 -20 OFFCURVE",
"598 65 OFFCURVE",
"598 278 CURVE SMOOTH",
"598 568 LINE",
"678 587 LINE",
"678 648 LINE",
"408 648 LINE",
"408 587 LINE",
"486 568 LINE",
"486 278 LINE SMOOTH",
"486 109 OFFCURVE",
"453 74 OFFCURVE",
"367 74 CURVE SMOOTH",
"266 74 OFFCURVE",
"231 104 OFFCURVE",
"231 278 CURVE SMOOTH",
"231 568 LINE",
"302 588 LINE",
"302 648 LINE",
"-9 648 LINE",
"-9 588 LINE",
"70 568 LINE",
"70 278 LINE SMOOTH",
"70 49 OFFCURVE",
"138 -20 OFFCURVE",
"352 -20 CURVE SMOOTH"
);
}
);
width = 668;
},
{
anchors = (
{
name = bottom;
position = "{355, 0}";
},
{
name = ogonek;
position = "{482, 0}";
},
{
name = top;
position = "{355, 648}";
},
{
name = topright;
position = "{689, 648}";
}
);
layerId = "634A4682-752C-4BE1-9291-605804ACC698";
paths = (
{
closed = 1;
nodes = (
"555 -15 OFFCURVE",
"607 83 OFFCURVE",
"607 278 CURVE SMOOTH",
"607 583 LINE",
"689 599 LINE",
"689 648 LINE",
"451 648 LINE",
"451 599 LINE",
"532 583 LINE",
"532 278 LINE SMOOTH",
"532 125 OFFCURVE",
"497 58 OFFCURVE",
"381 58 CURVE SMOOTH",
"248 58 OFFCURVE",
"214 102 OFFCURVE",
"214 278 CURVE SMOOTH",
"214 584 LINE",
"293 600 LINE",
"293 648 LINE",
"29 648 LINE",
"29 600 LINE",
"110 584 LINE",
"110 278 LINE SMOOTH",
"110 78 OFFCURVE",
"160 -15 OFFCURVE",
"353 -15 CURVE SMOOTH"
);
}
);
width = 718;
}
);
leftKerningGroup = U;
rightKerningGroup = U;
unicode = 0055;
},
{
glyphname = Uhorn;
layers = (
{
anchors = (
{
name = bottom;
position = "{342, 0}";
},
{
name = top;
position = "{342, 648}";
}
);
layerId = "f777c4c2-d323-4068-8b89-2bd904ae3831";
paths = (
{
closed = 1;
nodes = (
"540 -18 OFFCURVE",
"601 71 OFFCURVE",
"601 278 CURVE SMOOTH",
"601 573 LINE",
"713 612 OFFCURVE",
"737 672 OFFCURVE",
"737 718 CURVE SMOOTH",
"737 759 OFFCURVE",
"709 775 OFFCURVE",
"704 779 CURVE",
"631 731 LINE",
"631 716 LINE",
"639 709 OFFCURVE",
"645 702 OFFCURVE",
"645 687 CURVE SMOOTH",
"645 656 OFFCURVE",
"639 648 OFFCURVE",
"576 648 CURVE SMOOTH",
"422 648 LINE",
"422 591 LINE",
"501 573 LINE",
"501 278 LINE SMOOTH",
"501 108 OFFCURVE",
"467 69 OFFCURVE",
"371 69 CURVE SMOOTH",
"260 69 OFFCURVE",
"225 103 OFFCURVE",
"225 278 CURVE SMOOTH",
"225 573 LINE",
"299 592 LINE",
"299 648 LINE",
"3 648 LINE",
"3 592 LINE",
"83 573 LINE",
"83 278 LINE SMOOTH",
"83 60 OFFCURVE",
"147 -18 OFFCURVE",
"352 -18 CURVE"
);
}
);
width = 684;
},
{
anchors = (
{
name = bottom;
position = "{361, 0}";
},
{
name = top;
position = "{361, 648}";
}
);
layerId = "fce2a917-1261-4b8f-a12a-6bbc6dc19885";
paths = (
{
closed = 1;
nodes = (
"562 -13 OFFCURVE",
"610 88 OFFCURVE",
"610 278 CURVE SMOOTH",
"610 587 LINE",
"753 615 OFFCURVE",
"785 679 OFFCURVE",
"785 714 CURVE SMOOTH",
"785 755 OFFCURVE",
"766 766 OFFCURVE",
"753 776 CURVE",
"698 737 LINE",
"698 722 LINE",
"711 713 OFFCURVE",
"719 705 OFFCURVE",
"719 688 CURVE SMOOTH",
"719 657 OFFCURVE",
"699 648 OFFCURVE",
"656 648 CURVE SMOOTH",
"463 648 LINE",
"463 603 LINE",
"545 587 LINE",
"545 278 LINE SMOOTH",
"545 132 OFFCURVE",
"510 53 OFFCURVE",
"385 53 CURVE SMOOTH",
"243 53 OFFCURVE",
"209 101 OFFCURVE",
"209 278 CURVE SMOOTH",
"209 589 LINE",
"291 604 LINE",
"291 648 LINE",
"40 648 LINE",
"40 604 LINE",
"122 589 LINE",
"122 278 LINE SMOOTH",
"122 85 OFFCURVE",
"165 -13 OFFCURVE",
"354 -13 CURVE"
);
}
);
width = 732;
},
{
anchors = (
{
name = bottom;
position = "{372, 0}";
},
{
name = top;
position = "{372, 648}";
}
);
layerId = "4c090d2b-0954-42f9-b8fa-9b61004e66c3";
paths = (
{
closed = 1;
nodes = (
"571 -12 OFFCURVE",
"613 92 OFFCURVE",
"613 278 CURVE SMOOTH",
"613 591 LINE",
"764 621 OFFCURVE",
"798 664 OFFCURVE",
"798 713 CURVE SMOOTH",
"798 754 OFFCURVE",
"781 764 OFFCURVE",
"766 775 CURVE",
"716 739 LINE",
"716 724 LINE",
"730 714 OFFCURVE",
"739 706 OFFCURVE",
"739 688 CURVE SMOOTH",
"739 657 OFFCURVE",
"715 648 OFFCURVE",
"677 648 CURVE SMOOTH",
"474 648 LINE",
"474 606 LINE",
"557 591 LINE",
"557 278 LINE SMOOTH",
"557 130 OFFCURVE",
"524 49 OFFCURVE",
"389 49 CURVE SMOOTH",
"239 49 OFFCURVE",
"205 100 OFFCURVE",
"205 278 CURVE SMOOTH",
"205 593 LINE",
"289 607 LINE",
"289 648 LINE",
"50 648 LINE",
"50 607 LINE",
"132 593 LINE",
"132 278 LINE SMOOTH",
"132 92 OFFCURVE",
"170 -12 OFFCURVE",
"355 -12 CURVE"
);
}
);
width = 744;
},
{
anchors = (
{
name = bottom;
position = "{335, 0}";
},
{
name = top;
position = "{335, 648}";
}
);
layerId = "5be9d440-7da3-4849-9ff3-c66a194b28b9";
paths = (
{
closed = 1;
nodes = (
"533 -20 OFFCURVE",
"598 65 OFFCURVE",
"598 278 CURVE SMOOTH",
"598 573 LINE",
"700 626 OFFCURVE",
"721 683 OFFCURVE",
"721 719 CURVE SMOOTH",
"721 760 OFFCURVE",
"690 778 OFFCURVE",
"688 780 CURVE",
"609 729 LINE",
"609 714 LINE",
"615 708 OFFCURVE",
"620 701 OFFCURVE",
"620 687 CURVE SMOOTH",
"620 656 OFFCURVE",
"619 648 OFFCURVE",
"549 648 CURVE SMOOTH",
"408 648 LINE",
"408 587 LINE",
"486 568 LINE",
"486 278 LINE SMOOTH",
"486 100 OFFCURVE",
"453 74 OFFCURVE",
"367 74 CURVE SMOOTH",
"266 74 OFFCURVE",
"231 104 OFFCURVE",
"231 278 CURVE SMOOTH",
"231 568 LINE",
"302 588 LINE",
"302 648 LINE",
"-9 648 LINE",
"-9 588 LINE",
"70 568 LINE",
"70 278 LINE SMOOTH",
"70 52 OFFCURVE",
"141 -20 OFFCURVE",
"352 -20 CURVE"
);
}
);
width = 669;
},
{
anchors = (
{
name = bottom;
position = "{355, 0}";
},
{
name = top;
position = "{355, 648}";
}
);
layerId = "634A4682-752C-4BE1-9291-605804ACC698";
paths = (
{
closed = 1;
nodes = (
"555 -15 OFFCURVE",
"607 83 OFFCURVE",
"607 278 CURVE SMOOTH",
"607 583 LINE",
"741 614 OFFCURVE",
"771 677 OFFCURVE",
"771 715 CURVE SMOOTH",
"771 756 OFFCURVE",
"749 769 OFFCURVE",
"738 777 CURVE",
"678 735 LINE",
"678 720 LINE",
"689 712 OFFCURVE",
"697 704 OFFCURVE",
"697 688 CURVE SMOOTH",
"697 657 OFFCURVE",
"681 648 OFFCURVE",
"632 648 CURVE SMOOTH",
"451 648 LINE",
"451 599 LINE",
"532 583 LINE",
"532 278 LINE SMOOTH",
"532 125 OFFCURVE",
"497 58 OFFCURVE",
"381 58 CURVE SMOOTH",
"248 58 OFFCURVE",
"214 102 OFFCURVE",
"214 278 CURVE SMOOTH",
"214 584 LINE",
"293 600 LINE",
"293 648 LINE",
"29 648 LINE",
"29 600 LINE",
"110 584 LINE",
"110 278 LINE SMOOTH",
"110 78 OFFCURVE",
"160 -15 OFFCURVE",
"353 -15 CURVE"
);
}
);
width = 718;
}
);
leftKerningGroup = U;
leftMetricsKey = U;
rightKerningGroup = U;
unicode = 01AF;
},
{
glyphname = Uogonek;
layers = (
{
background = {
paths = (
{
closed = 1;
nodes = (
"476 -187 OFFCURVE",
"521 -166 OFFCURVE",
"545 -136 CURVE",
"521 -95 LINE",
"503 -106 OFFCURVE",
"484 -115 OFFCURVE",
"469 -115 CURVE SMOOTH",
"443 -115 OFFCURVE",
"434 -100 OFFCURVE",
"434 -81 CURVE SMOOTH",
"434 -66 OFFCURVE",
"438 -21 OFFCURVE",
"494 13 CURVE",
"569 58 OFFCURVE",
"601 143 OFFCURVE",
"601 278 CURVE SMOOTH",
"601 573 LINE",
"681 591 LINE",
"681 648 LINE",
"422 648 LINE",
"422 591 LINE",
"501 573 LINE",
"499 278 LINE SMOOTH",
"498 108 OFFCURVE",
"472 69 OFFCURVE",
"371 69 CURVE SMOOTH",
"260 69 OFFCURVE",
"225 103 OFFCURVE",
"225 278 CURVE SMOOTH",
"225 573 LINE",
"299 592 LINE",
"299 648 LINE",
"3 648 LINE",
"3 592 LINE",
"83 573 LINE",
"83 278 LINE SMOOTH",
"83 60 OFFCURVE",
"147 -18 OFFCURVE",
"352 -18 CURVE SMOOTH",
"367 -18 OFFCURVE",
"381 -17 OFFCURVE",
"394 -16 CURVE",
"365 -40 OFFCURVE",
"341 -72 OFFCURVE",
"341 -113 CURVE SMOOTH",
"341 -162 OFFCURVE",
"382 -187 OFFCURVE",
"438 -187 CURVE"
);
}
);
};
components = (
{
name = U;
},
{
name = ogonekcomb.case;
transform = "{1, 0, 0, 1, 342, 0}";
}
);
layerId = "f777c4c2-d323-4068-8b89-2bd904ae3831";
width = 684;
},
{
background = {
paths = (
{
closed = 1;
nodes = (
"490 -187 OFFCURVE",
"530 -158 OFFCURVE",
"549 -136 CURVE",
"531 -106 LINE",
"512 -117 OFFCURVE",
"490 -127 OFFCURVE",
"474 -127 CURVE SMOOTH",
"446 -127 OFFCURVE",
"431 -113 OFFCURVE",
"431 -83 CURVE SMOOTH",
"431 -39 OFFCURVE",
"490 3 OFFCURVE",
"504 13 CURVE",
"591 54 OFFCURVE",
"615 144 OFFCURVE",
"615 278 CURVE SMOOTH",
"615 587 LINE",
"697 603 LINE",
"697 648 LINE",
"468 648 LINE",
"468 603 LINE",
"550 587 LINE",
"550 278 LINE SMOOTH",
"550 132 OFFCURVE",
"515 53 OFFCURVE",
"390 53 CURVE SMOOTH",
"248 53 OFFCURVE",
"214 101 OFFCURVE",
"214 278 CURVE SMOOTH",
"214 589 LINE",
"296 604 LINE",
"296 648 LINE",
"45 648 LINE",
"45 604 LINE",
"127 589 LINE",
"127 278 LINE SMOOTH",
"127 85 OFFCURVE",
"170 -13 OFFCURVE",
"359 -13 CURVE SMOOTH",
"384 -13 OFFCURVE",
"406 -12 OFFCURVE",
"427 -9 CURVE",
"393 -33 OFFCURVE",
"365 -68 OFFCURVE",
"365 -113 CURVE SMOOTH",
"365 -162 OFFCURVE",
"400 -187 OFFCURVE",
"448 -187 CURVE"
);
}
);
};
components = (
{
name = U;
},
{
name = ogonekcomb.case;
transform = "{1, 0, 0, 1, 360, 0}";
}
);
layerId = "fce2a917-1261-4b8f-a12a-6bbc6dc19885";
width = 732;
},
{
background = {
paths = (
{
closed = 1;
nodes = (
"494 -187 OFFCURVE",
"532 -156 OFFCURVE",
"550 -136 CURVE",
"534 -109 LINE",
"514 -120 OFFCURVE",
"492 -130 OFFCURVE",
"475 -130 CURVE SMOOTH",
"447 -130 OFFCURVE",
"430 -116 OFFCURVE",
"430 -84 CURVE SMOOTH",
"430 -32 OFFCURVE",
"504 9 OFFCURVE",
"507 13 CURVE",
"597 53 OFFCURVE",
"619 144 OFFCURVE",
"619 278 CURVE SMOOTH",
"619 591 LINE",
"701 606 LINE",
"701 648 LINE",
"480 648 LINE",
"480 606 LINE",
"563 591 LINE",
"563 278 LINE",
"564 138 OFFCURVE",
"526 49 OFFCURVE",
"395 49 CURVE SMOOTH",
"245 49 OFFCURVE",
"211 100 OFFCURVE",
"211 278 CURVE SMOOTH",
"211 593 LINE",
"295 607 LINE",
"295 648 LINE",
"56 648 LINE",
"56 607 LINE",
"138 593 LINE",
"138 278 LINE SMOOTH",
"138 92 OFFCURVE",
"176 -12 OFFCURVE",
"361 -12 CURVE SMOOTH",
"388 -12 OFFCURVE",
"413 -11 OFFCURVE",
"436 -7 CURVE",
"400 -31 OFFCURVE",
"371 -67 OFFCURVE",
"371 -113 CURVE SMOOTH",
"371 -162 OFFCURVE",
"405 -187 OFFCURVE",
"451 -187 CURVE"
);
}
);
};
components = (
{
name = U;
},
{
name = ogonekcomb.case;
transform = "{1, 0, 0, 1, 366, 0}";
}
);
layerId = "4c090d2b-0954-42f9-b8fa-9b61004e66c3";
width = 744;
},
{
background = {
paths = (
{
closed = 1;
nodes = (
"471 -187 OFFCURVE",
"518 -169 OFFCURVE",
"544 -136 CURVE",
"518 -91 LINE",
"500 -102 OFFCURVE",
"482 -111 OFFCURVE",
"467 -111 CURVE SMOOTH",
"442 -111 OFFCURVE",
"435 -96 OFFCURVE",
"435 -80 CURVE SMOOTH",
"435 -75 OFFCURVE",
"420 -29 OFFCURVE",
"491 13 CURVE",
"562 59 OFFCURVE",
"596 143 OFFCURVE",
"596 278 CURVE SMOOTH",
"596 568 LINE",
"676 587 LINE",
"676 648 LINE",
"406 648 LINE",
"406 587 LINE",
"484 568 LINE",
"482 278 LINE SMOOTH",
"480 100 OFFCURVE",
"457 74 OFFCURVE",
"365 74 CURVE SMOOTH",
"264 74 OFFCURVE",
"229 104 OFFCURVE",
"229 278 CURVE SMOOTH",
"229 568 LINE",
"300 588 LINE",
"300 648 LINE",
"-11 648 LINE",
"-11 588 LINE",
"68 568 LINE",
"68 278 LINE SMOOTH",
"68 52 OFFCURVE",
"139 -20 OFFCURVE",
"350 -20 CURVE SMOOTH",
"361 -20 OFFCURVE",
"373 -19 OFFCURVE",
"383 -18 CURVE",
"355 -42 OFFCURVE",
"333 -73 OFFCURVE",
"333 -113 CURVE SMOOTH",
"333 -162 OFFCURVE",
"376 -187 OFFCURVE",
"435 -187 CURVE"
);
}
);
};
components = (
{
name = U;
},
{
name = ogonekcomb.case;
transform = "{1, 0, 0, 1, 334, 0}";
}
);
layerId = "5be9d440-7da3-4849-9ff3-c66a194b28b9";
width = 668;
},
{
components = (
{
name = U;
},
{
name = ogonekcomb.case;
transform = "{1, 0, 0, 1, 355, 0}";
}
);
layerId = "634A4682-752C-4BE1-9291-605804ACC698";
width = 718;
}
);
leftKerningGroup = U;
rightKerningGroup = U;
unicode = 0172;
},
{
glyphname = V;
layers = (
{
anchors = (
{
name = bottom;
position = "{306, 0}";
},
{
name = top;
position = "{306, 648}";
}
);
layerId = "f777c4c2-d323-4068-8b89-2bd904ae3831";
paths = (
{
closed = 1;
nodes = (
"375 -12 LINE",
"574 574 LINE",
"640 591 LINE",
"640 648 LINE",
"394 648 LINE",
"394 589 LINE",
"477 574 LINE",
"346 173 LINE",
"342 146 LINE",
"337 146 LINE",
"334 173 LINE",
"211 574 LINE",
"292 589 LINE",
"292 648 LINE",
"-18 648 LINE",
"-18 591 LINE",
"50 574 LINE",
"265 -12 LINE"
);
}
);
width = 622;
},
{
anchors = (
{
name = bottom;
position = "{303, 0}";
},
{
name = top;
position = "{303, 648}";
}
);
background = {
paths = (
{
closed = 1;
nodes = (
"332 -5 LINE",
"552 591 LINE",
"611 607 LINE",
"611 648 LINE",
"400 648 LINE",
"400 607 LINE",
"480 591 LINE",
"480 573 LINE",
"334 159 LINE",
"320 121 LINE",
"308 155 LINE",
"156 576 LINE",
"156 591 LINE",
"231 607 LINE",
"231 648 LINE",
"-9 648 LINE",
"-9 607 LINE",
"52 591 LINE",
"283 -5 LINE"
);
}
);
};
layerId = "fce2a917-1261-4b8f-a12a-6bbc6dc19885";
paths = (
{
closed = 1;
nodes = (
"334 -5 LINE",
"554 591 LINE",
"613 607 LINE",
"613 648 LINE",
"402 648 LINE",
"402 607 LINE",
"488 590 LINE",
"336 159 LINE",
"324 121 LINE",
"320 121 LINE",
"308 159 LINE",
"153 590 LINE",
"233 607 LINE",
"233 648 LINE",
"-7 648 LINE",
"-7 607 LINE",
"54 591 LINE",
"285 -5 LINE"
);
}
);
width = 602;
},
{
anchors = (
{
name = bottom;
position = "{301, 0}";
},
{
name = top;
position = "{301, 648}";
}
);
layerId = "4c090d2b-0954-42f9-b8fa-9b61004e66c3";
paths = (
{
closed = 1;
nodes = (
"323 -3 LINE",
"547 595 LINE",
"605 612 LINE",
"605 648 LINE",
"403 648 LINE",
"403 612 LINE",
"486 594 LINE",
"330 155 LINE",
"317 115 LINE",
"313 115 LINE",
"299 155 LINE",
"141 594 LINE",
"217 612 LINE",
"217 648 LINE",
"-5 648 LINE",
"-5 612 LINE",
"56 595 LINE",
"288 -3 LINE"
);
}
);
width = 597;
},
{
anchors = (
{
name = bottom;
position = "{307, 0}";
},
{
name = top;
position = "{307, 648}";
}
);
layerId = "5be9d440-7da3-4849-9ff3-c66a194b28b9";
paths = (
{
closed = 1;
nodes = (
"389 -14 LINE",
"578 568 LINE",
"650 587 LINE",
"650 648 LINE",
"392 648 LINE",
"392 586 LINE",
"473 568 LINE",
"353 173 LINE",
"350 149 LINE",
"344 149 LINE",
"342 173 LINE",
"230 568 LINE",
"312 586 LINE",
"312 648 LINE",
"-21 648 LINE",
"-21 587 LINE",
"49 568 LINE",
"253 -14 LINE"
);
}
);
width = 629;
},
{
anchors = (
{
name = bottom;
position = "{304, 0}";
},
{
name = top;
position = "{304, 648}";
}
);
layerId = "634A4682-752C-4BE1-9291-605804ACC698";
paths = (
{
closed = 1;
nodes = (
"346 -7 LINE",
"560 586 LINE",
"621 602 LINE",
"621 648 LINE",
"400 648 LINE",
"400 602 LINE",
"485 585 LINE",
"339 163 LINE",
"329 129 LINE",
"325 129 LINE",
"316 163 LINE",
"170 585 LINE",
"251 602 LINE",
"251 648 LINE",
"-10 648 LINE",
"-10 602 LINE",
"53 586 LINE",
"279 -7 LINE"
);
}
);
width = 608;
}
);
leftKerningGroup = V;
rightKerningGroup = V;
unicode = 0056;
},
{
glyphname = W;
layers = (
{
anchors = (
{
name = bottom;
position = "{500, 0}";
},
{
name = top;
position = "{522, 648}";
}
);
layerId = "f777c4c2-d323-4068-8b89-2bd904ae3831";
paths = (
{
closed = 1;
nodes = (
"358 -12 LINE",
"500 373 LINE",
"508 407 LINE",
"513 407 LINE",
"521 373 LINE",
"671 -12 LINE",
"799 -12 LINE",
"962 574 LINE",
"1026 586 LINE",
"1026 648 LINE",
"770 648 LINE",
"770 586 LINE",
"858 574 LINE",
"762 184 LINE",
"755 146 LINE",
"749 146 LINE",
"740 184 LINE",
"590 574 LINE",
"676 586 LINE",
"676 648 LINE",
"375 648 LINE",
"375 587 LINE",
"452 574 LINE",
"465 542 LINE",
"338 184 LINE",
"324 136 LINE",
"318 136 LINE",
"307 184 LINE",
"198 574 LINE",
"283 586 LINE",
"283 648 LINE",
"-18 648 LINE",
"-18 587 LINE",
"48 574 LINE",
"230 -12 LINE"
);
}
);
width = 1008;
},
{
anchors = (
{
name = bottom;
position = "{466, 0}";
},
{
name = top;
position = "{466, 648}";
}
);
layerId = "fce2a917-1261-4b8f-a12a-6bbc6dc19885";
paths = (
{
closed = 1;
nodes = (
"308 -5 LINE",
"463 402 LINE",
"470 431 LINE",
"477 431 LINE",
"484 403 LINE",
"636 -5 LINE",
"695 -5 LINE",
"879 591 LINE",
"938 607 LINE",
"938 648 LINE",
"727 648 LINE",
"727 607 LINE",
"816 590 LINE",
"689 153 LINE",
"679 117 LINE",
"671 117 LINE",
"661 153 LINE",
"507 590 LINE",
"593 607 LINE",
"593 648 LINE",
"340 648 LINE",
"340 607 LINE",
"415 591 LINE",
"443 515 LINE",
"309 153 LINE",
"297 115 LINE",
"291 115 LINE",
"282 152 LINE",
"148 590 LINE",
"233 607 LINE",
"233 648 LINE",
"-7 648 LINE",
"-7 607 LINE",
"54 591 LINE",
"249 -5 LINE"
);
}
);
width = 927;
},
{
anchors = (
{
name = bottom;
position = "{453, 0}";
},
{
name = top;
position = "{448, 648}";
}
);
layerId = "4c090d2b-0954-42f9-b8fa-9b61004e66c3";
paths = (
{
closed = 1;
nodes = (
"300 -3 LINE",
"450 407 LINE",
"457 437 LINE",
"462 437 LINE",
"469 407 LINE",
"628 -3 LINE",
"673 -3 LINE",
"849 595 LINE",
"910 612 LINE",
"910 648 LINE",
"705 648 LINE",
"705 612 LINE",
"792 594 LINE",
"667 148 LINE",
"657 110 LINE",
"651 110 LINE",
"639 148 LINE",
"475 593 LINE",
"568 612 LINE",
"568 648 LINE",
"324 648 LINE",
"324 612 LINE",
"400 595 LINE",
"432 504 LINE",
"302 148 LINE",
"289 106 LINE",
"284 106 LINE",
"273 146 LINE",
"130 594 LINE",
"218 612 LINE",
"218 648 LINE",
"-5 648 LINE",
"-5 612 LINE",
"55 595 LINE",
"252 -3 LINE"
);
}
);
width = 902;
},
{
anchors = (
{
name = bottom;
position = "{512, 0}";
},
{
name = top;
position = "{542, 648}";
}
);
layerId = "5be9d440-7da3-4849-9ff3-c66a194b28b9";
paths = (
{
closed = 1;
nodes = (
"365 -14 LINE",
"504 361 LINE",
"514 406 LINE",
"522 406 LINE",
"532 361 LINE",
"684 -14 LINE",
"828 -14 LINE",
"991 571 LINE",
"1056 582 LINE",
"1056 648 LINE",
"785 648 LINE",
"785 579 LINE",
"879 568 LINE",
"792 202 LINE",
"783 155 LINE",
"774 155 LINE",
"763 201 LINE",
"620 568 LINE",
"703 579 LINE",
"703 648 LINE",
"386 648 LINE",
"386 580 LINE",
"458 568 LINE",
"465 551 LINE",
"344 210 LINE",
"331 163 LINE",
"322 163 LINE",
"313 210 LINE",
"219 568 LINE",
"300 579 LINE",
"300 648 LINE",
"-21 648 LINE",
"-21 587 LINE",
"42 575 LINE",
"226 -14 LINE"
);
}
);
width = 1035;
},
{
anchors = (
{
name = bottom;
position = "{476, 0}";
},
{
name = top;
position = "{483, 648}";
}
);
layerId = "634A4682-752C-4BE1-9291-605804ACC698";
paths = (
{
closed = 1;
nodes = (
"323 -7 LINE",
"474 393 LINE",
"481 424 LINE",
"488 424 LINE",
"495 394 LINE",
"647 -7 LINE",
"726 -7 LINE",
"904 586 LINE",
"964 601 LINE",
"964 648 LINE",
"740 648 LINE",
"740 601 LINE",
"829 585 LINE",
"711 162 LINE",
"702 126 LINE",
"694 126 LINE",
"685 162 LINE",
"532 585 LINE",
"618 601 LINE",
"618 648 LINE",
"351 648 LINE",
"351 601 LINE",
"426 586 LINE",
"450 523 LINE",
"318 162 LINE",
"305 121 LINE",
"299 121 LINE",
"290 162 LINE",
"163 585 LINE",
"248 601 LINE",
"248 648 LINE",
"-10 648 LINE",
"-10 601 LINE",
"52 586 LINE",
"243 -7 LINE"
);
}
);
width = 951;
}
);
leftKerningGroup = V;
leftMetricsKey = V;
rightKerningGroup = V;
rightMetricsKey = V;
unicode = 0057;
},
{
glyphname = X;
layers = (
{
anchors = (
{
name = bottom;
position = "{281, 0}";
},
{
name = top;
position = "{344, 648}";
}
);
background = {
paths = (
{
closed = 1;
nodes = (
"250 326 LINE",
"70 74 LINE",
"-14 56 LINE",
"-14 0 LINE",
"231 0 LINE",
"231 56 LINE",
"175 70 LINE",
"175 82 LINE",
"298 254 LINE"
);
},
{
closed = 1;
nodes = (
"240 562 LINE",
"240 576 LINE",
"307 592 LINE",
"307 648 LINE",
"-4 648 LINE",
"-4 592 LINE",
"68 575 LINE",
"394 83 LINE",
"394 71 LINE",
"331 56 LINE",
"331 0 LINE",
"634 0 LINE",
"634 56 LINE",
"562 73 LINE"
);
},
{
closed = 1;
nodes = (
"372 334 LINE",
"552 573 LINE",
"625 592 LINE",
"625 648 LINE",
"380 648 LINE",
"380 592 LINE",
"447 577 LINE",
"447 567 LINE",
"325 405 LINE"
);
}
);
};
layerId = "f777c4c2-d323-4068-8b89-2bd904ae3831";
paths = (
{
closed = 1;
nodes = (
"634 0 LINE",
"634 56 LINE",
"562 73 LINE",
"239 562 LINE",
"239 576 LINE",
"307 592 LINE",
"307 648 LINE",
"-4 648 LINE",
"-4 592 LINE",
"68 575 LINE",
"394 83 LINE",
"394 71 LINE",
"331 56 LINE",
"331 0 LINE"
);
},
{
closed = 1;
nodes = (
"243 0 LINE",
"243 56 LINE",
"174 70 LINE",
"174 82 LINE",
"297 254 LINE",
"250 326 LINE",
"70 74 LINE",
"-14 56 LINE",
"-14 0 LINE"
);
},
{
closed = 1;
nodes = (
"552 573 LINE",
"625 592 LINE",
"625 648 LINE",
"380 648 LINE",
"380 592 LINE",
"451 577 LINE",
"451 567 LINE",
"330 405 LINE",
"373 334 LINE"
);
}
);
width = 620;
},
{
anchors = (
{
name = bottom;
position = "{279, 0}";
},
{
name = top;
position = "{305, 648}";
}
);
layerId = "fce2a917-1261-4b8f-a12a-6bbc6dc19885";
paths = (
{
closed = 1;
nodes = (
"602 0 LINE",
"602 45 LINE",
"531 59 LINE",
"175 571 LINE",
"175 590 LINE",
"246 603 LINE",
"246 648 LINE",
"4 648 LINE",
"4 603 LINE",
"67 582 LINE",
"422 71 LINE",
"422 59 LINE",
"350 45 LINE",
"350 0 LINE"
);
},
{
closed = 1;
nodes = (
"207 0 LINE",
"207 43 LINE",
"143 56 LINE",
"143 74 LINE",
"290 285 LINE",
"254 335 LINE",
"62 58 LINE",
"-1 45 LINE",
"-1 0 LINE"
);
},
{
closed = 1;
nodes = (
"522 592 LINE",
"588 606 LINE",
"588 648 LINE",
"367 648 LINE",
"367 605 LINE",
"438 592 LINE",
"438 574 LINE",
"300 381 LINE",
"333 329 LINE"
);
}
);
width = 593;
},
{
anchors = (
{
name = bottom;
position = "{281, 0}";
},
{
name = top;
position = "{298, 648}";
}
);
layerId = "4c090d2b-0954-42f9-b8fa-9b61004e66c3";
paths = (
{
closed = 1;
nodes = (
"588 0 LINE",
"588 42 LINE",
"523 55 LINE",
"166 573 LINE",
"166 594 LINE",
"224 606 LINE",
"224 648 LINE",
"13 648 LINE",
"13 606 LINE",
"77 584 LINE",
"433 68 LINE",
"433 56 LINE",
"358 42 LINE",
"358 0 LINE"
);
},
{
closed = 1;
nodes = (
"202 0 LINE",
"202 40 LINE",
"136 52 LINE",
"136 69 LINE",
"287 289 LINE",
"257 337 LINE",
"63 54 LINE",
"8 42 LINE",
"8 0 LINE"
);
},
{
closed = 1;
nodes = (
"519 597 LINE",
"579 610 LINE",
"579 648 LINE",
"371 648 LINE",
"371 608 LINE",
"442 596 LINE",
"442 576 LINE",
"295 371 LINE",
"322 323 LINE"
);
}
);
width = 586;
},
{
anchors = (
{
name = bottom;
position = "{283, 0}";
},
{
name = top;
position = "{359, 648}";
}
);
layerId = "5be9d440-7da3-4849-9ff3-c66a194b28b9";
paths = (
{
closed = 1;
nodes = (
"647 0 LINE",
"647 60 LINE",
"586 78 LINE",
"262 559 LINE",
"261 571 LINE",
"330 588 LINE",
"330 648 LINE",
"-4 648 LINE",
"-4 588 LINE",
"64 573 LINE",
"392 87 LINE",
"392 75 LINE",
"331 60 LINE",
"331 0 LINE"
);
},
{
closed = 1;
nodes = (
"255 0 LINE",
"255 60 LINE",
"185 75 LINE",
"185 85 LINE",
"302 246 LINE",
"253 323 LINE",
"74 79 LINE",
"-17 60 LINE",
"-17 0 LINE"
);
},
{
closed = 1;
nodes = (
"560 567 LINE",
"640 587 LINE",
"640 648 LINE",
"387 648 LINE",
"387 588 LINE",
"453 572 LINE",
"453 565 LINE",
"340 415 LINE",
"388 339 LINE"
);
}
);
width = 629;
},
{
anchors = (
{
name = bottom;
position = "{280, 0}";
},
{
name = top;
position = "{317, 648}";
}
);
layerId = "634A4682-752C-4BE1-9291-605804ACC698";
paths = (
{
closed = 1;
nodes = (
"612 0 LINE",
"612 48 LINE",
"540 63 LINE",
"194 568 LINE",
"194 586 LINE",
"264 600 LINE",
"264 648 LINE",
"2 648 LINE",
"2 600 LINE",
"67 580 LINE",
"414 75 LINE",
"414 63 LINE",
"344 48 LINE",
"344 0 LINE"
);
},
{
closed = 1;
nodes = (
"218 0 LINE",
"218 47 LINE",
"152 60 LINE",
"152 76 LINE",
"292 276 LINE",
"253 332 LINE",
"64 63 LINE",
"-5 48 LINE",
"-5 0 LINE"
);
},
{
closed = 1;
nodes = (
"531 586 LINE",
"599 602 LINE",
"599 648 LINE",
"371 648 LINE",
"371 601 LINE",
"442 588 LINE",
"442 572 LINE",
"309 388 LINE",
"345 331 LINE"
);
}
);
width = 601;
}
);
leftKerningGroup = X;
rightKerningGroup = X;
unicode = 0058;
},
{
glyphname = Y;
layers = (
{
anchors = (
{
name = bottom;
position = "{309, 0}";
},
{
name = top;
position = "{326, 648}";
}
);
layerId = "f777c4c2-d323-4068-8b89-2bd904ae3831";
paths = (
{
closed = 1;
nodes = (
"460 0 LINE",
"460 56 LINE",
"380 75 LINE",
"380 249 LINE",
"556 574 LINE",
"628 592 LINE",
"628 648 LINE",
"381 648 LINE",
"381 592 LINE",
"457 576 LINE",
"457 568 LINE",
"333 327 LINE",
"325 327 LINE",
"204 562 LINE",
"204 577 LINE",
"267 592 LINE",
"267 648 LINE",
"-15 648 LINE",
"-15 592 LINE",
"50 576 LINE",
"238 249 LINE",
"238 75 LINE",
"158 56 LINE",
"158 0 LINE"
);
}
);
width = 613;
},
{
anchors = (
{
name = bottom;
position = "{297, 0}";
},
{
name = top;
position = "{308, 648}";
}
);
layerId = "fce2a917-1261-4b8f-a12a-6bbc6dc19885";
paths = (
{
closed = 1;
nodes = (
"422 0 LINE",
"422 44 LINE",
"340 59 LINE",
"340 248 LINE",
"532 591 LINE",
"592 607 LINE",
"592 648 LINE",
"381 648 LINE",
"381 607 LINE",
"460 591 LINE",
"460 573 LINE",
"311 293 LINE",
"307 293 LINE",
"159 573 LINE",
"159 591 LINE",
"234 607 LINE",
"234 648 LINE",
"-7 648 LINE",
"-7 607 LINE",
"55 591 LINE",
"253 236 LINE",
"253 59 LINE",
"171 44 LINE",
"171 0 LINE"
);
}
);
width = 584;
},
{
anchors = (
{
name = bottom;
position = "{296, 0}";
},
{
name = top;
position = "{306, 648}";
}
);
layerId = "4c090d2b-0954-42f9-b8fa-9b61004e66c3";
paths = (
{
closed = 1;
nodes = (
"414 0 LINE",
"414 41 LINE",
"332 55 LINE",
"332 237 LINE",
"535 597 LINE",
"580 611 LINE",
"580 648 LINE",
"381 648 LINE",
"381 611 LINE",
"462 595 LINE",
"462 577 LINE",
"305 287 LINE",
"302 287 LINE",
"139 576 LINE",
"139 595 LINE",
"226 611 LINE",
"226 648 LINE",
"-3 648 LINE",
"-3 611 LINE",
"50 595 LINE",
"260 230 LINE",
"260 55 LINE",
"177 41 LINE",
"177 0 LINE"
);
}
);
width = 576;
},
{
anchors = (
{
name = bottom;
position = "{312, 0}";
},
{
name = top;
position = "{326, 648}";
}
);
background = {
paths = (
{
closed = 1;
nodes = (
"472 0 LINE",
"472 60 LINE",
"392 80 LINE",
"392 241 LINE",
"564 568 LINE",
"640 588 LINE",
"640 648 LINE",
"380 648 LINE",
"380 587 LINE",
"460 571 LINE",
"460 566 LINE",
"352 343 LINE",
"332 343 LINE",
"229 558 LINE",
"229 572 LINE",
"281 587 LINE",
"281 648 LINE",
"-18 648 LINE",
"-18 587 LINE",
"50 571 LINE",
"232 245 LINE",
"232 80 LINE",
"152 60 LINE",
"152 0 LINE"
);
}
);
};
layerId = "5be9d440-7da3-4849-9ff3-c66a194b28b9";
paths = (
{
closed = 1;
nodes = (
"472 0 LINE",
"472 60 LINE",
"392 80 LINE",
"392 246 LINE",
"564 568 LINE",
"640 588 LINE",
"640 648 LINE",
"380 648 LINE",
"380 587 LINE",
"460 571 LINE",
"460 566 LINE",
"347 338 LINE",
"337 338 LINE",
"229 558 LINE",
"229 572 LINE",
"281 587 LINE",
"281 648 LINE",
"-18 648 LINE",
"-18 587 LINE",
"50 571 LINE",
"232 250 LINE",
"232 80 LINE",
"152 60 LINE",
"152 0 LINE"
);
}
);
width = 623;
},
{
anchors = (
{
name = bottom;
position = "{301, 0}";
},
{
name = top;
position = "{313, 648}";
}
);
layerId = "634A4682-752C-4BE1-9291-605804ACC698";
paths = (
{
closed = 1;
nodes = (
"433 0 LINE",
"433 48 LINE",
"352 64 LINE",
"352 248 LINE",
"539 586 LINE",
"603 603 LINE",
"603 648 LINE",
"381 648 LINE",
"381 603 LINE",
"459 587 LINE",
"459 572 LINE",
"318 303 LINE",
"312 303 LINE",
"173 570 LINE",
"173 587 LINE",
"244 603 LINE",
"244 648 LINE",
"-9 648 LINE",
"-9 603 LINE",
"54 587 LINE",
"249 240 LINE",
"249 64 LINE",
"167 48 LINE",
"167 0 LINE"
);
}
);
width = 593;
}
);
leftKerningGroup = Y;
rightKerningGroup = Y;
unicode = 0059;
},
{
glyphname = Z;
layers = (
{
anchors = (
{
name = bottom;
position = "{260, 0}";
},
{
name = top;
position = "{268, 648}";
}
);
background = {
paths = (
{
closed = 1;
nodes = (
"514 0 LINE",
"514 178 LINE",
"444 178 LINE",
"423 76 LINE",
"178 76 LINE",
"510 582 LINE",
"510 648 LINE",
"14 648 LINE",
"14 470 LINE",
"84 470 LINE",
"104 572 LINE",
"329 572 LINE",
"339 572 LINE",
"6 66 LINE",
"6 0 LINE"
);
}
);
};
layerId = "f777c4c2-d323-4068-8b89-2bd904ae3831";
paths = (
{
closed = 1;
nodes = (
"514 0 LINE",
"514 178 LINE",
"444 178 LINE",
"423 76 LINE",
"179 76 LINE",
"179 86 LINE",
"510 582 LINE",
"510 648 LINE",
"14 648 LINE",
"14 470 LINE",
"84 470 LINE",
"104 572 LINE",
"338 572 LINE",
"338 562 LINE",
"6 66 LINE",
"6 0 LINE"
);
}
);
width = 520;
},
{
anchors = (
{
name = bottom;
position = "{280, 0}";
},
{
name = top;
position = "{289, 648}";
}
);
background = {
paths = (
{
closed = 1;
nodes = (
"524 0 LINE",
"524 163 LINE",
"475 163 LINE",
"446 59 LINE",
"145 59 LINE",
"525 599 LINE",
"525 648 LINE",
"45 648 LINE",
"45 485 LINE",
"94 485 LINE",
"123 589 LINE",
"409 589 LINE",
"415 589 LINE",
"35 49 LINE",
"35 0 LINE"
);
}
);
};
layerId = "fce2a917-1261-4b8f-a12a-6bbc6dc19885";
paths = (
{
closed = 1;
nodes = (
"524 0 LINE",
"524 163 LINE",
"475 163 LINE",
"446 59 LINE",
"147 59 LINE",
"147 67 LINE",
"525 599 LINE",
"525 648 LINE",
"45 648 LINE",
"45 485 LINE",
"94 485 LINE",
"123 589 LINE",
"413 589 LINE",
"413 581 LINE",
"35 49 LINE",
"35 0 LINE"
);
}
);
width = 559;
},
{
anchors = (
{
name = bottom;
position = "{285, 0}";
},
{
name = top;
position = "{293, 648}";
}
);
background = {
paths = (
{
closed = 1;
nodes = (
"527 0 LINE",
"527 156 LINE",
"483 156 LINE",
"452 52 LINE",
"134 52 LINE",
"522 606 LINE",
"522 648 LINE",
"53 648 LINE",
"53 492 LINE",
"97 492 LINE",
"128 596 LINE",
"431 596 LINE",
"43 42 LINE",
"43 0 LINE"
);
}
);
};
layerId = "4c090d2b-0954-42f9-b8fa-9b61004e66c3";
paths = (
{
closed = 1;
nodes = (
"527 0 LINE",
"527 156 LINE",
"483 156 LINE",
"452 52 LINE",
"136 52 LINE",
"136 58 LINE",
"522 606 LINE",
"522 648 LINE",
"53 648 LINE",
"53 492 LINE",
"97 492 LINE",
"128 596 LINE",
"430 596 LINE",
"430 590 LINE",
"43 42 LINE",
"43 0 LINE"
);
}
);
width = 569;
},
{
anchors = (
{
name = bottom;
position = "{253, 0}";
},
{
name = top;
position = "{271, 648}";
}
);
layerId = "5be9d440-7da3-4849-9ff3-c66a194b28b9";
paths = (
{
closed = 1;
nodes = (
"510 0 LINE",
"510 183 LINE",
"433 183 LINE",
"415 83 LINE",
"189 83 LINE",
"189 95 LINE",
"504 575 LINE",
"504 648 LINE",
"3 648 LINE",
"3 465 LINE",
"81 465 LINE",
"98 565 LINE",
"311 565 LINE",
"311 553 LINE",
"-4 73 LINE",
"-4 0 LINE"
);
}
);
width = 507;
},
{
anchors = (
{
name = bottom;
position = "{274, 0}";
},
{
name = top;
position = "{283, 648}";
}
);
layerId = "634A4682-752C-4BE1-9291-605804ACC698";
paths = (
{
closed = 1;
nodes = (
"521 0 LINE",
"521 168 LINE",
"466 168 LINE",
"439 64 LINE",
"157 64 LINE",
"157 73 LINE",
"521 594 LINE",
"521 648 LINE",
"36 648 LINE",
"36 481 LINE",
"91 481 LINE",
"117 584 LINE",
"390 584 LINE",
"390 575 LINE",
"26 54 LINE",
"26 0 LINE"
);
}
);
width = 547;
}
);
leftKerningGroup = Z;
rightKerningGroup = Z;
unicode = 005A;
},
{
glyphname = Y.loclGUA;
layers = (
{
anchors = (
{
name = bottom;
position = "{342, 0}";
},
{
name = top;
position = "{342, 648}";
},
{
name = topright;
position = "{664, 648}";
}
);
layerId = "f777c4c2-d323-4068-8b89-2bd904ae3831";
paths = (
{
closed = 1;
nodes = (
"559 -18 OFFCURVE",
"601 110 OFFCURVE",
"601 250 CURVE SMOOTH",
"601 573 LINE",
"681 592 LINE",
"681 648 LINE",
"379 648 LINE",
"379 592 LINE",
"459 573 LINE",
"459 322 LINE",
"426 309 OFFCURVE",
"390 302 OFFCURVE",
"358 302 CURVE SMOOTH",
"245 302 OFFCURVE",
"225 371 OFFCURVE",
"225 494 CURVE SMOOTH",
"225 573 LINE",
"299 592 LINE",
"299 648 LINE",
"3 648 LINE",
"3 592 LINE",
"83 573 LINE",
"83 494 LINE SMOOTH",
"83 300 OFFCURVE",
"147 215 OFFCURVE",
"346 215 CURVE SMOOTH",
"399 215 OFFCURVE",
"451 224 OFFCURVE",
"494 242 CURVE",
"459 283 LINE",
"459 251 LINE",
"458 130 OFFCURVE",
"438 65 OFFCURVE",
"311 65 CURVE SMOOTH",
"264 65 OFFCURVE",
"217 74 OFFCURVE",
"188 87 CURVE",
"162 208 LINE",
"92 208 LINE",
"92 30 LINE",
"131 8 OFFCURVE",
"218 -18 OFFCURVE",
"324 -18 CURVE"
);
}
);
width = 687;
},
{
anchors = (
{
name = bottom;
position = "{366, 0}";
},
{
name = top;
position = "{366, 648}";
},
{
name = topright;
position = "{697, 648}";
}
);
layerId = "fce2a917-1261-4b8f-a12a-6bbc6dc19885";
paths = (
{
closed = 1;
nodes = (
"499 -14 OFFCURVE",
"595 59 OFFCURVE",
"595 251 CURVE SMOOTH",
"595 589 LINE",
"668 604 LINE",
"668 648 LINE",
"413 648 LINE",
"413 604 LINE",
"508 587 LINE",
"508 337 LINE",
"465 289 OFFCURVE",
"415 262 OFFCURVE",
"352 262 CURVE SMOOTH",
"239 262 OFFCURVE",
"214 346 OFFCURVE",
"214 465 CURVE SMOOTH",
"214 589 LINE",
"296 604 LINE",
"296 648 LINE",
"45 648 LINE",
"45 604 LINE",
"127 589 LINE",
"127 445 LINE SMOOTH",
"127 295 OFFCURVE",
"171 199 OFFCURVE",
"331 199 CURVE SMOOTH",
"410 199 OFFCURVE",
"467 223 OFFCURVE",
"529 276 CURVE",
"508 296 LINE",
"508 239 LINE SMOOTH",
"508 131 OFFCURVE",
"469 37 OFFCURVE",
"341 37 CURVE SMOOTH",
"294 37 OFFCURVE",
"249 50 OFFCURVE",
"200 77 CURVE",
"171 187 LINE",
"123 187 LINE",
"123 43 LINE",
"197 3 OFFCURVE",
"265 -14 OFFCURVE",
"341 -14 CURVE"
);
}
);
width = 713;
},
{
anchors = (
{
name = bottom;
position = "{372, 0}";
},
{
name = top;
position = "{372, 648}";
},
{
name = topright;
position = "{706, 648}";
}
);
layerId = "4c090d2b-0954-42f9-b8fa-9b61004e66c3";
paths = (
{
closed = 1;
nodes = (
"483 -13 OFFCURVE",
"593 46 OFFCURVE",
"593 251 CURVE SMOOTH",
"593 593 LINE",
"665 607 LINE",
"665 648 LINE",
"422 648 LINE",
"422 607 LINE",
"521 591 LINE",
"521 341 LINE",
"475 284 OFFCURVE",
"422 252 OFFCURVE",
"350 252 CURVE SMOOTH",
"237 252 OFFCURVE",
"211 340 OFFCURVE",
"211 457 CURVE SMOOTH",
"211 593 LINE",
"295 607 LINE",
"295 648 LINE",
"56 648 LINE",
"56 607 LINE",
"138 593 LINE",
"138 432 LINE SMOOTH",
"138 294 OFFCURVE",
"177 195 OFFCURVE",
"327 195 CURVE SMOOTH",
"413 195 OFFCURVE",
"471 223 OFFCURVE",
"538 285 CURVE",
"521 299 LINE",
"521 236 LINE SMOOTH",
"521 131 OFFCURVE",
"477 30 OFFCURVE",
"349 30 CURVE SMOOTH",
"302 30 OFFCURVE",
"257 44 OFFCURVE",
"203 74 CURVE",
"173 182 LINE",
"131 182 LINE",
"131 46 LINE",
"214 2 OFFCURVE",
"277 -13 OFFCURVE",
"345 -13 CURVE"
);
}
);
width = 720;
},
{
anchors = (
{
name = bottom;
position = "{334, 0}";
},
{
name = top;
position = "{334, 648}";
},
{
name = topright;
position = "{653, 648}";
}
);
layerId = "5be9d440-7da3-4849-9ff3-c66a194b28b9";
paths = (
{
closed = 1;
nodes = (
"579 -19 OFFCURVE",
"603 127 OFFCURVE",
"603 250 CURVE SMOOTH",
"603 568 LINE",
"685 588 LINE",
"685 648 LINE",
"367 648 LINE",
"367 588 LINE",
"442 568 LINE",
"442 317 LINE",
"413 316 OFFCURVE",
"382 316 OFFCURVE",
"360 316 CURVE SMOOTH",
"247 316 OFFCURVE",
"229 380 OFFCURVE",
"229 504 CURVE SMOOTH",
"229 568 LINE",
"300 588 LINE",
"300 648 LINE",
"-11 648 LINE",
"-11 588 LINE",
"68 568 LINE",
"68 511 LINE SMOOTH",
"68 302 OFFCURVE",
"139 220 OFFCURVE",
"351 220 CURVE SMOOTH",
"395 220 OFFCURVE",
"446 224 OFFCURVE",
"482 230 CURVE",
"442 279 LINE",
"442 255 LINE",
"441 130 OFFCURVE",
"427 75 OFFCURVE",
"301 75 CURVE SMOOTH",
"254 75 OFFCURVE",
"206 82 OFFCURVE",
"184 90 CURVE",
"159 215 LINE",
"81 215 LINE",
"81 26 LINE",
"109 10 OFFCURVE",
"202 -19 OFFCURVE",
"318 -19 CURVE"
);
}
);
width = 678;
},
{
anchors = (
{
name = bottom;
position = "{359, 0}";
},
{
name = top;
position = "{359, 648}";
},
{
name = topright;
position = "{687, 648}";
}
);
layerId = "634A4682-752C-4BE1-9291-605804ACC698";
paths = (
{
closed = 1;
nodes = (
"517 -15 OFFCURVE",
"597 74 OFFCURVE",
"597 251 CURVE SMOOTH",
"597 584 LINE",
"672 600 LINE",
"672 648 LINE",
"403 648 LINE",
"403 600 LINE",
"493 583 LINE",
"493 333 LINE",
"453 295 OFFCURVE",
"408 274 OFFCURVE",
"354 274 CURVE SMOOTH",
"241 274 OFFCURVE",
"217 354 OFFCURVE",
"217 474 CURVE SMOOTH",
"217 584 LINE",
"297 600 LINE",
"297 648 LINE",
"32 648 LINE",
"32 600 LINE",
"114 584 LINE",
"114 460 LINE SMOOTH",
"114 297 OFFCURVE",
"164 204 OFFCURVE",
"336 204 CURVE SMOOTH",
"407 204 OFFCURVE",
"462 223 OFFCURVE",
"519 266 CURVE",
"493 292 LINE",
"493 243 LINE SMOOTH",
"493 131 OFFCURVE",
"460 45 OFFCURVE",
"332 45 CURVE SMOOTH",
"285 45 OFFCURVE",
"239 57 OFFCURVE",
"196 80 CURVE",
"168 193 LINE",
"114 193 LINE",
"114 39 LINE",
"177 5 OFFCURVE",
"251 -15 OFFCURVE",
"336 -15 CURVE"
);
}
);
width = 705;
}
);
leftKerningGroup = Y.loclGUA;
rightKerningGroup = Y.loclGUA;
},
{
glyphname = a;
layers = (
{
anchors = (
{
name = bottom;
position = "{260, 0}";
},
{
name = ogonek;
position = "{440, 0}";
},
{
name = top;
position = "{260, 494}";
}
);
layerId = "f777c4c2-d323-4068-8b89-2bd904ae3831";
paths = (
{
closed = 1;
nodes = (
"250 -12 OFFCURVE",
"297 27 OFFCURVE",
"311 41 CURVE",
"320 41 LINE",
"330 12 OFFCURVE",
"344 -6 OFFCURVE",
"400 -6 CURVE SMOOTH",
"439 -6 OFFCURVE",
"487 7 OFFCURVE",
"512 16 CURVE",
"512 67 LINE",
"439 81 LINE",
"439 373 LINE SMOOTH",
"439 476 OFFCURVE",
"378 509 OFFCURVE",
"266 509 CURVE SMOOTH",
"182 509 OFFCURVE",
"51 469 OFFCURVE",
"51 379 CURVE SMOOTH",
"51 334 OFFCURVE",
"76 320 OFFCURVE",
"120 320 CURVE SMOOTH",
"140 320 OFFCURVE",
"162 326 OFFCURVE",
"173 330 CURVE",
"187 421 LINE",
"192 423 OFFCURVE",
"207 426 OFFCURVE",
"233 426 CURVE SMOOTH",
"296 426 OFFCURVE",
"307 397 OFFCURVE",
"307 350 CURVE SMOOTH",
"307 284 LINE",
"200 266 LINE SMOOTH",
"109 251 OFFCURVE",
"33 208 OFFCURVE",
"33 118 CURVE SMOOTH",
"33 50 OFFCURVE",
"75 -12 OFFCURVE",
"179 -12 CURVE"
);
},
{
closed = 1;
nodes = (
"193 74 OFFCURVE",
"174 98 OFFCURVE",
"174 135 CURVE SMOOTH",
"174 175 OFFCURVE",
"189 205 OFFCURVE",
"307 215 CURVE",
"307 91 LINE",
"294 84 OFFCURVE",
"272 74 OFFCURVE",
"248 74 CURVE"
);
}
);
width = 520;
},
{
anchors = (
{
name = bottom;
position = "{240, 0}";
},
{
name = ogonek;
position = "{390, 0}";
},
{
name = top;
position = "{240, 494}";
}
);
layerId = "fce2a917-1261-4b8f-a12a-6bbc6dc19885";
paths = (
{
closed = 1;
nodes = (
"242 -7 OFFCURVE",
"297 30 OFFCURVE",
"308 42 CURVE",
"312 42 LINE",
"314 21 OFFCURVE",
"323 -4 OFFCURVE",
"360 -4 CURVE SMOOTH",
"399 -4 OFFCURVE",
"440 7 OFFCURVE",
"460 16 CURVE",
"460 54 LINE",
"389 68 LINE",
"389 389 LINE SMOOTH",
"389 452 OFFCURVE",
"345 504 OFFCURVE",
"258 504 CURVE SMOOTH",
"204 504 OFFCURVE",
"54 462 OFFCURVE",
"54 379 CURVE SMOOTH",
"54 351 OFFCURVE",
"77 333 OFFCURVE",
"100 333 CURVE SMOOTH",
"117 333 OFFCURVE",
"128 337 OFFCURVE",
"132 340 CURVE",
"147 432 LINE",
"159 435 OFFCURVE",
"183 440 OFFCURVE",
"209 440 CURVE SMOOTH",
"272 440 OFFCURVE",
"307 415 OFFCURVE",
"307 356 CURVE SMOOTH",
"307 281 LINE",
"217 268 LINE SMOOTH",
"97 251 OFFCURVE",
"38 200 OFFCURVE",
"38 117 CURVE SMOOTH",
"38 51 OFFCURVE",
"76 -7 OFFCURVE",
"178 -7 CURVE SMOOTH"
);
},
{
closed = 1;
nodes = (
"156 56 OFFCURVE",
"126 82 OFFCURVE",
"126 132 CURVE SMOOTH",
"126 196 OFFCURVE",
"183 224 OFFCURVE",
"307 233 CURVE",
"307 74 LINE",
"288 66 OFFCURVE",
"250 56 OFFCURVE",
"213 56 CURVE SMOOTH"
);
}
);
width = 480;
},
{
anchors = (
{
name = bottom;
position = "{235, 0}";
},
{
name = ogonek;
position = "{378, 0}";
},
{
name = top;
position = "{235, 494}";
}
);
layerId = "4c090d2b-0954-42f9-b8fa-9b61004e66c3";
paths = (
{
closed = 1;
nodes = (
"228 -6 OFFCURVE",
"276 17 OFFCURVE",
"308 42 CURVE",
"312 42 LINE",
"312 23 OFFCURVE",
"322 -4 OFFCURVE",
"354 -4 CURVE SMOOTH",
"407 -4 OFFCURVE",
"442 13 OFFCURVE",
"446 16 CURVE",
"446 51 LINE",
"376 65 LINE",
"376 393 LINE SMOOTH",
"376 446 OFFCURVE",
"336 503 OFFCURVE",
"256 503 CURVE SMOOTH",
"206 503 OFFCURVE",
"55 462 OFFCURVE",
"55 379 CURVE SMOOTH",
"55 355 OFFCURVE",
"77 336 OFFCURVE",
"95 336 CURVE SMOOTH",
"116 336 OFFCURVE",
"121 342 OFFCURVE",
"121 343 CURVE",
"137 435 LINE",
"140 436 OFFCURVE",
"168 444 OFFCURVE",
"203 444 CURVE SMOOTH",
"266 444 OFFCURVE",
"307 420 OFFCURVE",
"307 358 CURVE SMOOTH",
"307 280 LINE",
"221 269 LINE SMOOTH",
"94 253 OFFCURVE",
"39 198 OFFCURVE",
"39 117 CURVE SMOOTH",
"39 51 OFFCURVE",
"75 -6 OFFCURVE",
"177 -6 CURVE SMOOTH"
);
},
{
closed = 1;
nodes = (
"147 51 OFFCURVE",
"114 79 OFFCURVE",
"114 131 CURVE SMOOTH",
"114 201 OFFCURVE",
"181 229 OFFCURVE",
"307 238 CURVE",
"307 71 LINE",
"310 72 OFFCURVE",
"267 51 OFFCURVE",
"210 51 CURVE SMOOTH"
);
}
);
width = 470;
},
{
anchors = (
{
name = bottom;
position = "{267, 0}";
},
{
name = ogonek;
position = "{458, 0}";
},
{
name = top;
position = "{267, 494}";
}
);
layerId = "5be9d440-7da3-4849-9ff3-c66a194b28b9";
paths = (
{
closed = 1;
nodes = (
"250 -14 OFFCURVE",
"297 26 OFFCURVE",
"312 41 CURVE",
"319 41 LINE",
"331 9 OFFCURVE",
"351 -7 OFFCURVE",
"414 -7 CURVE SMOOTH",
"468 -7 OFFCURVE",
"524 13 OFFCURVE",
"530 16 CURVE",
"530 71 LINE",
"456 85 LINE",
"456 368 LINE SMOOTH",
"456 481 OFFCURVE",
"382 511 OFFCURVE",
"269 511 CURVE SMOOTH",
"181 511 OFFCURVE",
"50 469 OFFCURVE",
"50 379 CURVE SMOOTH",
"50 328 OFFCURVE",
"76 316 OFFCURVE",
"127 316 CURVE SMOOTH",
"157 316 OFFCURVE",
"184 325 OFFCURVE",
"187 327 CURVE",
"201 416 LINE",
"208 419 OFFCURVE",
"217 421 OFFCURVE",
"241 421 CURVE SMOOTH",
"303 421 OFFCURVE",
"307 384 OFFCURVE",
"307 348 CURVE SMOOTH",
"307 285 LINE",
"194 265 LINE SMOOTH",
"113 251 OFFCURVE",
"31 211 OFFCURVE",
"31 118 CURVE SMOOTH",
"31 50 OFFCURVE",
"74 -14 OFFCURVE",
"179 -14 CURVE SMOOTH"
);
},
{
closed = 1;
nodes = (
"211 81 OFFCURVE",
"189 100 OFFCURVE",
"189 137 CURVE SMOOTH",
"189 167 OFFCURVE",
"197 198 OFFCURVE",
"307 208 CURVE",
"307 97 LINE",
"290 87 OFFCURVE",
"273 81 OFFCURVE",
"252 81 CURVE SMOOTH"
);
}
);
width = 534;
},
{
anchors = (
{
name = bottom;
position = "{246, 0}";
},
{
name = ogonek;
position = "{405, 0}";
},
{
name = top;
position = "{246, 494}";
}
);
layerId = "634A4682-752C-4BE1-9291-605804ACC698";
paths = (
{
closed = 1;
nodes = (
"244 -9 OFFCURVE",
"297 29 OFFCURVE",
"309 42 CURVE",
"314 42 LINE",
"319 18 OFFCURVE",
"329 -5 OFFCURVE",
"372 -5 CURVE SMOOTH",
"411 -5 OFFCURVE",
"454 7 OFFCURVE",
"476 16 CURVE",
"476 58 LINE",
"404 72 LINE",
"404 384 LINE SMOOTH",
"404 459 OFFCURVE",
"355 505 OFFCURVE",
"260 505 CURVE SMOOTH",
"197 505 OFFCURVE",
"53 464 OFFCURVE",
"53 379 CURVE SMOOTH",
"53 346 OFFCURVE",
"77 329 OFFCURVE",
"106 329 CURVE SMOOTH",
"124 329 OFFCURVE",
"138 334 OFFCURVE",
"144 337 CURVE",
"159 429 LINE",
"169 431 OFFCURVE",
"190 436 OFFCURVE",
"216 436 CURVE SMOOTH",
"279 436 OFFCURVE",
"307 410 OFFCURVE",
"307 354 CURVE SMOOTH",
"307 282 LINE",
"212 267 LINE SMOOTH",
"101 251 OFFCURVE",
"37 202 OFFCURVE",
"37 117 CURVE SMOOTH",
"37 51 OFFCURVE",
"76 -9 OFFCURVE",
"178 -9 CURVE SMOOTH"
);
},
{
closed = 1;
nodes = (
"167 61 OFFCURVE",
"140 87 OFFCURVE",
"140 133 CURVE SMOOTH",
"140 190 OFFCURVE",
"185 218 OFFCURVE",
"307 228 CURVE",
"307 79 LINE",
"290 71 OFFCURVE",
"257 61 OFFCURVE",
"224 61 CURVE SMOOTH"
);
}
);
width = 492;
}
);
leftKerningGroup = a;
rightKerningGroup = a;
unicode = 0061;
},
{
glyphname = ae;
layers = (
{
anchors = (
{
name = top;
position = "{397, 494}";
}
);
background = {
paths = (
{
closed = 0;
nodes = (
"239 271 LINE SMOOTH"
);
}
);
};
layerId = "f777c4c2-d323-4068-8b89-2bd904ae3831";
paths = (
{
closed = 1;
nodes = (
"284 -12 OFFCURVE",
"345 32 OFFCURVE",
"362 47 CURVE",
"401 4 OFFCURVE",
"461 -12 OFFCURVE",
"542 -12 CURVE SMOOTH",
"622 -12 OFFCURVE",
"692 28 OFFCURVE",
"723 58 CURVE",
"704 100 LINE",
"684 90 OFFCURVE",
"636 76 OFFCURVE",
"575 76 CURVE SMOOTH",
"474 76 OFFCURVE",
"444 128 OFFCURVE",
"443 224 CURVE",
"688 224 LINE SMOOTH",
"719 224 OFFCURVE",
"735 239 OFFCURVE",
"735 308 CURVE SMOOTH",
"735 398 OFFCURVE",
"695 509 OFFCURVE",
"538 509 CURVE SMOOTH",
"486 509 OFFCURVE",
"441 495 OFFCURVE",
"406 470 CURVE",
"377 498 OFFCURVE",
"330 509 OFFCURVE",
"266 509 CURVE SMOOTH",
"182 509 OFFCURVE",
"51 469 OFFCURVE",
"51 379 CURVE SMOOTH",
"51 334 OFFCURVE",
"76 320 OFFCURVE",
"120 320 CURVE SMOOTH",
"140 320 OFFCURVE",
"162 326 OFFCURVE",
"173 330 CURVE",
"187 421 LINE",
"192 423 OFFCURVE",
"207 426 OFFCURVE",
"233 426 CURVE SMOOTH",
"296 426 OFFCURVE",
"307 397 OFFCURVE",
"307 350 CURVE SMOOTH",
"307 277 LINE",
"239 271 LINE SMOOTH",
"117 261 OFFCURVE",
"33 223 OFFCURVE",
"33 118 CURVE SMOOTH",
"33 50 OFFCURVE",
"75 -12 OFFCURVE",
"179 -12 CURVE SMOOTH"
);
},
{
closed = 1;
nodes = (
"193 69 OFFCURVE",
"174 98 OFFCURVE",
"174 131 CURVE SMOOTH",
"174 175 OFFCURVE",
"189 205 OFFCURVE",
"307 215 CURVE",
"307 86 LINE",
"294 79 OFFCURVE",
"272 69 OFFCURVE",
"248 69 CURVE SMOOTH"
);
},
{
closed = 1;
nodes = (
"454 365 OFFCURVE",
"469 426 OFFCURVE",
"539 426 CURVE SMOOTH",
"597 426 OFFCURVE",
"605 395 OFFCURVE",
"605 329 CURVE SMOOTH",
"605 321 OFFCURVE",
"604 311 OFFCURVE",
"602 299 CURVE",
"451 287 LINE"
);
}
);
width = 770;
},
{
anchors = (
{
name = top;
position = "{381, 494}";
}
);
background = {
paths = (
{
closed = 0;
nodes = (
"247 268 LINE SMOOTH"
);
}
);
};
layerId = "fce2a917-1261-4b8f-a12a-6bbc6dc19885";
paths = (
{
closed = 1;
nodes = (
"266 -9 OFFCURVE",
"319 21 OFFCURVE",
"358 58 CURVE",
"391 15 OFFCURVE",
"442 -9 OFFCURVE",
"516 -9 CURVE SMOOTH",
"591 -9 OFFCURVE",
"651 21 OFFCURVE",
"675 44 CURVE",
"666 77 LINE",
"641 70 OFFCURVE",
"584 61 OFFCURVE",
"518 61 CURVE SMOOTH",
"402 61 OFFCURVE",
"394 150 OFFCURVE",
"394 223 CURVE",
"663 233 LINE SMOOTH",
"682 234 OFFCURVE",
"692 242 OFFCURVE",
"692 260 CURVE SMOOTH",
"692 409 OFFCURVE",
"657 504 OFFCURVE",
"521 504 CURVE SMOOTH",
"463 504 OFFCURVE",
"413 479 OFFCURVE",
"377 436 CURVE",
"357 476 OFFCURVE",
"314 504 OFFCURVE",
"258 504 CURVE SMOOTH",
"204 504 OFFCURVE",
"53 463 OFFCURVE",
"53 378 CURVE SMOOTH",
"53 343 OFFCURVE",
"72 333 OFFCURVE",
"96 333 CURVE SMOOTH",
"111 333 OFFCURVE",
"122 337 OFFCURVE",
"126 340 CURVE",
"148 427 LINE",
"159 430 OFFCURVE",
"183 434 OFFCURVE",
"209 434 CURVE SMOOTH",
"272 434 OFFCURVE",
"306 409 OFFCURVE",
"306 350 CURVE SMOOTH",
"306 271 LINE",
"247 268 LINE SMOOTH",
"105 260 OFFCURVE",
"38 202 OFFCURVE",
"38 117 CURVE SMOOTH",
"38 50 OFFCURVE",
"78 -9 OFFCURVE",
"180 -9 CURVE SMOOTH"
);
},
{
closed = 1;
nodes = (
"149 53 OFFCURVE",
"126 79 OFFCURVE",
"126 132 CURVE SMOOTH",
"126 191 OFFCURVE",
"180 218 OFFCURVE",
"306 219 CURVE",
"306 74 LINE",
"288 65 OFFCURVE",
"249 53 OFFCURVE",
"213 53 CURVE SMOOTH"
);
},
{
closed = 1;
nodes = (
"394 364 OFFCURVE",
"421 437 OFFCURVE",
"507 437 CURVE SMOOTH",
"580 437 OFFCURVE",
"609 418 OFFCURVE",
"609 329 CURVE SMOOTH",
"609 314 OFFCURVE",
"608 299 OFFCURVE",
"606 287 CURVE",
"394 275 LINE"
);
}
);
width = 727;
},
{
anchors = (
{
name = top;
position = "{377, 494}";
}
);
layerId = "4c090d2b-0954-42f9-b8fa-9b61004e66c3";
paths = (
{
closed = 1;
nodes = (
"260 -8 OFFCURVE",
"312 18 OFFCURVE",
"357 61 CURVE",
"388 18 OFFCURVE",
"437 -8 OFFCURVE",
"509 -8 CURVE SMOOTH",
"575 -8 OFFCURVE",
"632 11 OFFCURVE",
"662 40 CURVE",
"656 71 LINE",
"624 62 OFFCURVE",
"565 57 OFFCURVE",
"503 57 CURVE SMOOTH",
"383 57 OFFCURVE",
"381 156 OFFCURVE",
"381 223 CURVE",
"656 235 LINE",
"672 237 OFFCURVE",
"681 243 OFFCURVE",
"681 248 CURVE SMOOTH",
"681 412 OFFCURVE",
"647 503 OFFCURVE",
"516 503 CURVE SMOOTH",
"457 503 OFFCURVE",
"406 475 OFFCURVE",
"369 427 CURVE",
"352 470 OFFCURVE",
"310 503 OFFCURVE",
"256 503 CURVE SMOOTH",
"205 503 OFFCURVE",
"53 461 OFFCURVE",
"53 378 CURVE SMOOTH",
"53 345 OFFCURVE",
"71 336 OFFCURVE",
"90 336 CURVE SMOOTH",
"101 336 OFFCURVE",
"109 339 OFFCURVE",
"114 343 CURVE",
"138 429 LINE",
"152 432 OFFCURVE",
"179 436 OFFCURVE",
"203 436 CURVE SMOOTH",
"266 436 OFFCURVE",
"306 412 OFFCURVE",
"306 350 CURVE SMOOTH",
"306 271 LINE",
"259 268 LINE SMOOTH",
"102 260 OFFCURVE",
"39 197 OFFCURVE",
"39 117 CURVE SMOOTH",
"39 50 OFFCURVE",
"78 -8 OFFCURVE",
"179 -8 CURVE SMOOTH"
);
},
{
closed = 1;
nodes = (
"146 48 OFFCURVE",
"113 77 OFFCURVE",
"113 133 CURVE SMOOTH",
"113 199 OFFCURVE",
"177 219 OFFCURVE",
"306 223 CURVE",
"306 68 LINE",
"289 59 OFFCURVE",
"249 48 OFFCURVE",
"208 48 CURVE SMOOTH"
);
},
{
closed = 1;
nodes = (
"378 364 OFFCURVE",
"408 440 OFFCURVE",
"499 440 CURVE SMOOTH",
"575 440 OFFCURVE",
"610 424 OFFCURVE",
"610 329 CURVE SMOOTH",
"610 312 OFFCURVE",
"609 296 OFFCURVE",
"607 284 CURVE",
"379 272 LINE"
);
}
);
width = 721;
},
{
anchors = (
{
name = top;
position = "{402, 494}";
}
);
background = {
paths = (
{
closed = 0;
nodes = (
"307 279 LINE",
"246 273 LINE SMOOTH"
);
}
);
};
layerId = "5be9d440-7da3-4849-9ff3-c66a194b28b9";
paths = (
{
closed = 1;
nodes = (
"290 -14 OFFCURVE",
"353 35 OFFCURVE",
"363 43 CURVE",
"404 0 OFFCURVE",
"467 -13 OFFCURVE",
"550 -13 CURVE SMOOTH",
"671 -13 OFFCURVE",
"747 71 OFFCURVE",
"739 63 CURVE",
"717 108 LINE",
"725 110 OFFCURVE",
"683 81 OFFCURVE",
"594 81 CURVE SMOOTH",
"498 81 OFFCURVE",
"461 116 OFFCURVE",
"459 219 CURVE",
"696 225 LINE SMOOTH",
"731 226 OFFCURVE",
"749 238 OFFCURVE",
"749 324 CURVE SMOOTH",
"749 394 OFFCURVE",
"708 511 OFFCURVE",
"543 511 CURVE SMOOTH",
"493 511 OFFCURVE",
"447 498 OFFCURVE",
"412 477 CURVE",
"380 500 OFFCURVE",
"335 511 OFFCURVE",
"268 511 CURVE SMOOTH",
"174 511 OFFCURVE",
"50 471 OFFCURVE",
"50 379 CURVE SMOOTH",
"50 331 OFFCURVE",
"77 316 OFFCURVE",
"128 316 CURVE SMOOTH",
"157 316 OFFCURVE",
"184 325 OFFCURVE",
"189 327 CURVE",
"200 416 LINE",
"204 418 OFFCURVE",
"214 422 OFFCURVE",
"241 422 CURVE SMOOTH",
"304 422 OFFCURVE",
"307 393 OFFCURVE",
"307 350 CURVE SMOOTH",
"307 279 LINE",
"246 273 LINE SMOOTH",
"121 261 OFFCURVE",
"31 230 OFFCURVE",
"31 118 CURVE SMOOTH",
"31 50 OFFCURVE",
"74 -14 OFFCURVE",
"178 -14 CURVE SMOOTH"
);
},
{
closed = 1;
nodes = (
"211 81 OFFCURVE",
"189 100 OFFCURVE",
"189 137 CURVE SMOOTH",
"189 173 OFFCURVE",
"197 204 OFFCURVE",
"307 214 CURVE",
"307 92 LINE",
"290 85 OFFCURVE",
"273 81 OFFCURVE",
"252 81 CURVE SMOOTH"
);
},
{
closed = 1;
nodes = (
"464 365 OFFCURVE",
"475 419 OFFCURVE",
"540 419 CURVE SMOOTH",
"592 419 OFFCURVE",
"593 387 OFFCURVE",
"593 329 CURVE SMOOTH",
"593 323 OFFCURVE",
"592 315 OFFCURVE",
"590 303 CURVE",
"460 291 LINE"
);
}
);
width = 779;
},
{
anchors = (
{
name = top;
position = "{386, 494}";
}
);
layerId = "634A4682-752C-4BE1-9291-605804ACC698";
paths = (
{
closed = 1;
nodes = (
"271 -10 OFFCURVE",
"327 24 OFFCURVE",
"359 55 CURVE",
"394 12 OFFCURVE",
"448 -10 OFFCURVE",
"524 -10 CURVE SMOOTH",
"600 -10 OFFCURVE",
"663 23 OFFCURVE",
"689 48 CURVE",
"677 84 LINE",
"654 76 OFFCURVE",
"600 66 OFFCURVE",
"535 66 CURVE SMOOTH",
"424 66 OFFCURVE",
"409 143 OFFCURVE",
"409 223 CURVE",
"671 230 LINE SMOOTH",
"693 231 OFFCURVE",
"705 241 OFFCURVE",
"705 274 CURVE SMOOTH",
"705 406 OFFCURVE",
"668 505 OFFCURVE",
"526 505 CURVE SMOOTH",
"470 505 OFFCURVE",
"421 484 OFFCURVE",
"386 446 CURVE",
"363 483 OFFCURVE",
"319 505 OFFCURVE",
"260 505 CURVE SMOOTH",
"197 505 OFFCURVE",
"52 465 OFFCURVE",
"52 378 CURVE SMOOTH",
"52 340 OFFCURVE",
"73 329 OFFCURVE",
"103 329 CURVE SMOOTH",
"120 329 OFFCURVE",
"134 334 OFFCURVE",
"140 337 CURVE",
"160 425 LINE",
"169 428 OFFCURVE",
"190 432 OFFCURVE",
"216 432 CURVE SMOOTH",
"279 432 OFFCURVE",
"306 405 OFFCURVE",
"306 350 CURVE SMOOTH",
"306 273 LINE",
"245 269 LINE SMOOTH",
"109 260 OFFCURVE",
"37 208 OFFCURVE",
"37 117 CURVE SMOOTH",
"37 50 OFFCURVE",
"77 -10 OFFCURVE",
"180 -10 CURVE SMOOTH"
);
},
{
closed = 1;
nodes = (
"162 58 OFFCURVE",
"140 85 OFFCURVE",
"140 132 CURVE SMOOTH",
"140 186 OFFCURVE",
"183 214 OFFCURVE",
"306 218 CURVE",
"306 78 LINE",
"290 69 OFFCURVE",
"256 58 OFFCURVE",
"224 58 CURVE SMOOTH"
);
},
{
closed = 1;
nodes = (
"412 364 OFFCURVE",
"435 434 OFFCURVE",
"517 434 CURVE SMOOTH",
"585 434 OFFCURVE",
"608 411 OFFCURVE",
"608 329 CURVE SMOOTH",
"608 316 OFFCURVE",
"607 303 OFFCURVE",
"605 291 CURVE",
"411 279 LINE"
);
}
);
width = 740;
}
);
leftKerningGroup = a;
leftMetricsKey = a;
rightKerningGroup = e;
rightMetricsKey = e;
unicode = 00E6;
},
{
glyphname = b;
layers = (
{
anchors = (
{
name = bottom;
position = "{272, 0}";
},
{
name = top;
position = "{132, 648}";
}
);
layerId = "f777c4c2-d323-4068-8b89-2bd904ae3831";
paths = (
{
closed = 1;
nodes = (
"403 -8 OFFCURVE",
"513 84 OFFCURVE",
"513 288 CURVE SMOOTH",
"513 449 OFFCURVE",
"435 509 OFFCURVE",
"338 509 CURVE SMOOTH",
"260 509 OFFCURVE",
"206 468 OFFCURVE",
"192 457 CURVE",
"189 462 LINE",
"198 471 LINE",
"198 685 LINE",
"161 699 LINE",
"-15 676 LINE",
"-15 618 LINE",
"66 602 LINE",
"66 0 LINE",
"132 0 LINE",
"171 31 LINE",
"182 31 LINE",
"197 17 OFFCURVE",
"232 -8 OFFCURVE",
"294 -8 CURVE"
);
},
{
closed = 1;
nodes = (
"231 69 OFFCURVE",
"211 74 OFFCURVE",
"198 79 CURVE",
"198 407 LINE",
"211 412 OFFCURVE",
"237 421 OFFCURVE",
"273 421 CURVE SMOOTH",
"341 421 OFFCURVE",
"371 382 OFFCURVE",
"371 254 CURVE SMOOTH",
"371 113 OFFCURVE",
"335 69 OFFCURVE",
"260 69 CURVE"
);
}
);
width = 538;
},
{
anchors = (
{
name = bottom;
position = "{259, 0}";
},
{
name = top;
position = "{113, 648}";
}
);
layerId = "fce2a917-1261-4b8f-a12a-6bbc6dc19885";
paths = (
{
closed = 1;
nodes = (
"380 -9 OFFCURVE",
"478 88 OFFCURVE",
"478 276 CURVE SMOOTH",
"478 437 OFFCURVE",
"398 504 OFFCURVE",
"293 504 CURVE SMOOTH",
"219 504 OFFCURVE",
"172 469 OFFCURVE",
"154 452 CURVE",
"154 459 LINE",
"154 475 LINE",
"154 685 LINE",
"127 699 LINE",
"-10 672 LINE",
"-10 633 LINE",
"72 620 LINE",
"72 -3 LINE",
"113 -3 LINE",
"141 35 LINE",
"149 35 LINE",
"162 23 OFFCURVE",
"201 -9 OFFCURVE",
"267 -9 CURVE"
);
},
{
closed = 1;
nodes = (
"213 49 OFFCURVE",
"171 62 OFFCURVE",
"154 69 CURVE",
"154 419 LINE",
"172 424 OFFCURVE",
"212 434 OFFCURVE",
"257 434 CURVE SMOOTH",
"354 434 OFFCURVE",
"388 376 OFFCURVE",
"388 248 CURVE SMOOTH",
"388 100 OFFCURVE",
"337 49 OFFCURVE",
"255 49 CURVE"
);
}
);
width = 506;
},
{
anchors = (
{
name = bottom;
position = "{256, 0}";
},
{
name = top;
position = "{108, 648}";
}
);
layerId = "4c090d2b-0954-42f9-b8fa-9b61004e66c3";
paths = (
{
closed = 1;
nodes = (
"374 -9 OFFCURVE",
"469 89 OFFCURVE",
"469 273 CURVE SMOOTH",
"469 434 OFFCURVE",
"392 503 OFFCURVE",
"281 503 CURVE SMOOTH",
"208 503 OFFCURVE",
"162 469 OFFCURVE",
"143 451 CURVE",
"143 458 LINE",
"143 476 LINE",
"143 685 LINE",
"118 699 LINE",
"-9 671 LINE",
"-9 637 LINE",
"74 625 LINE",
"74 -4 LINE",
"110 -4 LINE",
"135 36 LINE",
"142 36 LINE",
"155 25 OFFCURVE",
"195 -9 OFFCURVE",
"262 -9 CURVE SMOOTH"
);
},
{
closed = 1;
nodes = (
"208 48 OFFCURVE",
"161 63 OFFCURVE",
"143 70 CURVE",
"143 422 LINE",
"162 427 OFFCURVE",
"206 437 OFFCURVE",
"253 437 CURVE SMOOTH",
"357 437 OFFCURVE",
"392 374 OFFCURVE",
"392 246 CURVE SMOOTH",
"392 97 OFFCURVE",
"338 48 OFFCURVE",
"254 48 CURVE SMOOTH"
);
}
);
width = 498;
},
{
anchors = (
{
name = bottom;
position = "{276, 0}";
},
{
name = top;
position = "{138, 648}";
}
);
layerId = "5be9d440-7da3-4849-9ff3-c66a194b28b9";
paths = (
{
closed = 1;
nodes = (
"411 -8 OFFCURVE",
"525 83 OFFCURVE",
"525 292 CURVE SMOOTH",
"525 453 OFFCURVE",
"448 511 OFFCURVE",
"353 511 CURVE SMOOTH",
"279 511 OFFCURVE",
"217 468 OFFCURVE",
"204 459 CURVE",
"202 463 LINE",
"213 471 LINE",
"213 685 LINE",
"173 699 LINE",
"-17 677 LINE",
"-17 613 LINE",
"64 596 LINE",
"64 1 LINE",
"138 1 LINE",
"181 30 LINE",
"193 30 LINE",
"209 15 OFFCURVE",
"243 -8 OFFCURVE",
"303 -8 CURVE SMOOTH"
);
},
{
closed = 1;
nodes = (
"236 76 OFFCURVE",
"225 80 OFFCURVE",
"213 85 CURVE",
"213 402 LINE",
"224 407 OFFCURVE",
"246 415 OFFCURVE",
"277 415 CURVE SMOOTH",
"337 415 OFFCURVE",
"365 383 OFFCURVE",
"365 255 CURVE SMOOTH",
"365 117 OFFCURVE",
"334 76 OFFCURVE",
"262 76 CURVE SMOOTH"
);
}
);
width = 549;
},
{
anchors = (
{
name = bottom;
position = "{263, 0}";
},
{
name = top;
position = "{119, 648}";
}
);
layerId = "634A4682-752C-4BE1-9291-605804ACC698";
paths = (
{
closed = 1;
nodes = (
"387 -9 OFFCURVE",
"489 87 OFFCURVE",
"489 280 CURVE SMOOTH",
"489 441 OFFCURVE",
"409 505 OFFCURVE",
"307 505 CURVE SMOOTH",
"231 505 OFFCURVE",
"182 469 OFFCURVE",
"165 454 CURVE",
"165 460 LINE",
"167 474 LINE",
"167 685 LINE",
"137 699 LINE",
"-12 673 LINE",
"-12 629 LINE",
"70 615 LINE",
"70 -2 LINE",
"119 -2 LINE",
"150 34 LINE",
"159 34 LINE",
"173 21 OFFCURVE",
"210 -9 OFFCURVE",
"275 -9 CURVE"
);
},
{
closed = 1;
nodes = (
"218 55 OFFCURVE",
"183 66 OFFCURVE",
"167 72 CURVE",
"167 415 LINE",
"184 420 OFFCURVE",
"219 430 OFFCURVE",
"262 430 CURVE SMOOTH",
"350 430 OFFCURVE",
"383 378 OFFCURVE",
"383 250 CURVE SMOOTH",
"383 104 OFFCURVE",
"336 55 OFFCURVE",
"257 55 CURVE"
);
}
);
width = 516;
}
);
leftKerningGroup = l;
rightKerningGroup = o;
rightMetricsKey = o;
unicode = 0062;
},
